<svg width="95" height="29" viewBox="0 0 95 29" fill="none" xmlns="http://www.w3.org/2000/svg">
<g clip-path="url(#clip0_22_388)">
<path fill-rule="evenodd" clip-rule="evenodd" d="M31.3936 21.469H37.2731C40.2551 21.469 42.6839 20.0809 42.6839 16.9428C42.6839 15.491 42.0447 14.2744 40.6176 13.6339C41.6612 12.929 42.2152 11.9469 42.2152 10.5805C42.2152 7.97646 40.2977 6.52466 37.1662 6.52466H31.3936V21.469ZM35.6113 12.1821V10.0681H36.8044C37.5287 10.0681 37.8906 10.4951 37.8906 11.0929C37.8906 11.7124 37.5287 12.1821 36.847 12.1821H35.6113ZM35.6113 17.9032V15.491H37.1879C37.9332 15.491 38.3383 16.0888 38.3383 16.6866C38.3383 17.2627 37.8906 17.9032 37.1236 17.9032H35.6113ZM47.8174 21.7462C49.2026 21.7462 50.2245 20.9776 50.6297 20.4015V21.469H54.6553V10.1962H50.5228V16.9001C50.5228 17.5406 50.1393 18.0957 49.3297 18.0957C48.6486 18.0957 48.1373 17.6897 48.1373 16.8357V10.1962H44.0048V17.4552C44.0048 20.0599 45.1546 21.7462 47.8174 21.7462ZM68.1823 6.03326H64.0498V10.9011C63.6454 10.5595 62.6437 9.91896 61.1956 9.91896C57.9363 9.91896 55.891 12.3529 55.891 15.8326C55.891 19.2913 58.1919 21.7462 61.4722 21.7462C62.9419 21.7462 63.922 21.1701 64.3481 20.7431V21.469H68.1823V6.03326ZM64.1776 15.8326C64.1776 17.1136 63.4749 18.1811 62.1114 18.1811C60.8114 18.1811 60.0235 17.2627 60.0235 15.8326C60.0235 14.4452 60.7905 13.4631 62.1114 13.4631C63.3471 13.4631 64.1776 14.3381 64.1776 15.8326ZM81.7945 6.03326H77.6614V10.9011C77.2569 10.5595 76.2559 9.91896 74.8072 9.91896C71.5485 9.91896 69.5032 12.3529 69.5032 15.8326C69.5032 19.2913 71.8035 21.7462 75.0838 21.7462C76.5542 21.7462 77.5342 21.1701 77.9603 20.7431V21.469H81.7945V6.03326ZM77.7899 15.8326C77.7899 17.1136 77.0872 18.1811 75.7236 18.1811C74.4244 18.1811 73.6357 17.2627 73.6357 15.8326C73.6357 14.4452 74.4027 13.4631 75.7236 13.4631C76.9586 13.4631 77.7899 14.3381 77.7899 15.8326ZM89.3778 25.2903L94.9164 10.1962H90.6135L88.8881 16.0244L87.2689 10.1962H82.8381L87.0133 21.042L85.5009 25.2903H89.3778Z" fill="#1A86FD"/>
<path fill-rule="evenodd" clip-rule="evenodd" d="M11.1737 0.76647C11.5455 0.551513 11.9672 0.438354 12.3965 0.438354C12.8257 0.438354 13.2474 0.551513 13.6192 0.76647L23.5698 6.52467C23.9416 6.73972 24.2504 7.04908 24.4651 7.42164C24.6798 7.7942 24.7929 8.21684 24.7929 8.64707V20.1628C24.7929 21.0378 24.3263 21.847 23.5698 22.2852L13.6192 28.0427C13.2474 28.2576 12.8257 28.3708 12.3965 28.3708C11.9672 28.3708 11.5455 28.2576 11.1737 28.0427C7.85683 26.1231 4.53975 24.2039 1.22243 22.2852C0.850811 22.0699 0.542235 21.7605 0.32767 21.388C0.113105 21.0154 0.000100623 20.5929 8.28451e-08 20.1628V8.64707C-0.000111652 8.2169 0.112803 7.79428 0.327389 7.42171C0.541975 7.04914 0.850668 6.73976 1.22243 6.52467L11.1737 0.76647Z" fill="#0DA7FE"/>
<path fill-rule="evenodd" clip-rule="evenodd" d="M-0.135742 21.5788L6.45628 14.4045L12.414 28.7496L-0.135742 21.5788Z" fill="#1A67FD"/>
<path fill-rule="evenodd" clip-rule="evenodd" d="M6.45628 14.4045L-0.0491245 7.18121L-0.135742 21.5788L6.45628 14.4045Z" fill="#0DA7FE"/>
<path fill-rule="evenodd" clip-rule="evenodd" d="M6.45658 14.4045L12.4143 0.0587158L-0.0488281 7.18122L6.45658 14.4045Z" fill="#05BBFF"/>
<path fill-rule="evenodd" clip-rule="evenodd" d="M12.4138 0.0587158L24.8106 21.5774L6.45605 14.4045" fill="#00C9FF"/>
<path fill-rule="evenodd" clip-rule="evenodd" d="M12.4138 28.7741L24.8106 21.5788L6.45605 14.4045L12.4138 28.7741Z" fill="#1A86FD"/>
<path fill-rule="evenodd" clip-rule="evenodd" d="M24.8109 21.5774V7.23162L12.4141 0.0587158L24.8109 21.5774Z" fill="#05BBFF"/>
<path fill-rule="evenodd" clip-rule="evenodd" d="M10.6041 8.75415L16.6079 14.7707L10.6041 20.7879L9.03027 19.2107L13.4603 14.7707L9.03027 10.3313L10.6041 8.75415Z" fill="#1A67FD" fill-opacity="0.5"/>
<path fill-rule="evenodd" clip-rule="evenodd" d="M16.6079 14.0636L15.0341 12.4858L9.03027 18.503L10.6041 20.0801L16.6079 14.0629V14.0636Z" fill="#D6FFFF"/>
<path fill-rule="evenodd" clip-rule="evenodd" d="M10.6041 8.04645L9.03027 9.62355L15.0341 15.64L16.6079 14.0629L10.6041 8.04645Z" fill="#D6FFFF"/>
</g>
<defs>
<clipPath id="clip0_22_388">
<rect width="95" height="28" fill="white" transform="translate(0 0.392639)"/>
</clipPath>
</defs>
</svg>
