<svg width="41" height="48" viewBox="0 0 41 48" fill="none" xmlns="http://www.w3.org/2000/svg">
<path fill-rule="evenodd" clip-rule="evenodd" d="M18.5867 1.75952C19.1978 1.40768 19.8909 1.22247 20.5964 1.22247C21.3018 1.22247 21.9949 1.40768 22.606 1.75952L38.9598 11.1843C39.571 11.5362 40.0785 12.0426 40.4313 12.6524C40.7842 13.2622 40.97 13.9539 40.97 14.6581V33.5064C40.97 34.9386 40.2032 36.263 38.9598 36.9803L22.606 46.4039C21.9949 46.7557 21.3018 46.9409 20.5964 46.9409C19.8909 46.9409 19.1978 46.7557 18.5867 46.4039C13.1354 43.262 7.68378 40.1208 2.23173 36.9803C1.62097 36.628 1.11382 36.1215 0.761185 35.5118C0.408545 34.902 0.222822 34.2104 0.222656 33.5064V14.6581C0.222473 13.954 0.408049 13.2623 0.760724 12.6525C1.1134 12.0427 1.62074 11.5363 2.23173 11.1843L18.5867 1.75952Z" fill="#0DA7FE"/>
<path fill-rule="evenodd" clip-rule="evenodd" d="M0 35.8241L10.8341 24.0816L20.6257 47.561L0 35.8241Z" fill="#1A67FD"/>
<path fill-rule="evenodd" clip-rule="evenodd" d="M10.8341 24.0816L0.142357 12.2589L0 35.8241L10.8341 24.0816Z" fill="#0DA7FE"/>
<path fill-rule="evenodd" clip-rule="evenodd" d="M10.8343 24.0816L20.6259 0.601074L0.142578 12.2588L10.8343 24.0816Z" fill="#05BBFF"/>
<path fill-rule="evenodd" clip-rule="evenodd" d="M20.6256 0.601074L40.9999 35.8218L10.834 24.0816" fill="#00C9FF"/>
<path fill-rule="evenodd" clip-rule="evenodd" d="M20.6256 47.6011L40.9999 35.8241L10.834 24.0816L20.6256 47.6011Z" fill="#1A86FD"/>
<path fill-rule="evenodd" clip-rule="evenodd" d="M41.0002 35.8218V12.3413L20.626 0.601074L41.0002 35.8218Z" fill="#05BBFF"/>
<path fill-rule="evenodd" clip-rule="evenodd" d="M17.651 14.8333L27.5184 24.6808L17.651 34.5295L15.0645 31.9482L22.3453 24.6808L15.0645 17.4146L17.651 14.8333Z" fill="#1A67FD" fill-opacity="0.5"/>
<path fill-rule="evenodd" clip-rule="evenodd" d="M27.5184 23.5237L24.9319 20.9412L15.0645 30.7899L17.651 33.3712L27.5184 23.5225V23.5237Z" fill="#D6FFFF"/>
<path fill-rule="evenodd" clip-rule="evenodd" d="M17.651 13.675L15.0645 16.2563L24.9319 26.1038L27.5184 23.5225L17.651 13.675Z" fill="#D6FFFF"/>
</svg>
