<svg width="41" height="42" viewBox="0 0 41 42" fill="none" xmlns="http://www.w3.org/2000/svg">
<g clip-path="url(#clip0_77_1451)">
<path d="M6.38425 9.2085L0.0497436 15.551L9.81858 25.3491L0 35.1971L6.31468 41.5424L16.153 31.6916L25.9381 41.472L32.2726 35.1295L6.38425 9.2085Z" fill="#53B9FF"/>
<path d="M22.5048 25.3494L16.1533 31.6917L25.9384 41.4723L32.2729 35.1297L22.5048 25.3494Z" fill="#119EFF"/>
<path d="M22.5048 25.3494L16.1533 31.6917L18.5983 34.1232L22.5048 25.3494Z" fill="black" fill-opacity="0.2"/>
<path d="M31.1617 16.7152L41.0002 6.86439L34.663 0.541748L24.8274 10.3727L15.0415 0.591556L8.70703 6.93406L34.5955 32.855L40.93 26.5125L31.1617 16.7152Z" fill="#53B9FF"/>
<path d="M18.4758 16.7154L24.8274 10.373L15.0415 0.591797L8.70703 6.9343L18.4758 16.7154Z" fill="#119EFF"/>
<path d="M18.4756 16.7152L24.8272 10.3728L22.3815 7.94067L18.4756 16.7152Z" fill="black" fill-opacity="0.2"/>
</g>
<defs>
<clipPath id="clip0_77_1451">
<rect width="41" height="41" fill="white" transform="translate(0 0.541748)"/>
</clipPath>
</defs>
</svg>
