<svg width="50" height="57" viewBox="0 0 50 57" fill="none" xmlns="http://www.w3.org/2000/svg">
<path d="M24.5798 56.7048L4.4793 51.1248L0 0.884216H49.2198L44.7357 51.1169L24.5798 56.7048Z" fill="#264DE4"/>
<path d="M40.8974 47.9183L44.7293 4.99213H24.6104V52.4337L40.8974 47.9183Z" fill="#2965F1"/>
<path d="M10.2686 23.6256L10.8208 29.7873H24.6097V23.6256H10.2686Z" fill="#EBEBEB"/>
<path d="M9.15918 11.154L9.71931 17.3159H24.6101V11.154H9.15918Z" fill="#EBEBEB"/>
<path d="M24.6103 39.6285L24.5833 39.6357L17.7208 37.7827L17.2822 32.8683H11.0967L11.9599 42.5433L24.5819 46.0472L24.6103 46.0393V39.6285Z" fill="#EBEBEB"/>
<path d="M38.9119 23.6256L40.0243 11.154H24.5889V17.3159H33.2715L32.7108 23.6256H24.5889V29.7874H32.1764L31.4612 37.7788L24.5889 39.6337V46.0442L37.2209 42.5433L37.3136 41.5023L38.7615 25.2802L38.9119 23.6256Z" fill="white"/>
</svg>
