<svg width="94" height="21" viewBox="0 0 94 21" fill="none" xmlns="http://www.w3.org/2000/svg">
<path fill-rule="evenodd" clip-rule="evenodd" d="M0 9.03513L0.438667 6.42416H2.97479L2.53612 9.03513H0ZM11.327 7.53255L12.2777 1.89513H14.8276L12.4418 15.8551H10.0994L10.2886 14.8248C9.93072 15.2343 9.48864 15.5566 8.99455 15.768C8.48864 15.9835 7.94592 16.0926 7.39843 16.0887C6.76863 16.0887 6.20525 15.9687 5.70831 15.7287C5.221 15.4967 4.78408 15.1661 4.42364 14.7564C4.06057 14.3408 3.78131 13.855 3.60208 13.3274C3.41245 12.7782 3.31662 12.1993 3.31883 11.6164C3.31883 11.0203 3.41909 10.4009 3.62088 9.759C3.82019 9.12102 4.13417 8.52728 4.54647 8.00867C4.96195 7.48416 5.48459 7.04932 6.11439 6.70545C6.74356 6.36287 7.48679 6.19061 8.34281 6.19061C9.06097 6.19061 9.66508 6.31061 10.1564 6.55061C10.6471 6.79061 11.0375 7.11835 11.327 7.53255ZM10.5531 11.9564C10.6784 11.6132 10.7417 11.2661 10.7417 10.9158C10.7417 10.5532 10.6853 10.2229 10.5719 9.92416C10.4687 9.64251 10.3075 9.3872 10.0994 9.17577C9.89565 8.97354 9.65495 8.81498 9.39123 8.70932C9.11144 8.59721 8.81349 8.54094 8.51327 8.54351C8.15522 8.53929 7.8006 8.61569 7.47425 8.76738C7.16731 8.91065 6.8912 9.11551 6.66209 9.36997C6.43015 9.63129 6.2474 9.93472 6.12316 10.2648C5.99116 10.6081 5.92395 10.9743 5.92513 11.3435C5.9126 12.0313 6.10749 12.6016 6.51107 13.0551C6.91339 13.5093 7.46109 13.7358 8.15419 13.7358C8.52341 13.7407 8.88872 13.6575 9.2214 13.4925C9.53052 13.3399 9.80671 13.1249 10.0336 12.8603C10.2535 12.6016 10.4271 12.3003 10.5531 11.9571V11.9564ZM22.9253 7.53255L23.114 6.42416H25.6451L24.0389 15.8551H21.6589L21.8287 14.8829C21.4738 15.2775 21.0385 15.5864 20.554 15.7874C20.0583 15.9904 19.529 16.0927 18.9955 16.0887C18.3657 16.0887 17.8023 15.9687 17.3054 15.7287C16.8181 15.4967 16.3812 15.1661 16.0207 14.7564C15.6577 14.3408 15.3784 13.855 15.1992 13.3274C15.0096 12.7782 14.9138 12.1993 14.9159 11.6164C14.9159 11.0203 15.0162 10.4009 15.218 9.759C15.4173 9.12102 15.7313 8.52728 16.1436 8.00867C16.559 7.48416 17.0817 7.04932 17.7115 6.70545C18.3407 6.36287 19.0839 6.19061 19.9399 6.19061C20.6581 6.19061 21.2622 6.31061 21.7535 6.55061C22.2442 6.79061 22.6352 7.11835 22.9253 7.53255ZM22.1508 11.9467C22.2761 11.61 22.3394 11.2596 22.3394 10.8964C22.3394 10.5338 22.283 10.2061 22.1696 9.91448C22.0647 9.63655 21.9037 9.38474 21.6971 9.17577C21.4934 8.97355 21.2527 8.815 20.9889 8.70932C20.7092 8.59721 20.4112 8.54094 20.111 8.54351C19.7529 8.53929 19.3983 8.61569 19.072 8.76738C18.765 8.91065 18.4889 9.11551 18.2598 9.36997C18.0279 9.63129 17.8451 9.93472 17.7209 10.2648C17.5889 10.6081 17.5217 10.9743 17.5229 11.3435C17.5103 12.0313 17.7052 12.6016 18.1088 13.0551C18.5117 13.5093 19.0594 13.7358 19.7519 13.7358C20.1211 13.7407 20.4864 13.6575 20.8191 13.4925C21.1299 13.3388 21.4064 13.1204 21.6313 12.8513C21.8512 12.5854 22.0248 12.2835 22.1508 11.9467ZM31.4819 3.79835L31.0281 6.42416H33.7291L33.3512 8.62158H30.6315L30.0267 12.1609C30.0011 12.3085 29.9885 12.4581 29.9891 12.608C29.9891 13.1009 30.1621 13.4248 30.5093 13.5803C30.8552 13.7351 31.3302 13.8138 31.9349 13.8138H32.3692C32.482 13.8138 32.6023 13.8074 32.7283 13.7945L32.3504 15.9913C32.1745 16.0172 31.9982 16.04 31.8215 16.0596C31.6448 16.079 31.4374 16.0887 31.198 16.0887C30.764 16.0868 30.3311 16.0445 29.9045 15.9622C29.4726 15.8839 29.0571 15.7293 28.6763 15.5054C28.3042 15.2843 27.9924 14.9698 27.7701 14.5913C27.537 14.2022 27.4204 13.7035 27.4204 13.0945C27.4204 12.9384 27.4298 12.7861 27.4486 12.6371C27.4674 12.4887 27.4894 12.3293 27.5151 12.1609L28.1192 8.62158H26.6653L27.0237 6.42416H28.497L28.9501 3.79835H31.4819ZM42.0775 7.53255L42.2668 6.42416H44.7979L43.1924 15.8551H40.8123L40.9821 14.8829C40.6273 15.2775 40.192 15.5864 39.7075 15.7874C39.2117 15.9904 38.6825 16.0927 38.149 16.0887C37.5192 16.0887 36.9558 15.9687 36.4588 15.7287C35.9715 15.4967 35.5346 15.1661 35.1742 14.7564C34.8111 14.3408 34.5318 13.8551 34.3526 13.3274C34.163 12.7782 34.0672 12.1993 34.0694 11.6164C34.0694 11.0203 34.1696 10.4009 34.3714 9.759C34.5708 9.12104 34.8847 8.5273 35.297 8.00867C35.7125 7.48416 36.2351 7.04932 36.8649 6.70545C37.4941 6.36287 38.2373 6.19061 39.0933 6.19061C39.8115 6.19061 40.4156 6.31061 40.9069 6.55061C41.3982 6.79061 41.788 7.11835 42.0775 7.53255ZM41.3036 11.9467C41.4289 11.61 41.4922 11.2596 41.4922 10.8964C41.4922 10.5338 41.4358 10.2061 41.3224 9.91448C41.2176 9.63653 41.0565 9.38472 40.8499 9.17577C40.6462 8.97355 40.4055 8.815 40.1418 8.70932C39.862 8.59721 39.564 8.54094 39.2638 8.54351C38.9058 8.53929 38.5511 8.61569 38.2248 8.76738C37.9179 8.91068 37.6418 9.11553 37.4126 9.36997C37.1807 9.63129 36.9979 9.93472 36.8737 10.2648C36.7417 10.6081 36.6744 10.9743 36.6757 11.3435C36.6631 12.0313 36.858 12.6016 37.261 13.0551C37.6639 13.5093 38.2116 13.7358 38.9047 13.7358C39.2739 13.7407 39.6393 13.6575 39.9719 13.4925C40.2827 13.3388 40.5593 13.1204 40.7841 12.8513C41.0041 12.5854 41.1776 12.2835 41.3036 11.9467ZM50.6347 3.79835L50.181 6.42416H52.8819L52.504 8.62158H49.7843L49.1795 12.1609C49.167 12.2384 49.1576 12.3132 49.1513 12.3842C49.1448 12.4586 49.1417 12.5333 49.1419 12.608C49.1419 13.1009 49.3149 13.4248 49.6615 13.5803C50.008 13.7351 50.483 13.8138 51.0877 13.8138H51.522C51.6348 13.8138 51.7551 13.8074 51.8811 13.7945L51.5032 15.9913C51.3265 16.0171 51.1504 16.0403 50.9743 16.0596C50.7976 16.079 50.5902 16.0887 50.3508 16.0887C49.9168 16.0868 49.4839 16.0445 49.0573 15.9622C48.6254 15.8839 48.2099 15.7293 47.8291 15.5054C47.4569 15.2843 47.1452 14.9698 46.9229 14.5913C46.6898 14.2022 46.5732 13.7035 46.5732 13.0945C46.5732 12.9384 46.5826 12.7861 46.6014 12.6371C46.6202 12.4887 46.6422 12.3293 46.6679 12.1609L47.272 8.62158H45.8181L46.1766 6.42416H47.6492L48.1036 3.79835H50.6347ZM59.3986 6.30803C59.7884 6.30803 60.16 6.379 60.5128 6.52093L60.1161 8.79642C59.9018 8.77061 59.7132 8.75126 59.5496 8.73835C59.3987 8.72604 59.2473 8.71959 59.0959 8.719C58.4285 8.719 57.8714 8.90351 57.4246 9.27319C56.9772 9.64222 56.6845 10.2358 56.546 11.0519L55.7339 15.8551H53.1839L54.7895 6.42416H57.1319L56.9615 7.37706C57.6289 6.66416 58.4411 6.30738 59.3986 6.30738V6.30803ZM68.37 7.53255L68.5592 6.42416H71.0903L69.4842 15.8551H67.1047L67.2745 14.8829C66.9197 15.2775 66.4844 15.5864 65.9999 15.7874C65.5041 15.9904 64.9749 16.0927 64.4414 16.0887C63.8116 16.0887 63.2482 15.9687 62.7506 15.7287C62.2633 15.4967 61.8264 15.166 61.466 14.7564C61.1031 14.3407 60.8241 13.855 60.645 13.3274C60.4554 12.7782 60.3595 12.1993 60.3618 11.6164C60.3618 11.0203 60.4621 10.4009 60.6638 9.759C60.8632 9.12102 61.1771 8.52728 61.5894 8.00867C62.0049 7.48416 62.5269 7.04932 63.1567 6.70545C63.7865 6.36287 64.5291 6.19061 65.3858 6.19061C66.1033 6.19061 66.708 6.31061 67.1993 6.55061C67.69 6.79061 68.0804 7.11835 68.37 7.53255ZM67.596 11.9467C67.7214 11.61 67.7847 11.2596 67.7847 10.8964C67.7847 10.5338 67.7283 10.2061 67.6148 9.91448C67.51 9.63655 67.3489 9.38474 67.1423 9.17577C66.9386 8.97358 66.6979 8.81503 66.4342 8.70932C66.1542 8.59721 65.856 8.54094 65.5556 8.54351C65.1783 8.54351 64.8318 8.61835 64.5166 8.76738C64.2096 8.91065 63.9335 9.11551 63.7044 9.36997C63.4727 9.63135 63.2902 9.93477 63.1661 10.2648C63.0341 10.6081 62.9669 10.9743 62.9681 11.3435C62.9556 12.0313 63.1505 12.6016 63.5534 13.0551C63.9563 13.5093 64.5041 13.7358 65.1971 13.7358C65.5664 13.7407 65.9317 13.6575 66.2644 13.4925C66.5752 13.3388 66.8517 13.1205 67.0765 12.8513C67.2959 12.5854 67.4694 12.2835 67.596 11.9467ZM80.2986 7.08545C80.5824 7.37061 80.7999 7.71126 80.9503 8.10609C81.1019 8.50158 81.1771 8.939 81.1771 9.419C81.1771 9.71706 81.1395 10.0796 81.0643 10.5074L80.1576 15.8558H77.6258L78.4956 10.6829L78.5614 10.3035C78.5802 10.1938 78.5896 10.0867 78.5896 9.98287C78.5896 9.48996 78.4449 9.11448 78.1554 8.85513C77.8652 8.59577 77.4817 8.46609 77.0029 8.46609C76.5241 8.46609 76.1062 8.60867 75.7471 8.89384C75.388 9.179 75.158 9.60674 75.0577 10.1777L74.1134 15.8551H71.5628L73.1696 6.42416H75.4927L75.3604 7.26029C75.6931 6.93258 76.0803 6.66904 76.5035 6.48222C76.9377 6.28803 77.4316 6.19061 77.9862 6.19061C78.4643 6.19061 78.8986 6.26803 79.2896 6.42416C79.6667 6.57124 80.0105 6.79629 80.2998 7.08545H80.2986ZM85.9091 8.48545C85.7387 8.60158 85.6541 8.77061 85.6541 8.99125C85.6541 9.17255 85.7199 9.32158 85.8521 9.43835C85.9843 9.55448 86.1886 9.6848 86.4662 9.82738L87.2972 10.1964C88.0523 10.5338 88.6382 10.9125 89.0537 11.3338C89.4692 11.7558 89.6773 12.2964 89.6773 12.9577C89.6772 13.3593 89.5968 13.7566 89.441 14.1248C89.2812 14.5042 89.0464 14.8452 88.7517 15.1261C88.449 15.4177 88.0717 15.6513 87.618 15.8261C87.1649 16.0009 86.636 16.0887 86.0313 16.0887C85.1251 16.0887 84.3249 15.8906 83.6324 15.4951C82.94 15.1003 82.4048 14.579 82.0269 13.93L83.6136 12.4913C83.9292 12.8822 84.2873 13.2346 84.6808 13.5416C85.0525 13.8267 85.5087 13.9693 86.0507 13.9693C86.3653 13.9693 86.6423 13.9048 86.8817 13.7745C87.1205 13.6454 87.2401 13.4506 87.2401 13.1913C87.2401 12.9713 87.1649 12.8022 87.0139 12.6854C86.811 12.5371 86.5961 12.407 86.3716 12.2964L85.5024 11.9274C85.1725 11.7839 84.8536 11.6148 84.5486 11.4216C84.2801 11.2526 84.0355 11.0464 83.8217 10.8087C83.6233 10.5875 83.4663 10.3305 83.3586 10.0506C83.252 9.7719 83.1981 9.45061 83.1981 9.08803C83.1981 8.63448 83.2859 8.22609 83.4626 7.86287C83.6333 7.50738 83.8786 7.19535 84.1808 6.94932C84.5019 6.69319 84.8672 6.50187 85.2574 6.38545C85.6926 6.25285 86.1445 6.18719 86.5984 6.19061C87.3661 6.19061 88.0398 6.33319 88.6194 6.61835C89.197 6.90268 89.6966 7.33061 90.0733 7.86351L88.563 9.32158C88.2854 8.9848 87.9771 8.7319 87.6368 8.56287C87.3138 8.3988 86.9587 8.31254 86.5984 8.31061C86.3083 8.31061 86.0783 8.36867 85.9091 8.4848V8.48545ZM91.2026 13.2442H93.7387L93.3 15.8551H90.7639L91.2026 13.2442Z" fill="#213D62"/>
</svg>
