<svg width="50" height="36" viewBox="0 0 50 36" fill="none" xmlns="http://www.w3.org/2000/svg">
<g clip-path="url(#clip0_22_662)">
<path d="M48.372 13.6014C47.2598 12.8297 44.711 12.5403 42.7183 12.9262C42.4866 10.9969 41.4208 9.30878 39.5671 7.81359L38.5012 7.04187L37.7597 8.15121C36.8329 9.59817 36.3695 11.6239 36.5085 13.5532C36.5549 14.2284 36.7866 15.4342 37.4817 16.4954C36.8329 16.8812 35.489 17.3635 33.728 17.3635H0.222796L0.130113 17.7494C-0.194281 19.6787 -0.194281 25.7077 3.60576 30.3379C6.47895 33.8589 10.7424 35.6435 16.3498 35.6435C28.4914 35.6435 37.4817 29.8074 41.6988 19.2446C43.3671 19.2928 46.9354 19.2446 48.7428 15.6272C48.7891 15.5307 48.8818 15.3378 49.2062 14.6143L49.3916 14.2284L48.372 13.6014ZM27.0084 0H21.9108V4.8232H27.0084V0ZM27.0084 5.78784H21.9108V10.611H27.0084V5.78784ZM20.984 5.78784H15.8864V10.611H20.984V5.78784ZM14.9595 5.78784H9.86191V10.611H14.9595V5.78784ZM8.93508 11.5757H3.83747V16.3989H8.93508V11.5757ZM14.9595 11.5757H9.86191V16.3989H14.9595V11.5757ZM20.984 11.5757H15.8864V16.3989H20.984V11.5757ZM27.0084 11.5757H21.9108V16.3989H27.0084V11.5757ZM33.0329 11.5757H27.9353V16.3989H33.0329V11.5757Z" fill="#2396ED"/>
</g>
<defs>
<clipPath id="clip0_22_662">
<rect width="49.3916" height="35.6931" fill="white"/>
</clipPath>
</defs>
</svg>
