<svg width="41" height="45" viewBox="0 0 41 45" fill="none" xmlns="http://www.w3.org/2000/svg">
<g clip-path="url(#clip0_77_1459)">
<path d="M14.4649 9.982C8.65695 8.93663 4.06487 10.0308 2.23469 13.1635C0.868962 15.5012 1.25934 18.6005 3.18144 21.9136C3.34504 22.1956 3.70898 22.2931 3.99432 22.1315C4.27967 21.9698 4.37836 21.6101 4.21476 21.3281C2.48332 18.3437 2.1464 15.6688 3.26622 13.752C4.78656 11.1497 8.88262 10.1737 14.2514 11.1401C14.575 11.1983 14.8851 10.9863 14.9441 10.6665C15.003 10.3467 14.7884 10.0402 14.4649 9.982ZM23.0541 4.65069C22.5802 5.55647 21.6235 6.1756 20.5205 6.1756C18.9462 6.1756 17.6701 4.91442 17.6701 3.35867C17.6701 1.80293 18.9462 0.541748 20.5205 0.541748C22.0948 0.541748 23.3709 1.80293 23.3709 3.35867C23.3709 3.39937 23.3701 3.43987 23.3683 3.48014C28.0868 5.89178 31.3655 14.1156 31.3655 23.6166C31.3655 27.5242 30.8127 31.2741 29.7834 34.5247C29.6851 34.835 29.351 35.0077 29.0371 34.9107C28.7232 34.8136 28.5484 34.4834 28.6466 34.1732C29.639 31.0391 30.1744 27.4076 30.1744 23.6166C30.1744 14.6704 27.1652 6.97207 23.0541 4.65069ZM2.63753 31.1389C2.70782 31.1338 2.77882 31.1312 2.85044 31.1312C4.42469 31.1312 5.70087 32.3924 5.70087 33.9481C5.70087 35.5039 4.42469 36.7651 2.85044 36.7651C1.27618 36.7651 0 35.5039 0 33.9481C0 32.8891 0.591414 31.9665 1.46567 31.4854C1.03632 26.2205 6.63586 19.1631 15.098 14.335C18.6129 12.3295 22.2728 10.906 25.7112 10.178C26.0328 10.1099 26.3494 10.3123 26.4183 10.6302C26.4872 10.948 26.2824 11.2609 25.9608 11.329C22.647 12.0306 19.1033 13.4089 15.6935 15.3544C7.72438 19.9013 2.45493 26.4548 2.63753 31.1389ZM35.6712 35.3406C35.4344 34.9299 35.2991 34.4546 35.2991 33.9481C35.2991 32.3924 36.5753 31.1312 38.1496 31.1312C39.7238 31.1312 41 32.3924 41 33.9481C41 35.5039 39.7238 36.7651 38.1496 36.7651C37.5292 36.7651 36.9551 36.5692 36.4872 36.2367C31.94 38.8804 23.2542 37.5319 15.0805 32.8683C11.6011 30.8831 8.55013 28.491 6.20174 25.9406C5.98037 25.7002 5.99812 25.328 6.24139 25.1092C6.48466 24.8904 6.86133 24.908 7.0827 25.1484C9.34631 27.6067 12.3006 29.923 15.6761 31.8489C23.39 36.2502 31.5132 37.56 35.6712 35.3406ZM35.4846 25.2246C35.272 25.4727 34.8963 25.5036 34.6452 25.2936C34.3942 25.0836 34.3629 24.7122 34.5754 24.4641C38.0902 20.3607 39.2744 16.3786 37.7573 13.7819C36.6561 11.8969 34.2084 10.8506 30.8126 10.807C30.4838 10.8028 30.2206 10.5359 30.2249 10.2108C30.2292 9.88581 30.4992 9.62575 30.8281 9.62998C34.6039 9.67851 37.4449 10.893 38.7888 13.1934C40.6153 16.3196 39.2874 20.7849 35.4846 25.2246ZM11.6215 35.598C11.5106 35.292 11.6718 34.9551 11.9814 34.8455C12.2911 34.7359 12.632 34.8951 12.7429 35.2012C14.5808 40.2729 17.4821 43.286 20.5205 43.286C22.7058 43.286 24.8304 41.739 26.5601 38.8956C26.7295 38.617 27.0954 38.5269 27.3773 38.6944C27.6592 38.8619 27.7504 39.2235 27.5809 39.5021C25.6563 42.666 23.1882 44.4631 20.5205 44.4631C16.8627 44.4631 13.6098 41.0849 11.6215 35.598ZM39.8089 33.9481C39.8089 33.0425 39.066 32.3083 38.1496 32.3083C37.2331 32.3083 36.4902 33.0425 36.4902 33.9481C36.4902 34.8538 37.2331 35.5879 38.1496 35.5879C39.066 35.5879 39.8089 34.8538 39.8089 33.9481ZM2.85044 35.5879C3.76686 35.5879 4.50976 34.8538 4.50976 33.9481C4.50976 33.0425 3.76686 32.3083 2.85044 32.3083C1.93402 32.3083 1.19111 33.0425 1.19111 33.9481C1.19111 34.8538 1.93402 35.5879 2.85044 35.5879ZM20.5205 4.99849C21.4369 4.99849 22.1798 4.26432 22.1798 3.35867C22.1798 2.45303 21.4369 1.71886 20.5205 1.71886C19.6041 1.71886 18.8612 2.45303 18.8612 3.35867C18.8612 4.26432 19.6041 4.99849 20.5205 4.99849ZM20.9559 25.6087C19.8425 25.8464 18.7457 25.1472 18.5046 24.0469C18.2645 22.9467 18.9716 21.8627 20.085 21.6245C21.1983 21.3868 22.2952 22.086 22.5362 23.1863C22.7768 24.2865 22.0692 25.3705 20.9559 25.6087Z" fill="#47848F"/>
</g>
<defs>
<clipPath id="clip0_77_1459">
<rect width="41" height="44" fill="white" transform="translate(0 0.541748)"/>
</clipPath>
</defs>
</svg>
