<svg width="50" height="75" viewBox="0 0 50 75" fill="none" xmlns="http://www.w3.org/2000/svg">
<path d="M7.75 60.3784C12.028 60.3784 15.5 56.9064 15.5 52.6284V44.8784H7.75C3.472 44.8784 0 48.3504 0 52.6284C0 56.9064 3.472 60.3784 7.75 60.3784Z" fill="#0ACF83"/>
<path d="M0 37.1284C0 32.8504 3.472 29.3784 7.75 29.3784H15.5V44.8784H7.75C3.472 44.8784 0 41.4064 0 37.1284Z" fill="#A259FF"/>
<path d="M0 21.6284C0 17.3504 3.472 13.8784 7.75 13.8784H15.5V29.3784H7.75C3.472 29.3784 0 25.9064 0 21.6284Z" fill="#F24E1E"/>
<path d="M15.5 13.8784H23.25C27.528 13.8784 31 17.3504 31 21.6284C31 25.9064 27.528 29.3784 23.25 29.3784H15.5V13.8784Z" fill="#FF7262"/>
<path d="M31 37.1284C31 41.4064 27.528 44.8784 23.25 44.8784C18.972 44.8784 15.5 41.4064 15.5 37.1284C15.5 32.8504 18.972 29.3784 23.25 29.3784C27.528 29.3784 31 32.8504 31 37.1284Z" fill="#1ABCFE"/>
</svg>
