<svg width="78" height="17" viewBox="0 0 78 17" fill="none" xmlns="http://www.w3.org/2000/svg">
<g clip-path="url(#clip0_22_806)">
<path d="M3.03193 15.7979C3.18638 15.0609 3.33411 14.3481 3.47513 13.6593C3.59265 13.0854 3.72416 12.4492 3.86965 11.7509L3.95863 11.3245L4.6781 7.8119H7.43376L7.91726 5.4874H5.03642C5.05657 5.38409 5.08679 5.23084 5.12708 5.02766C5.16737 4.82448 5.20095 4.65402 5.22781 4.51627C5.33525 3.98594 5.52999 3.58819 5.81203 3.32303C6.09407 3.05786 6.48356 2.92528 6.98048 2.92528C7.26252 2.92528 7.54121 2.95972 7.81653 3.02859C8.09185 3.09746 8.35375 3.19389 8.60221 3.31786L9.32746 0.838391C9.11257 0.741967 8.86243 0.657596 8.57703 0.585278C8.29163 0.512961 7.99113 0.457861 7.67551 0.41998C7.35989 0.3821 7.04428 0.363159 6.72866 0.363159C6.23174 0.363159 5.75495 0.423424 5.29832 0.543954C4.84168 0.664484 4.42534 0.867662 4.04928 1.15349C3.67323 1.43932 3.34586 1.82674 3.06718 2.31574C2.7885 2.80475 2.57529 3.41429 2.42756 4.14435C2.33354 4.60581 2.23114 5.10687 2.12033 5.64753L2.15317 5.4874H0.483497L0 7.8119H1.672L1.64751 7.9303C1.60293 8.14491 1.55887 8.35732 1.51536 8.56752L1.45049 8.88117C1.34305 9.40117 1.24568 9.87468 1.15838 10.3017L0.946848 11.3348C0.772252 12.1889 0.612765 12.962 0.468387 13.6542C0.32401 14.3463 0.177954 15.0609 0.0302185 15.7979H3.03193Z" fill="#F7F7F7"/>
<path d="M3.03193 15.7979C3.18638 15.0609 3.33411 14.3481 3.47513 13.6593C3.59265 13.0854 3.72416 12.4492 3.86965 11.7509L3.95863 11.3245L4.6781 7.8119H7.43376L7.91726 5.4874H5.03642C5.05657 5.38409 5.08679 5.23084 5.12708 5.02766C5.16737 4.82448 5.20095 4.65402 5.22781 4.51627C5.33525 3.98594 5.52999 3.58819 5.81203 3.32303C6.09407 3.05786 6.48356 2.92528 6.98048 2.92528C7.26252 2.92528 7.54121 2.95972 7.81653 3.02859C8.09185 3.09746 8.35375 3.19389 8.60221 3.31786L9.32746 0.838391C9.11257 0.741967 8.86243 0.657596 8.57703 0.585278C8.29163 0.512961 7.99113 0.457861 7.67551 0.41998C7.35989 0.3821 7.04428 0.363159 6.72866 0.363159C6.23174 0.363159 5.75495 0.423424 5.29832 0.543954C4.84168 0.664484 4.42534 0.867662 4.04928 1.15349C3.67323 1.43932 3.34586 1.82674 3.06718 2.31574C2.7885 2.80475 2.57529 3.41429 2.42756 4.14435C2.33354 4.60581 2.23114 5.10687 2.12033 5.64753L2.15317 5.4874H0.483497L0 7.8119H1.672L1.64751 7.9303C1.60293 8.14491 1.55887 8.35732 1.51536 8.56752L1.45049 8.88117C1.34305 9.40117 1.24568 9.87468 1.15838 10.3017L0.946848 11.3348C0.772252 12.1889 0.612765 12.962 0.468387 13.6542C0.32401 14.3463 0.177954 15.0609 0.0302185 15.7979H3.03193ZM16.0957 15.7979C16.2435 15.0609 16.3878 14.3481 16.5289 13.6593C16.6699 12.9706 16.8311 12.1923 17.0124 11.3245L18.1909 5.60104C18.3856 4.65058 18.572 3.7466 18.7499 2.88912C18.9279 2.03164 19.1008 1.19654 19.2687 0.383821L16.2065 0.652431C16.0387 1.47892 15.8708 2.30197 15.7029 3.12157C15.535 3.94117 15.3604 4.77111 15.1791 5.61137L14.0107 11.3348C13.8293 12.1889 13.6682 12.962 13.5272 13.6542C13.3861 14.3463 13.2384 15.0609 13.084 15.7979H16.0957Z" fill="#F7F7F7"/>
<path d="M11.607 5.46719L11.3196 6.21453L12.6665 7.17094C12.7391 7.22206 12.7778 7.31778 12.7671 7.41402L12.7624 7.44286L12.6719 7.86169C12.6491 7.96718 12.5699 8.0434 12.4765 8.04976L11.2877 8.13035L12.3044 8.84626C12.377 8.89737 12.4157 8.9931 12.405 9.08934L12.4003 9.11818L12.3098 9.53701C12.287 9.6425 12.2078 9.71872 12.1144 9.72508L10.9255 9.80586L11.9423 10.5216C12.0149 10.5727 12.0536 10.6684 12.0429 10.7647L12.0382 10.7935L11.9477 11.2123C11.9249 11.3178 11.8457 11.394 11.7523 11.4004L10.5636 11.4811L11.5802 12.1969C11.6528 12.248 11.6915 12.3437 11.6808 12.44L11.6761 12.4688L11.5856 12.8877C11.5628 12.9931 11.4836 13.0694 11.3902 13.0757L10.2015 13.1564L11.2181 13.8722C11.2907 13.9233 11.3294 14.0191 11.3187 14.1153L11.314 14.1441L11.2235 14.563C11.2007 14.6685 11.1215 14.7447 11.0281 14.751L9.36089 14.8995L9.15343 15.7979H7.82227L8.23387 14.1473C8.25667 14.0418 8.33585 13.9656 8.42924 13.9593L9.61802 13.8782L8.60139 13.1628C8.52879 13.1117 8.49005 13.0159 8.50073 12.9197L8.50544 12.8908L8.59596 12.472C8.61876 12.3665 8.69795 12.2903 8.79134 12.284L9.97993 12.203L8.96349 11.4874C8.89088 11.4363 8.85214 11.3406 8.86283 11.2444L8.86753 11.2155L8.95806 10.7967C8.98086 10.6912 9.06004 10.615 9.15343 10.6086L10.3421 10.5277L9.32558 9.81212C9.25298 9.76101 9.21424 9.66529 9.22493 9.56905L9.22963 9.54021L9.32015 9.12138C9.34296 9.01588 9.42214 8.93966 9.51553 8.93331L10.7042 8.85244L9.68768 8.1368C9.61508 8.08569 9.57634 7.98997 9.58702 7.89373L9.59173 7.86489L9.68225 7.44606C9.70505 7.34056 9.78423 7.26434 9.87762 7.25799L11.0663 7.17718L10.0498 6.46148C9.97717 6.41037 9.93843 6.31465 9.94912 6.21841L9.95382 6.18957L10.1389 5.52424L11.607 5.46719ZM12.6308 0.45616C13.1766 0.45616 13.5811 0.643842 13.8441 1.01921C14.1072 1.39457 14.1861 1.84397 14.0808 2.36742C13.9625 2.96662 13.7175 3.37126 13.346 3.58133C12.9744 3.79139 12.5124 3.89642 11.96 3.89642C11.4208 3.89642 11.0147 3.73285 10.7418 3.4057C10.4689 3.07854 10.3916 2.61192 10.51 2.00583C10.6218 1.45484 10.8668 1.05881 11.2449 0.817749C11.623 0.576689 12.085 0.45616 12.6308 0.45616Z" fill="#F7F7F7"/>
<path d="M24.4727 5.20846C25.4397 5.20846 26.2354 5.37376 26.8599 5.70435C27.4844 6.03495 27.9176 6.50501 28.1593 7.11455C28.4011 7.72409 28.4313 8.44899 28.25 9.28925C28.1828 9.63362 28.1123 9.98316 28.0384 10.3379C27.9646 10.6926 27.8874 11.0628 27.8068 11.4485L27.6255 12.3163C27.518 12.8328 27.4055 13.3769 27.288 13.9486C27.1705 14.5202 27.0412 15.1367 26.9002 15.7979H24.3014L24.4324 14.4238H24.2007C23.9522 14.7889 23.6786 15.0902 23.3798 15.3278C23.0809 15.5654 22.7569 15.7445 22.4077 15.865C22.0585 15.9855 21.6825 16.0458 21.2796 16.0458C20.6416 16.0458 20.1078 15.8857 19.678 15.5654C19.2482 15.2451 18.9494 14.8198 18.7815 14.2895C18.6136 13.7592 18.5968 13.1806 18.7311 12.5539C18.8319 12.0718 18.9947 11.6689 19.2197 11.3451C19.4446 11.0214 19.7166 10.7563 20.0356 10.5497C20.3545 10.343 20.7071 10.1795 21.0932 10.0589C21.4793 9.93839 21.8806 9.84713 22.2969 9.78515L25.4497 9.27892C25.5169 8.96899 25.4917 8.69866 25.3742 8.46793C25.2567 8.2372 25.0468 8.05813 24.7446 7.93071C24.4424 7.80329 24.0563 7.73958 23.5862 7.73958C23.3445 7.73958 23.0876 7.75852 22.8157 7.7964C22.5437 7.83429 22.26 7.88938 21.9645 7.9617C21.6691 8.03402 21.3652 8.12356 21.0529 8.23031C20.7407 8.33707 20.42 8.46276 20.091 8.6074L20.5644 5.90064C20.8061 5.81799 21.0815 5.73707 21.3904 5.65786C21.6993 5.57866 22.025 5.50462 22.3674 5.43574C22.7099 5.36687 23.0608 5.31177 23.42 5.27044C23.7793 5.22912 24.1302 5.20846 24.4727 5.20846ZM25.077 10.6736C24.983 10.7425 24.8689 10.8096 24.7346 10.8751C24.6003 10.9405 24.4156 11.0059 24.1805 11.0714C23.9455 11.1368 23.6265 11.2143 23.2236 11.3038C22.9617 11.3658 22.7233 11.4381 22.5085 11.5208C22.2936 11.6034 22.1156 11.7205 21.9746 11.872C21.8336 12.0236 21.7396 12.2198 21.6926 12.4609C21.6254 12.8397 21.6892 13.1342 21.8839 13.3442C22.0787 13.5543 22.3439 13.6593 22.6797 13.6593C22.9214 13.6593 23.1649 13.6059 23.41 13.4992C23.6551 13.3924 23.8901 13.2392 24.1151 13.0395C24.34 12.8397 24.5465 12.6021 24.7346 12.3266L25.077 10.6736ZM39.7204 7.04832C39.6146 6.5299 39.3995 6.11634 39.0752 5.80766C38.6555 5.40819 38.0696 5.20846 37.3175 5.20846C36.8541 5.20846 36.4093 5.29111 35.9828 5.4564C35.5564 5.6217 35.1636 5.84727 34.8043 6.13309C34.4451 6.41892 34.1412 6.73746 33.8927 7.08872H33.6409L33.8524 5.33243L31.3141 5.4874C31.1395 6.34833 30.9682 7.17998 30.8004 7.98237C30.6325 8.78475 30.4747 9.55786 30.3269 10.3017L30.1154 11.3348C29.9341 12.1889 29.7729 12.962 29.6319 13.6542C29.4909 14.3463 29.3432 15.0609 29.1887 15.7979H32.2005C32.3482 15.0609 32.4926 14.3515 32.6336 13.6696C32.7746 12.9878 32.9257 12.2612 33.0869 11.4898L33.52 9.35124C33.7349 9.0964 33.9515 8.86912 34.1697 8.66938C34.388 8.46965 34.6163 8.31124 34.8547 8.19415C35.0931 8.07707 35.3466 8.01852 35.6152 8.01852C36.0853 8.01852 36.3858 8.20621 36.5167 8.58157C36.6477 8.95693 36.6493 9.45455 36.5217 10.0744L36.2296 11.5001C36.0685 12.2715 35.9207 12.9947 35.7864 13.6696C35.6521 14.3446 35.5077 15.054 35.3533 15.7979H38.355C38.5095 15.0609 38.6589 14.3463 38.8032 13.6542C38.9476 12.962 39.1071 12.1889 39.2817 11.3348C39.3623 10.9353 39.4412 10.5496 39.5184 10.1777C39.5956 9.80581 39.6645 9.47521 39.7249 9.18594L39.7106 9.25323L39.7319 9.22927C39.8759 9.06933 40.0214 8.92011 40.1684 8.78159L40.2789 8.67972C40.5005 8.47998 40.7305 8.31985 40.9689 8.19932C41.2073 8.07879 41.4608 8.01852 41.7294 8.01852C42.1995 8.01852 42.5 8.20621 42.6309 8.58157C42.7619 8.95693 42.7636 9.45455 42.636 10.0744L42.3439 11.5001C42.1894 12.2784 42.0433 13.0033 41.9057 13.6748C41.768 14.3463 41.622 15.054 41.4675 15.7979H44.4793C44.627 15.0609 44.7714 14.3481 44.9124 13.6593C45.0534 12.9706 45.2146 12.1957 45.3959 11.3348C45.4765 10.9353 45.5554 10.5496 45.6326 10.1777C45.7099 9.80581 45.7787 9.47521 45.8391 9.18594C46.0943 7.98064 46.0137 7.0164 45.5974 6.29323C45.181 5.57005 44.4591 5.20846 43.4317 5.20846C42.9684 5.20846 42.5218 5.29283 42.092 5.46157C41.6623 5.63031 41.2644 5.85932 40.8984 6.14859C40.5324 6.43786 40.2185 6.76501 39.9566 7.13005H39.7357L39.7204 7.04832ZM52.7415 5.20846C53.7958 5.20846 54.6553 5.40475 55.3201 5.79733C55.9849 6.18991 56.4348 6.74091 56.6699 7.45031C56.9049 8.15972 56.9083 8.98621 56.68 9.92978C56.6262 10.1571 56.5708 10.3706 56.5137 10.5703C56.4709 10.7201 56.4253 10.866 56.3768 11.0081L56.3274 11.1489H50.1608L50.1589 11.1896C50.1447 11.5837 50.2014 11.9266 50.329 12.2181C50.5204 12.6555 50.8377 12.9826 51.2809 13.1996C51.7241 13.4165 52.268 13.525 52.9127 13.525C53.1947 13.525 53.5087 13.4992 53.8545 13.4475C54.2004 13.3959 54.5445 13.3167 54.887 13.2099C55.2295 13.1032 55.5451 12.9671 55.8338 12.8018L55.4309 15.4259C55.2496 15.5361 55.0011 15.6395 54.6855 15.7359C54.3699 15.8323 54.0056 15.9115 53.5926 15.9735C53.1796 16.0355 52.7348 16.0665 52.258 16.0665C51.0492 16.0665 50.0403 15.8271 49.2311 15.3485C48.4219 14.8698 47.8511 14.1896 47.5187 13.3081C47.1863 12.4265 47.141 11.3796 47.3827 10.1674C47.5842 9.16872 47.9266 8.29746 48.4101 7.55362C48.8936 6.80978 49.5014 6.23296 50.2333 5.82316C50.9653 5.41336 51.8013 5.20846 52.7415 5.20846ZM52.8019 7.38833C52.4594 7.38833 52.1253 7.48131 51.7997 7.66727C51.474 7.85323 51.1835 8.1425 50.9284 8.53508C50.7752 8.77063 50.6439 9.04709 50.5343 9.36446L50.5041 9.45508L54.1443 9.3772L54.1557 9.28845C54.2057 8.83514 54.1405 8.42905 53.9603 8.07018C53.732 7.61561 53.3458 7.38833 52.8019 7.38833ZM60.3908 15.7979C60.5385 15.0609 60.6829 14.3532 60.8239 13.6748C60.9649 12.9964 61.116 12.2681 61.2772 11.4898L61.7103 9.35124C61.9252 9.0964 62.1451 8.86912 62.3701 8.66938C62.595 8.46965 62.8301 8.31124 63.0752 8.19415C63.3203 8.07707 63.5872 8.01852 63.876 8.01852C64.4065 8.01852 64.7422 8.20621 64.8833 8.58157C65.0243 8.95693 65.0276 9.45455 64.8933 10.0744L64.6012 11.5001C64.4468 12.2715 64.3007 12.9947 64.163 13.6696C64.0254 14.3446 63.8793 15.054 63.7249 15.7979H66.7367C66.8911 15.0609 67.0405 14.3463 67.1849 13.6542C67.3293 12.962 67.4854 12.1889 67.6533 11.3348C67.7406 10.9353 67.8229 10.5496 67.9001 10.1777C67.9773 9.80581 68.0461 9.47521 68.1066 9.18594C68.355 7.98064 68.2677 7.0164 67.8447 6.29323C67.4216 5.57005 66.6662 5.20846 65.5783 5.20846C65.1015 5.20846 64.6432 5.29111 64.2033 5.4564C63.7635 5.6217 63.3623 5.84727 62.9996 6.13309C62.637 6.41892 62.3315 6.73746 62.083 7.08872H61.8312L62.0427 5.33243L59.5044 5.4874C59.3298 6.34833 59.1585 7.1817 58.9906 7.98753C58.8228 8.79336 58.665 9.56475 58.5172 10.3017L58.3057 11.3348C58.1311 12.182 57.9716 12.9534 57.8272 13.649C57.6828 14.3446 57.5334 15.0609 57.379 15.7979H60.3908ZM73.7134 16.0768C73.9552 16.0768 74.2171 16.0544 74.4991 16.0096C74.7812 15.9649 75.0447 15.9063 75.2898 15.834C75.5349 15.7617 75.728 15.6773 75.869 15.5809L76.1913 13.0498C75.9295 13.2357 75.6692 13.3666 75.4107 13.4424C75.1522 13.5181 74.9155 13.556 74.7006 13.556C74.2104 13.556 73.8763 13.3838 73.6983 13.0395C73.5204 12.6951 73.5019 12.1923 73.6429 11.5311L74.4036 7.8119H77.4001L77.8836 5.4874H74.883L74.9033 5.39054C74.9467 5.18198 74.9885 4.98045 75.0286 4.78593L75.0682 4.59376C75.1723 4.08753 75.2747 3.59508 75.3754 3.1164C75.4762 2.63773 75.5803 2.12978 75.6877 1.59256L72.6054 2.14011C72.4644 2.82197 72.3284 3.48316 72.1975 4.12369C72.1189 4.50801 72.0337 4.91836 71.9418 5.35475L71.9138 5.4874H70.2887L69.8052 7.8119H71.4355L71.4229 7.8744L71.3866 8.05468C71.2792 8.58846 71.1768 9.0878 71.0794 9.5527C70.982 10.0176 70.8897 10.4653 70.8024 10.8957C70.7151 11.3262 70.6244 11.7653 70.5304 12.213C70.3491 13.0877 70.3692 13.8108 70.5908 14.3825C70.8125 14.9542 71.1935 15.3795 71.7341 15.6584C72.2747 15.9373 72.9345 16.0768 73.7134 16.0768Z" fill="#F7F7F7"/>
</g>
<defs>
<clipPath id="clip0_22_806">
<rect width="78" height="16" fill="white" transform="translate(0 0.363159)"/>
</clipPath>
</defs>
</svg>
