<svg width="43" height="44" viewBox="0 0 43 44" fill="none" xmlns="http://www.w3.org/2000/svg">
<path d="M7.16699 33.7042L20.8141 8.11564C21.1017 7.57635 21.8793 7.5862 22.1525 8.13356L26.8753 17.5792L7.16699 33.7042Z" fill="#FF8F00"/>
<path d="M7.16699 33.697L12.1353 3.06037C12.2652 2.2586 13.342 2.08481 13.7182 2.80506L23.292 21.1553L7.16699 33.697Z" fill="#FFA000"/>
<path d="M7.17383 33.6917L7.35299 33.551L23.0561 20.7039L18.6271 12.215L7.17383 33.6917Z" fill="#FF6F00"/>
<path d="M7.16699 33.7042L31.0553 10.6697C31.5561 10.1868 32.3919 10.4717 32.494 11.1597L35.8337 33.7042L22.3962 41.5365C21.8506 41.8429 21.185 41.8429 20.6394 41.5365L7.16699 33.7042Z" fill="#FFC400"/>
</svg>
