<svg width="50" height="51" viewBox="0 0 50 51" fill="none" xmlns="http://www.w3.org/2000/svg">
<g clip-path="url(#clip0_22_671)">
<path d="M48.46 23.1882L26.8949 1.6247C25.6539 0.382588 23.6395 0.382588 22.3968 1.6247L17.9189 6.10268L23.5994 11.7832C24.9195 11.3372 26.4331 11.6364 27.4856 12.6888C28.5429 13.7477 28.8399 15.2743 28.383 16.5988L33.8576 22.0734C35.1821 21.6171 36.7104 21.9125 37.7682 22.9719C39.2466 24.4498 39.2466 26.8451 37.7682 28.3241C36.2893 29.803 33.8939 29.803 32.4145 28.3241C31.3024 27.2109 31.0277 25.5776 31.5907 24.2076L26.4852 19.102L26.4846 32.5376C26.845 32.7164 27.1854 32.9543 27.4856 33.2535C28.964 34.7313 28.964 37.1267 27.4856 38.6067C26.0066 40.0851 23.6102 40.0851 22.1335 38.6067C20.6551 37.1267 20.6551 34.7313 22.1335 33.2535C22.4987 32.8888 22.9214 32.6129 23.3723 32.4276V18.8668C22.9214 18.6826 22.4993 18.4083 22.1335 18.0409C21.0133 16.9224 20.7439 15.2787 21.3179 13.9033L15.7186 8.30293L0.931988 23.0885C-0.310663 24.3317 -0.310663 26.346 0.931988 27.5881L22.4971 49.1522C23.7387 50.3943 25.7525 50.3943 26.9957 49.1522L48.46 27.6884C49.7021 26.4457 49.7021 24.4303 48.46 23.1882Z" fill="#DE4C36"/>
</g>
<defs>
<clipPath id="clip0_22_671">
<rect width="49.3916" height="49.3916" fill="white" transform="translate(0 0.693115)"/>
</clipPath>
</defs>
</svg>
