<svg width="40" height="41" viewBox="0 0 40 41" fill="none" xmlns="http://www.w3.org/2000/svg">
<g clip-path="url(#clip0_22_671)">
<path d="M39.2456 18.9108L21.7809 1.44756C20.7759 0.441633 19.1446 0.441633 18.1382 1.44756L14.5117 5.07408L19.1121 9.67449C20.1812 9.31328 21.407 9.55555 22.2593 10.4079C23.1156 11.2654 23.3561 12.5018 22.9861 13.5744L27.4198 18.0081C28.4924 17.6385 29.7301 17.8777 30.5868 18.7357C31.784 19.9326 31.784 21.8725 30.5868 23.0702C29.389 24.2679 27.4492 24.2679 26.251 23.0702C25.3504 22.1687 25.1279 20.8459 25.5839 19.7364L21.4491 15.6016L21.4487 26.4825C21.7406 26.6274 22.0162 26.82 22.2593 27.0623C23.4566 28.2591 23.4566 30.199 22.2593 31.3976C21.0616 32.5949 19.1209 32.5949 17.9249 31.3976C16.7276 30.199 16.7276 28.2591 17.9249 27.0623C18.2207 26.7669 18.563 26.5435 18.9282 26.3934V15.4112C18.563 15.2619 18.2211 15.0399 17.9249 14.7423C17.0177 13.8364 16.7996 12.5053 17.2644 11.3914L12.7298 6.85596L0.754775 18.8301C-0.251592 19.8369 -0.251592 21.4682 0.754775 22.4742L18.2194 39.9379C19.2249 40.9438 20.8558 40.9438 21.8626 39.9379L39.2456 22.5554C40.2515 21.549 40.2515 19.9168 39.2456 18.9108Z" fill="#DE4C36"/>
</g>
<defs>
<clipPath id="clip0_22_671">
<rect width="40" height="40" fill="white" transform="translate(0 0.693115)"/>
</clipPath>
</defs>
</svg>
