<svg width="36" height="42" viewBox="0 0 36 42" fill="none" xmlns="http://www.w3.org/2000/svg">
<g clip-path="url(#clip0_22_406)">
<path fill-rule="evenodd" clip-rule="evenodd" d="M21.456 5.25106L29.7734 10.1126C30.0076 9.86141 30.2812 9.63967 30.5915 9.45718C32.3165 8.45332 34.5167 9.04936 35.5186 10.7957C36.5103 12.542 35.9215 14.7693 34.1965 15.7836C33.8885 15.9628 33.5651 16.0911 33.2358 16.1709V25.8976C33.5615 25.9776 33.8814 26.105 34.1862 26.2824C35.9215 27.2967 36.5103 29.524 35.5083 31.2703C34.5167 33.0166 32.3062 33.6126 30.5812 32.6088C30.2378 32.4089 29.9394 32.1602 29.6895 31.8761L21.4228 36.7079C21.541 37.0694 21.605 37.4561 21.605 37.8582C21.605 39.8659 19.9936 41.5076 18 41.5076C16.0064 41.5076 14.395 39.8763 14.395 37.8582C14.395 37.4994 14.446 37.1529 14.5409 36.8256L6.22568 31.9654C5.99398 32.2116 5.7242 32.4292 5.4188 32.6088C3.68347 33.6126 1.48331 33.0166 0.491686 31.2703C-0.499935 29.524 0.0888396 27.2967 1.81385 26.2824C2.11884 26.1049 2.4387 25.9774 2.76415 25.8974V16.1709C2.43493 16.0911 2.11149 15.9628 1.80352 15.7836C0.0785101 14.7797 -0.510265 12.542 0.481356 10.7957C1.47298 9.04936 3.68347 8.45332 5.40847 9.45718C5.71713 9.63867 5.98941 9.859 6.22276 10.1085L14.5424 5.24566C14.4465 4.9168 14.395 4.56848 14.395 4.20781C14.395 2.18963 16.0064 0.55835 18 0.55835C19.9936 0.55835 21.605 2.18963 21.605 4.20781C21.605 4.57046 21.5529 4.92062 21.456 5.25106ZM20.5894 6.7489L28.9266 11.622C28.6689 12.5383 28.7635 13.5543 29.2694 14.4451C29.7769 15.3389 30.6036 15.9313 31.5212 16.1622V25.9012C31.4744 25.9128 31.4279 25.9253 31.3816 25.9388L20.4926 6.84624C20.5255 6.81441 20.5578 6.78196 20.5894 6.7489ZM15.5097 6.84845L4.62084 25.9407C4.57377 25.9269 4.52642 25.914 4.47883 25.9021V16.1622C5.39637 15.9313 6.22313 15.3389 6.73064 14.4451C7.23749 13.5525 7.33145 12.5343 7.07183 11.6165L15.4067 6.74484C15.4403 6.78007 15.4747 6.81461 15.5097 6.84845ZM19.0073 7.71338L29.8936 26.8013C29.65 27.0365 29.4353 27.3105 29.259 27.6208C29.0838 27.9293 28.958 28.2532 28.879 28.5829H7.12119C7.04222 28.2534 6.91629 27.9296 6.74097 27.6208C6.56405 27.3125 6.34977 27.04 6.10735 26.8058L16.9958 7.71427C17.3144 7.80739 17.6514 7.85727 18 7.85727C18.3497 7.85727 18.6877 7.80707 19.0073 7.71338ZM20.666 35.3995L28.9491 30.5581C28.9242 30.4791 28.902 30.3992 28.8825 30.3187H7.11658C7.10503 30.366 7.09256 30.4131 7.07917 30.4599L15.4029 35.3251C16.0583 34.6365 16.979 34.2087 18 34.2087C19.0573 34.2087 20.007 34.6675 20.666 35.3995Z" fill="#E535AB"/>
</g>
<defs>
<clipPath id="clip0_22_406">
<rect width="36" height="41" fill="white" transform="translate(0 0.55835)"/>
</clipPath>
</defs>
</svg>
