<svg width="48" height="57" viewBox="0 0 48 57" fill="none" xmlns="http://www.w3.org/2000/svg">
<path d="M7.5317 25.0385C5.90742 25.8075 1.60836 29.2693 0.780351 30.295C-0.0795549 31.3207 -0.334243 29.7181 0.557401 27.0578C1.25783 24.9103 3.04143 21.9934 6.03484 19.4935C7.78624 18.0511 11.6397 15.9678 13.9962 14.7497C14.474 14.4932 20.652 11.8649 26.1613 10.5508C26.6391 10.4226 25.5882 11.3521 25.4288 11.8649C24.6008 14.3009 8.07282 24.7499 8.07282 24.7499L7.5317 25.0385Z" fill="black"/>
<path d="M30.8107 54.4304C31.0973 56.1612 30.8426 56.2894 29.0593 56.5138C27.2759 56.7382 25.9703 56.065 25.4926 55.6164C25.0148 55.1675 24.9194 54.174 25.3971 53.2766C25.6838 52.6996 25.9704 52.5073 26.1297 51.8021C26.2889 51.1291 26.4163 50.9688 26.5436 50.7124C26.6708 50.4879 26.7029 50.2635 26.7346 48.693C26.7665 47.1226 26.7346 44.1736 26.8939 42.9237C27.0533 41.6417 32.5626 43.5006 32.5626 43.5006C32.5626 43.5006 31.2568 46.7699 30.9066 47.5712C30.5562 48.3726 30.5881 49.911 30.5881 50.2315C30.5881 50.5521 30.4608 51.193 30.3651 51.2251C30.2696 51.2571 30.6836 52.0904 30.4924 52.5713C30.365 53.0201 30.779 54.174 30.8107 54.4304Z" fill="black"/>
<path d="M32.9126 5.4225C32.7214 4.20453 32.9126 1.80038 33.1673 1.41595C33.9636 0.326071 38.1671 0.197979 39.0589 1.47999C39.441 2.05688 39.4092 3.40309 39.3455 4.26857C39.2819 5.1339 39.0589 6.99296 39.027 7.6021C38.9953 8.05089 34.3776 8.75586 33.3585 7.53789C33.0718 7.21751 32.9126 5.4225 32.9126 5.4225Z" fill="black"/>
<path d="M42.2748 51.3212C44.2174 52.7316 45.7142 52.988 46.7013 53.5008C47.6885 54.0138 47.4338 55.0074 45.7778 55.2958C44.4402 55.5521 42.3385 55.0393 40.9373 55.0393C39.5361 55.0393 36.4151 55.1997 35.5871 54.6228C34.6318 53.9497 35.0457 52.6995 35.0457 52.6995C35.3005 51.9945 35.9373 50.4238 35.7463 49.1417C35.5552 47.8597 35.3004 47.1546 34.8227 45.9686C34.3451 44.7827 33.9949 41.866 34.4408 41.7057C34.8867 41.5453 34.7591 41.7057 35.3324 41.8338C35.9056 41.9619 36.5426 42.1543 37.7846 42.1543C39.0266 42.1543 40.3959 41.9619 40.8737 41.8659C41.3513 41.7697 41.7334 41.6734 41.5741 42.6672C41.4149 43.6607 40.9373 45.5198 40.9054 46.9622C40.8737 48.4045 40.8737 50.0713 40.9692 50.3597C41.0646 50.6482 41.7653 50.9687 42.2748 51.3212Z" fill="black"/>
<path d="M35.4605 8.62781C31.9576 11.6729 25.1744 12.5061 15.1113 16.4165C12.5317 17.4101 5.65309 20.391 3.99707 23.5001C9.57004 20.2629 11.6401 24.7181 12.0858 29.3015C12.4997 33.5965 14.6335 35.8403 20.1109 35.7119C25.7477 35.5838 27.4673 38.8851 29.0277 42.7635C32.053 27.9232 36.8936 25.0386 40.0143 22.5065C46.6384 17.0895 38.4858 7.53793 35.4605 8.62781Z" fill="#88CE02"/>
<path d="M35.4603 8.62781C27.053 11.5766 18.7412 12.3138 8.9647 18.3717C6.63998 19.8141 1.73571 23.0832 0.780273 29.3336C4.34685 25.359 12.5949 20.359 22.69 17.1858C27.7854 15.5831 31.5114 14.5255 36.0334 12.7626C35.7151 10.7111 35.7151 9.90982 35.4603 8.62781Z" fill="#88CE02"/>
<path d="M46.1927 26.1924C46.1927 26.1924 45.5876 28.2758 44.3775 28.949C44.3775 28.949 43.4859 29.2696 41.7026 28.276C41.193 27.9876 40.8109 26.994 40.8427 26.6733C40.8746 25.904 41.3522 25.5515 41.3522 25.5515C41.3522 25.5515 41.8619 24.686 42.4668 24.7181C43.072 24.75 44.0911 24.8462 44.4095 24.5577C44.696 24.2372 46.2565 25.1346 46.1927 26.1924Z" fill="black"/>
<path d="M33.1993 6.03154C33.1993 6.03154 33.072 7.66636 32.849 8.69187C32.8172 8.88433 31.8619 8.98031 31.1611 9.26891C32.4987 13.1151 40.5557 13.083 41.6066 11.192C41.0971 10.8395 40.078 10.2946 39.6004 10.1023C39.1226 9.90985 39.1545 9.94194 39.1226 9.04452C39.0909 8.14694 39.0271 6.48033 38.9633 6.03154C38.8997 5.58275 33.9635 5.58275 33.1993 6.03154Z" fill="black"/>
<path d="M33.5174 6.03153C33.5174 6.03153 33.5174 6.96106 33.4219 7.85848C33.3901 8.27517 33.3582 8.53151 33.2946 8.85205C33.2627 9.04451 34.3773 9.81353 34.6958 11.5124C36.2244 14.9419 39.7594 13.2432 41.2242 11.6085C40.7147 11.2559 39.8867 10.7752 38.9314 10.3906C38.4536 10.1981 38.6765 9.78158 38.6448 8.88416C38.6129 7.98673 38.4855 6.67246 38.4218 6.19172C38.3579 5.71098 34.2818 5.58273 33.5174 6.03153Z" fill="#EFEFEF"/>
<path d="M33.1995 6.03154C33.1995 6.03154 33.1676 6.60858 33.0723 7.28161C33.4861 7.69814 34.0275 8.27519 34.4417 8.62783C34.7283 8.88433 35.4287 8.85223 36.0658 8.85223C36.639 8.85223 37.1485 8.91627 37.3715 8.78818C37.8812 8.53168 38.6135 7.89075 39.0275 7.40986C38.9958 6.83298 38.9639 6.28804 38.9321 6.03154C38.8999 5.58275 33.9638 5.58275 33.1995 6.03154Z" fill="black"/>
<path d="M36.0975 8.46743C35.7152 8.46743 35.2693 8.43548 34.9191 8.37128C34.7598 8.33934 34.6006 8.24319 34.4732 8.17898C34.2502 8.01863 34.0273 7.8265 33.7727 7.63405C33.2631 7.24946 33.2313 7.02506 33.2313 6.92907C33.4543 4.90967 33.1675 3.21096 33.1675 3.21096C33.1675 3.21096 32.9446 2.34548 34.1547 2.12109C35.3648 1.89669 36.0973 1.86475 36.0973 1.86475C36.0973 1.86475 36.8617 1.86475 38.0399 2.12109C39.25 2.34548 39.0271 3.21096 39.0271 3.21096C39.0271 3.21096 38.7405 4.90967 38.9635 6.92907C38.9635 7.02506 38.9317 7.24946 38.422 7.63405C37.9761 7.95459 37.6259 8.30708 37.2757 8.37128C36.9253 8.43548 36.4794 8.46743 36.0975 8.46743Z" fill="black"/>
<path d="M36.0969 1.03137C33.9952 1.03137 33.581 1.60826 32.976 2.24934C32.8487 2.40953 32.9441 3.37116 33.1672 5.42251H33.4537C33.4537 5.42251 33.2625 4.84547 33.2944 4.17244C33.3263 3.49941 33.4537 3.53152 33.3581 3.37117C33.2308 3.17871 32.976 2.85817 33.5493 2.53778C34.1224 2.21724 35.0141 2.79412 36.0969 2.82622C37.1796 2.79412 38.1032 2.21724 38.6763 2.53778C39.2495 2.85817 38.9948 3.17871 38.8676 3.37117C38.7401 3.56346 38.8993 3.49925 38.9312 4.17244C38.9629 4.84547 38.7719 5.42251 38.7719 5.42251H39.0585C39.2495 3.37116 39.3769 2.47374 39.2814 2.31339C38.74 1.60826 38.1987 1.06332 36.0969 1.03137Z" fill="black"/>
<path d="M46.1923 26.2885C46.1923 26.2885 45.5872 28.2437 44.409 28.9168C44.1542 28.7887 44.1861 28.5964 43.9631 28.3078C43.8993 28.2118 43.6764 28.1474 43.581 28.0514C43.4855 27.9553 43.5174 27.7949 43.3581 27.6668C43.2306 27.5386 43.1351 27.6347 43.0077 27.5386C42.8804 27.4105 42.8484 27.2502 42.753 27.1542C42.6892 27.09 42.4345 27.058 42.3709 26.9938C42.2116 26.8335 40.8105 26.545 40.8742 26.2245C41.0014 25.7436 41.2563 25.3911 41.2563 25.3911C41.2563 25.3911 41.8613 24.4937 42.4663 24.5256C43.0713 24.5577 43.6446 24.686 43.9631 24.3975C44.3135 24.0768 46.288 25.2628 46.1923 26.2885Z" fill="black"/>
<path d="M42.0522 12.1215C42.0522 12.1215 44.0584 11.6406 45.4279 12.9549C46.7973 14.3011 46.7016 15.9677 46.2878 16.9934C46.638 17.4101 47.2749 18.5638 46.7973 19.9422C48.8991 21.737 47.9755 24.4937 46.0967 26.3206C46.0967 26.3206 45.6508 24.6538 43.8675 24.5577C43.9311 23.9168 42.2115 23.4038 43.0076 21.737C41.7975 21.4486 41.8294 20.6152 41.6383 19.5897C41.479 18.5638 42.0522 12.1215 42.0522 12.1215Z" fill="black"/>
<path d="M41.3199 13.0189C41.3199 13.0189 43.6446 11.8331 45.014 13.1793C46.3833 14.5255 46.0011 15.9998 45.5872 17.0255C45.9374 17.442 46.7654 18.6282 46.2559 20.0383C46.1604 20.3589 45.4598 20.3589 44.9501 21.1922C46.2238 20.4549 47.0201 20.6473 47.3067 21.5767C47.7526 23.019 46.7653 24.7498 45.9055 25.7115C45.9055 25.6794 45.8736 25.6473 45.8736 25.6153C45.7464 26.0962 45.5871 27.0256 44.6318 28.0513C44.154 28.5641 43.7719 28.5001 43.2304 28.3718C42.5936 28.2115 42.3707 27.9229 41.479 27.4423C40.9695 27.1538 41.2561 26.8012 41.2561 26.5128C41.2561 26.4487 41.3197 26.3524 41.4154 26.2243C41.479 26.064 41.6701 25.8078 41.9567 25.5192C41.9567 25.5192 42.3707 24.9423 42.9759 24.9742C43.581 25.0063 44.2178 24.8783 44.3771 24.7179C44.3771 23.5961 43.1033 23.564 43.5491 21.6409C43.581 21.5447 43.7403 21.3844 44.2497 21.3203C43.4853 21.16 43.1351 21.1279 42.5936 20.6152C42.2115 20.2627 41.9249 19.8139 41.8293 19.237C41.6384 18.2435 41.3199 13.0189 41.3199 13.0189Z" fill="#EFEFEF"/>
<path d="M34.6001 10.9997C34.4091 10.7432 33.4219 9.46121 31.5429 8.94837C31.0015 8.78802 30.6513 9.23682 30.11 9.55736C29.9507 9.46121 29.2501 9.14067 28.868 9.36491C28.4859 9.58915 28.2312 9.8137 27.8489 9.97389C27.6577 9.87774 27.1483 9.87775 26.7343 10.0379C26.3203 10.1662 25.6834 10.4546 25.0783 11.288C24.6962 12.6663 31.8295 11.6405 31.8295 11.6405L34.6001 10.9997Z" fill="black"/>
<path d="M34.6641 10.9997C33.6449 10.6471 33.8042 9.46119 31.5431 9.26889C31.0972 9.23679 30.8106 9.58928 30.4922 9.81368C30.6515 9.97403 30.8106 10.2304 30.9062 10.4867C30.6196 10.1663 30.1101 9.74948 29.6004 9.65333C29.1227 9.55734 28.8043 9.90982 28.2947 10.1663C28.3901 10.2623 28.4858 10.4227 28.613 10.6151C28.1671 10.3267 27.8488 10.2305 27.2438 10.4548C26.8298 10.5829 26.0336 10.9355 25.4286 11.801C25.0465 13.1793 31.8614 11.6406 31.8614 11.6406L34.6641 10.9997Z" fill="#88CE02"/>
<path d="M40.651 11.5125C40.651 11.5125 40.651 11.1598 40.6191 10.8394C40.6191 10.7754 40.3644 10.615 40.3644 10.551L40.3008 10.4868C40.3008 10.4868 40.8103 10.1984 41.1924 10.3587C41.6063 10.4868 41.8292 11.0317 41.8292 11.0317C42.5617 10.7754 42.6253 11.0638 42.9757 11.4484C43.7401 11.2881 43.8355 11.5765 44.3133 12.2818C44.3133 12.2818 43.7401 12.1857 42.6255 12.3778C41.5426 12.538 40.651 11.4804 40.651 11.5125Z" fill="black"/>
<path d="M40.5241 11.3521C40.5241 11.3521 40.7152 11.1918 40.6514 11.1597C41.0016 10.9674 41.4794 10.7432 41.7024 11.3521C42.4349 11.0956 42.5304 11.4483 42.8806 11.833C43.7722 11.4163 43.8359 11.929 43.8997 12.1534C43.6131 12.1534 43.1992 12.1855 42.6259 12.2496C41.5432 12.4099 40.4923 11.32 40.5241 11.3521Z" fill="#88CE02"/>
<path d="M29.6966 10.5509C29.6966 10.5509 31.5117 11.1918 33.0403 11.0957C34.5689 10.9676 37.1802 10.8393 38.5814 11.6727C38.5814 11.6727 40.0145 11.1597 41.352 11.5124C42.6897 11.8649 45.1417 14.1727 44.4094 16.6086C44.3456 16.769 43.9316 17.0253 43.454 17.1857C43.454 17.1857 43.7088 18.2754 43.2629 19.1728C42.817 20.0383 41.8298 21.7051 41.7979 24.0128C41.7662 24.3974 41.7026 25.1986 41.6388 25.5832C39.1547 25.4872 35.3333 24.5575 31.5755 24.6217C31.6073 24.2052 31.6392 23.9487 31.6711 23.532H31.7664C31.5754 22.4743 31.5117 21.9293 31.3205 21.128C30.1104 20.3589 28.8365 19.4614 27.754 17.7626C26.703 16.0637 29.6966 10.5509 29.6966 10.5509Z" fill="black"/>
<path d="M41.9883 27.8591C41.9883 27.8591 43.9628 34.9748 41.6381 37.9557C41.6381 37.9557 41.9883 39.3338 41.1922 40.8083C41.0648 41.4492 40.9055 42.0263 40.8101 42.6672C40.3961 45.3275 39.6953 46.4494 39.5043 50.7123L37.5934 50.6803C37.5934 50.6803 37.3705 47.6033 36.7018 45.9686C36.3198 45.0393 34.8228 43.789 34.8868 42.5391C34.9504 41.5775 35.1414 40.7762 36.7657 39.494C36.893 37.6351 35.0459 35.8721 35.3327 28.9489L41.9883 27.8591Z" fill="black"/>
<path d="M41.4152 27.5706C41.9247 30.8399 43.1029 35.6798 40.9693 38.0515C41.0647 38.5003 41.1284 39.1414 41.001 39.8785C40.9374 40.2631 40.81 40.6798 40.6508 41.1284C40.3323 41.8977 40.2049 43.0196 40.1094 43.6926C39.6954 46.3529 39.6954 46.4813 39.5043 50.7442L37.5934 50.7121C37.5934 50.7121 37.3705 47.6351 36.7018 46.0006C36.3198 45.0711 35.5236 44.2698 35.4599 43.0197C35.3963 42.0582 36.065 40.1351 37.6574 40.1992C37.5619 36.3209 35.7784 37.0901 35.3008 29.0129L41.4152 27.5706Z" fill="#EFEFEF"/>
<path d="M29.6965 10.5509C29.6965 10.5509 30.3971 10.7753 31.1613 10.8393C31.9257 10.9034 32.7537 10.8393 33.4861 10.8072C35.0147 10.6792 37.1802 10.5188 38.6133 11.3522C38.6133 11.3522 39.4094 11.0957 40.2693 11.1597C40.6514 11.1918 41.0337 11.5124 41.4794 11.6406C42.8806 11.9931 44.2181 14.3329 43.6129 16.4485C43.5493 16.6088 43.1034 16.4485 42.5939 16.6088C42.6892 17.0576 42.7532 18.0833 42.2435 19.173C41.7022 20.2629 41.0016 21.6731 41.1289 24.3656C37.7851 24.2052 36.2884 23.981 32.9764 23.8206C32.6898 22.6346 32.4986 21.4487 32.4668 20.8398C32.9127 20.6154 33.1673 20.4232 33.5178 20.0385C32.5625 20.1988 32.1803 20.1346 31.6069 19.8141C31.0338 19.4935 30.0147 18.4679 29.5052 17.7948C29.4415 17.7306 29.0913 18.7882 28.2952 18.8205C28.0085 18.4038 29.2186 17.2178 28.9956 16.7692C28.1997 15.1343 29.6965 10.5509 29.6965 10.5509Z" fill="#EFEFEF"/>
<path d="M41.6703 24.9101C41.6703 24.9101 41.7339 26.0641 41.7339 26.3525C41.7339 26.6731 41.9887 27.6345 42.0205 28.0833C41.6703 28.6923 40.1417 30.0706 37.371 30.5835C34.6323 31.1603 31.002 26.8334 31.002 26.8334C31.0975 26.4167 31.416 25.1986 31.6389 24.5577C31.6708 24.4936 31.7344 24.3333 31.7344 24.2692C32.0212 23.8525 41.6703 24.9101 41.6703 24.9101Z" fill="black"/>
<path d="M40.9692 25.0065C40.9692 25.8078 41.0964 26.3849 41.1921 26.8977C41.3513 27.8272 41.606 28.4362 41.606 29.0452C41.606 30.9041 39.1857 30.5835 37.1474 30.6477C34.4087 31.2248 32.084 26.8977 32.084 26.8977C32.275 26.1605 32.4025 25.3272 32.689 24.6219C32.7208 24.2374 32.7846 23.7566 32.8163 23.5322C36.7015 23.5322 39.4402 23.7566 41.0326 23.9167C41.0964 24.2693 41.0328 24.8783 40.9692 25.0065Z" fill="#EFEFEF"/>
<path d="M37.9119 29.1411C37.9119 29.1411 36.2242 25.359 31.1606 26.481C29.9506 29.9105 28.3263 33.853 29.3773 38.1159C28.3263 39.5582 27.1162 40.3597 27.1162 43.0199C27.1162 45.6802 27.2436 46.129 27.2436 46.129L30.9695 46.3214C30.9695 46.3214 32.1796 44.751 32.6573 43.0521C32.7847 42.5712 32.9121 41.7059 32.8166 40.7123C32.9439 40.52 33.4853 40.0714 33.5491 39.2059C33.5491 39.2059 35.3643 38.2444 36.4152 35.9047C37.4026 33.7888 37.1477 31.9618 37.9119 29.1411Z" fill="black"/>
<path d="M37.9124 29.1411C37.8171 28.7886 36.5432 25.327 31.8299 26.3525C29.0595 33.7887 30.0786 36.8657 30.4924 38.2118C28.6134 40.6156 27.7537 41.1285 28.1359 46.0005H30.62C31.7663 44.1736 32.0212 43.5004 32.0848 41.0965C32.0848 41.0004 31.7346 41.2888 31.4797 41.6094C31.6709 40.6158 32.2122 40.4235 32.6262 39.8145C32.8173 39.558 32.9764 39.1734 32.9764 38.6606C35.2056 37.1542 36.0336 35.263 36.5113 33.3078C36.8935 31.9618 37.3393 29.7501 37.9124 29.1411Z" fill="#EFEFEF"/>
<path d="M30.0464 23.9808C30.0464 23.9808 30.9063 24.0128 31.6707 24.2693C32.4031 24.5256 32.4031 24.6858 32.6897 25.0065C32.9763 25.3272 33.6769 25.8078 33.5496 26.2885C33.4858 26.545 33.3267 26.6091 33.1037 26.8335C33.0082 26.9296 32.3075 27.6988 32.1483 27.7949C32.0528 27.859 31.9253 27.9553 31.8298 28.0193C31.7344 28.0834 31.4479 28.2758 31.3522 28.3399C31.0337 28.5002 30.8108 28.5964 30.4605 28.5643C30.4605 28.5643 29.6644 28.5322 29.1547 27.9874C29.1547 27.9874 29.0911 27.7309 29.2185 27.6028C29.2185 27.6028 28.5497 27.0258 28.3586 26.6412C28.1674 26.2567 28.1674 25.7118 28.295 25.4234C28.3586 25.1346 29.6005 24.3333 30.0464 23.9808Z" fill="black"/>
<path d="M30.8423 55.1676L30.7468 55.969C30.7468 55.969 30.4602 56.3215 28.3266 56.2896C26.161 56.2575 25.5879 55.5844 25.3968 55.2318L25.2695 54.3984C25.2695 54.3984 25.6835 53.7894 25.7791 53.7894C26.4797 53.8535 28.8682 54.8151 30.5242 55.0714C30.683 55.0714 30.7148 55.1355 30.8423 55.1676Z" fill="black"/>
<path d="M35.4606 53.533C35.4606 53.8854 35.4287 53.8854 35.4287 54.2381C35.8108 54.5265 36.7664 54.6869 38.5814 54.6546C41.2246 54.5906 43.6768 55.4561 46.6702 54.9431L46.7021 54.3662L46.4155 54.3342L35.8108 53.4688L35.4606 53.533Z" fill="black"/>
<path d="M37.7848 54.6547C38.0397 54.6547 38.2944 54.6547 38.581 54.6547C40.3008 54.5907 41.9249 54.9753 43.6763 55.0714C44.5998 55.0393 45.7463 54.8149 45.6508 54.1419L36.6066 53.3726C36.0652 53.9815 36.479 54.4944 37.7848 54.6547Z" fill="black"/>
<path d="M27.4036 41.1608C27.6902 41.3531 29.6328 42.507 32.7856 42.3466C32.7218 42.9556 32.7537 44.1416 31.3525 46.2249C30.6519 47.2506 30.0467 49.0456 29.9194 51.3214C29.9513 51.8342 30.2379 52.2828 29.8558 52.956C29.983 53.3726 30.4926 54.2059 30.7474 54.7188C31.0021 55.2318 31.1295 55.8087 29.4416 55.8408C27.722 55.8727 24.9513 55.6804 25.3336 54.3343C25.5248 53.6292 26.0661 52.892 26.1299 52.6034C26.1935 52.3149 26.1935 51.4496 26.7348 50.8726C27.2126 49.27 27.0533 47.7315 26.9579 46.2891C26.7986 44.7826 26.7667 42.3787 27.4036 41.1608Z" fill="black"/>
<path d="M30.3647 15.0382C32.6257 11.9931 30.7149 9.5573 27.0847 10.2944C25.6197 10.5828 24.1549 11.6086 24.0592 13.4675C23.5816 13.5316 22.4989 13.5956 21.9574 15.5829C21.5436 17.1214 21.3206 17.4099 20.588 18.1791C20.1104 18.724 20.6199 19.8458 20.9701 20.6473C22.1485 23.4037 25.7789 23.6601 28.231 25.7435C29.059 25.5191 29.9188 24.5898 30.1736 23.9808C28.1036 21.5126 28.5493 20.5511 27.7213 19.2691C28.6131 18.9484 30.6512 17.6985 30.3647 15.0382Z" fill="black"/>
<path d="M29.9189 14.8459C30.0461 14.6535 30.2691 14.2369 30.3648 14.0766C30.3967 14.0445 30.7469 14.6535 30.7788 14.6215C31.6385 13.2111 31.8615 11.1598 30.8741 10.9675C30.6512 10.9354 30.2373 10.8394 29.887 10.711C29.2502 10.4866 28.677 10.4866 27.6578 10.679C26.2566 10.9354 24.8554 11.961 24.8554 13.4355C24.8554 13.5317 25.8424 13.8201 26.1292 15.0061C25.6514 14.3329 24.8234 13.5957 23.8362 14.2368C22.7852 14.9098 23.3267 16.4483 21.9255 18.0509C21.4477 18.5958 21.5115 19.2369 22.0209 20.5189C22.8489 22.5383 26.766 23.6281 28.8996 25.5512C29.4092 25.3268 29.7594 24.8139 30.0142 24.4293C28.5812 22.9229 28.0078 21.5125 27.594 20.4868C27.0845 19.301 26.5111 18.6279 25.3965 17.7302C25.9699 17.9546 26.4158 18.179 26.6703 18.3713C26.9569 18.5636 27.3709 18.5957 27.7531 18.4674C29.1227 17.987 29.8552 16.0637 29.9189 14.8459Z" fill="#EFEFEF"/>
<path d="M43.7723 15.3587C43.6768 16.5767 42.7852 15.9677 42.3075 15.7433C41.3521 15.3266 40.3967 15.0382 39.2821 15.0382C38.1675 15.0382 36.7344 15.1343 35.4925 15.4549C33.7729 15.9356 33.2632 15.9037 32.499 15.5189C31.7348 15.1022 30.3974 14.0765 30.3974 14.0765C30.3974 14.0765 30.3655 14.3971 30.684 14.8138C31.0978 15.3266 32.0215 15.9677 33.2634 16.3842C33.8684 16.5767 34.3462 16.4483 34.8876 16.3202C37.7219 15.615 40.7153 15.4868 43.2311 17.0253C43.3585 17.0894 43.8044 16.8971 43.9954 16.6086C44.25 16.1921 43.7723 15.3587 43.7723 15.3587Z" fill="black"/>
<path d="M29.2822 27.5706C29.5369 27.7309 29.8554 27.8271 30.2056 28.1155C30.2056 28.1155 29.919 28.1155 29.7918 27.9874C29.6324 27.8913 29.314 27.6028 29.2822 27.5706Z" fill="#001423"/>
<path d="M38.4857 2.15324C38.3901 1.8648 37.6894 1.35181 36.0654 1.35181C34.3139 1.35181 33.8043 1.89674 33.7726 2.18519C33.7726 2.28133 33.6452 3.30717 33.6133 3.7237C33.6133 3.7237 33.6133 4.23654 33.645 5.00571C33.6769 5.51855 33.8043 5.80699 33.868 6.48018C33.9316 7.18515 34.1228 7.63394 34.473 8.21098C34.6323 8.30697 34.7596 8.40328 34.9189 8.43538C35.5559 8.56347 36.6705 8.59557 37.2755 8.43538C37.6258 8.33923 38.0717 7.73025 38.1672 7.18531C38.2945 6.51228 38.4219 6.03139 38.4538 5.61486C38.5174 5.19832 38.5493 4.26864 38.581 4.01214C38.6767 3.30717 38.5174 2.21729 38.4857 2.15324Z" fill="#EFEFEF"/>
<path d="M35.1423 41.7698C35.1423 41.7698 36.8302 42.507 41.002 41.8659C41.002 41.8659 39.8237 47.8277 40.3652 50.8084C40.3652 50.8084 40.9064 51.5777 44.9191 53.052C44.9191 53.052 46.7024 53.5008 46.6387 54.3984C46.6387 54.3984 46.7024 54.5907 44.537 54.5265C42.3716 54.4623 40.3333 54.0777 38.9002 54.0777C37.4671 54.0777 35.9385 54.1418 35.6838 53.7252C35.3973 53.3406 35.7475 52.3469 36.1615 51.7699C36.6075 51.161 36.48 50.7121 36.4482 49.6225C36.3524 46.7699 34.1868 43.8211 35.1423 41.7698Z" fill="black"/>
<path d="M34.7914 42.3147C34.5684 42.6353 34.8231 43.8531 35.1416 45.0391C35.46 46.225 36.1608 46.9303 36.32 48.8853C36.4791 50.8084 36.511 51.0649 35.9696 52.1866C35.4282 53.3082 35.269 54.3341 37.1478 54.3662C39.0266 54.3983 40.0458 54.3341 41.9566 54.6227C43.8674 54.9111 44.5361 55.0072 45.5871 54.8471C46.638 54.6869 46.8608 54.3341 46.4151 54.0137C45.9692 53.6931 44.1221 53.3406 43.326 52.6994C42.5616 52.1225 40.3962 51.1609 40.3645 50.9045C40.269 50.0391 40.2371 46.898 40.3962 45.8723C40.5555 44.8465 40.7783 43.3722 40.8421 42.9876C40.9059 42.603 41.2242 42.2183 40.6828 42.3465C40.1415 42.4746 38.1034 42.7632 36.5748 42.667C35.0462 42.5711 34.887 42.2184 34.7914 42.3147Z" fill="#88CE02"/>
<path opacity="0.3" d="M35.8746 52.2188C36.4159 52.4751 37.2121 52.6675 37.8172 52.6675C37.8172 52.6675 37.5941 53.7253 37.9445 54.3663C38.2947 55.0073 35.3968 54.6227 35.3968 54.6227L35.2695 52.347L35.8746 52.2188Z" fill="black"/>
<path opacity="0.3" d="M44.313 54.9753C44.8225 54.8149 45.1729 54.2381 44.7589 53.6933C44.313 53.1483 43.9309 53.0522 44.504 53.0202C45.0774 52.9881 47.1791 54.2702 47.1791 54.2702L46.0963 55.2637L44.313 54.9753Z" fill="black"/>
<path opacity="0.3" d="M34.6955 43.5646C35.428 43.8211 36.5425 43.8852 37.498 43.8531C38.4533 43.8211 39.8863 43.6927 40.81 43.3723C41.7334 43.0518 41.3513 43.7248 41.3513 43.7248L40.8418 44.2057C40.8418 44.2057 39.6316 44.6864 37.6573 44.6545C35.3326 44.6224 34.6318 44.366 34.6318 44.366L34.6955 43.5646Z" fill="black"/>
<path opacity="0.3" d="M34.7598 45.1673C35.4924 45.4238 36.6068 45.4878 37.5623 45.4557C38.5176 45.4238 39.7915 45.4238 40.715 45.0711C41.0971 44.943 40.8743 45.4878 40.8743 45.4878L40.715 45.7763C40.715 45.7763 39.473 46.2251 37.5304 46.1928C35.2057 46.1609 34.7917 45.9684 34.7917 45.9684L34.7598 45.1673Z" fill="black"/>
<path d="M32.6582 22.6987C32.6582 22.9231 35.1422 24.173 36.5115 24.4295C37.881 24.6859 40.7471 24.4295 41.1928 24.3334L41.1291 24.7822C41.1291 24.7822 37.7216 25.295 35.1103 24.5899C32.4989 23.8848 32.7856 23.7244 32.7856 23.7244L32.6582 22.6987Z" fill="black"/>
<path d="M27.3398 50.0392C27.722 50.2317 29.0914 50.5842 29.983 50.3919C30.1103 50.3598 29.983 48.1802 30.3334 47.1866C30.8429 45.8083 31.671 44.6865 32.0529 42.2507C30.7154 42.1224 29.1869 41.7698 28.3906 41.5133C27.3717 44.6545 27.7221 47.3468 27.3398 50.0392Z" fill="#EFEFEF"/>
<path d="M29.4735 52.0587C29.6964 52.1227 29.8556 52.3791 29.9194 52.219C30.0466 51.9304 29.6964 51.3857 29.6645 51.0011C29.6645 50.969 29.6645 51.0011 29.6645 50.969C29.378 50.7126 27.4353 50.6805 27.5628 50.8086C27.3398 51.2253 26.9896 51.1613 26.8623 51.9946C26.7987 52.4112 27.3082 52.0587 27.7857 52.0266C26.926 52.6035 25.9388 53.3409 25.7795 53.9818C25.5884 54.8792 25.9069 55.1357 26.8623 55.6166C27.6903 55.8089 28.6775 55.841 29.4417 55.8089C30.3016 55.6486 30.461 55.232 30.2061 54.655C29.8237 53.7895 29.569 52.6677 29.4735 52.0587Z" fill="#EFEFEF"/>
<path d="M29.8236 10.4226C30.8746 11.0316 32.3395 10.8714 32.8808 10.8393C33.0082 10.8393 34.2822 10.6149 34.3458 10.6468C34.473 10.679 34.473 10.7751 34.473 10.7751C34.473 10.7751 33.9954 11.0314 32.9127 11.0955C31.8936 11.1595 30.6835 11.0955 30.0148 10.7751C29.2186 10.4226 29.8236 10.4226 29.8236 10.4226Z" fill="black"/>
<path d="M40.6513 11.0316C40.8424 11.1597 42.0844 11.6406 42.6258 12.2175C43.1035 12.7305 42.8488 12.6984 42.7531 12.5702C42.6258 12.4098 41.6385 11.7368 41.2564 11.5766C40.8743 11.4164 40.3965 11.1278 40.3965 11.0637C40.3965 10.9997 40.6513 11.0316 40.6513 11.0316Z" fill="black"/>
<path d="M29.6642 24.3333C30.5877 24.2692 31.5432 24.4936 32.1482 25.1345C32.4667 25.4551 32.9763 25.8076 32.9126 26.1281C32.9126 26.2242 32.7214 26.4807 32.5624 26.673C32.4669 26.8011 32.1803 27.0896 32.0846 27.1859C31.9573 27.282 31.5114 27.6347 31.4159 27.6987C31.3204 27.7629 31.193 27.9233 31.0974 27.9552C30.7791 28.1156 30.4287 27.9873 30.1103 27.8271C29.7919 27.6668 30.1741 27.6347 29.8237 27.3783C28.9639 26.7693 28.4861 26.3525 28.8365 25.1666C28.8682 24.9422 29.2185 24.6857 29.6642 24.3333Z" fill="#EFEFEF"/>
<path opacity="0.4" d="M21.5442 16.9934C18.6781 18.1473 11.3853 21.8014 9.31543 22.9232C11.0351 24.0129 11.8312 26.6411 12.086 29.3015C12.1178 29.558 12.1497 29.7823 12.1816 30.0387C12.2133 30.2631 12.2452 30.4233 12.2769 30.5196C12.2769 30.5517 12.2769 30.6157 12.3088 30.6477C14.1878 25.4874 20.9071 20.0384 21.162 19.6218C21.2892 19.4295 21.0026 18.5961 21.4485 17.795C22.0219 16.769 23.1366 16.3202 21.5442 16.9934Z" fill="black"/>
<path opacity="0.4" d="M28.3584 41.1929C29.8232 38.2441 29.8551 35.4234 29.8232 32.122C29.8232 30.7437 30.8104 28.7885 30.301 29.3334C28.3901 31.4807 23.5816 35.5195 20.1104 35.7438C24.9827 35.5836 26.8934 38.0516 28.3584 41.1929Z" fill="black"/>
<path d="M6.5127 25.6474C8.32788 24.3332 17.7224 19.3012 19.9835 18.5959C22.2444 17.8586 21.5438 16.9932 21.5438 16.9932C21.5438 16.9932 12.3722 20.9676 6.89481 24.3973" fill="black"/>
<path opacity="0.4" d="M33.2634 16.3844C32.5309 16.0959 31.9577 16.9614 32.1488 17.7948C32.34 18.6281 34.0596 19.5575 33.964 22.6026C33.9003 25.1027 33.3589 26.1283 33.3589 26.1283L32.1488 24.5899C32.1488 24.5899 31.9577 21.1281 31.5437 20.6153C31.1299 20.1025 29.8241 19.1729 29.3145 18.6922C28.805 18.2113 29.8877 17.5704 29.8241 16.6728C29.7604 15.8075 30.3655 14.0767 30.3655 14.0767L33.2634 16.3844Z" fill="black"/>
<path opacity="0.4" d="M37.6897 30.0386C37.6261 32.4424 38.1675 36.0003 38.3903 37.6992C38.6133 39.3979 38.8999 39.5261 38.3903 40.2955C37.8808 41.0327 37.2121 42.2507 37.2121 42.2507L35.0146 42.0582C35.0146 42.0582 36.7662 39.8146 36.8616 39.3979C36.9571 38.9814 35.9699 35.8082 35.9699 35.8082L37.6897 30.0386Z" fill="black"/>
<path opacity="0.4" d="M33.4541 7.60208C33.9 8.59549 34.4413 9.04429 35.301 9.33288C35.8106 9.52518 37.8168 9.78168 38.6131 8.88409C38.9633 8.4674 38.7403 7.34558 38.7403 7.34558L36.9251 8.81989L34.473 8.37126L34.1864 7.63402L33.4541 7.60208Z" fill="black"/>
<path d="M33.6453 9.8136C34.4733 10.3585 36.5434 10.8714 37.1165 10.9675C37.6897 11.0956 38.6132 10.3585 39.0591 10.1662C39.5369 9.94185 40.3649 9.8136 41.3202 10.6791C41.4157 10.7752 41.0973 11.1919 41.0973 11.1919C41.0654 11.1598 40.8743 11.1598 40.6195 11.0316C40.3648 10.9035 40.1418 10.8072 39.7597 10.8393C38.1673 11.0316 37.9126 11.5765 36.5115 11.2558C35.1103 10.9351 34.7599 10.6789 33.3906 10.743" fill="#88CE02"/>
<path d="M33.6453 9.8136C34.4733 10.3585 36.5434 10.8714 37.1165 10.9675C37.6897 11.0956 38.6132 10.3585 39.0591 10.1662C39.5369 9.94185 40.3649 9.8136 41.3202 10.6791C41.4157 10.7752 41.0973 11.1919 41.0973 11.1919C41.0654 11.1598 40.8743 11.1598 40.6195 11.0316C40.3648 10.9035 40.1418 10.8072 39.7597 10.8393C38.1673 11.0316 37.9126 11.5765 36.5115 11.2558C35.1103 10.9351 34.7599 10.6789 33.3906 10.743" stroke="black" stroke-width="0.3" stroke-miterlimit="10" stroke-linejoin="round"/>
<path d="M33.3582 9.90979C34.4092 10.3586 36.4473 10.8393 37.0205 10.9676C37.5937 11.0958 38.5172 10.5188 38.9631 10.2303C39.7594 9.7175 40.7783 10.1342 41.2561 10.6791C41.5744 11.0316 41.702 11.256 41.702 11.3522C41.702 11.4802 41.3199 11.3522 41.3199 11.3522C41.0969 11.256 40.8421 11.2241 40.6512 11.0957C40.3963 10.9676 40.1415 10.7753 39.7595 10.8072C38.1671 10.9997 37.8487 11.5445 36.4794 11.2239C35.1101 10.9034 34.7597 10.6149 33.2949 10.7109" fill="#88CE02"/>
<path d="M28.4222 39.8464C28.3585 39.7824 28.4858 39.7183 28.4222 39.7183C28.0083 39.7183 27.435 39.3978 27.1164 38.949C25.7471 36.9619 23.7407 35.6477 20.1103 35.7439C14.6646 35.872 12.4991 33.6285 12.0852 29.3335C11.8623 26.9937 11.2253 24.718 9.91965 23.4358L9.15527 23.9167C10.6201 25.1987 11.0979 27.2821 11.4164 30.1348C11.9259 34.4298 15.3652 36.4171 19.3778 36.4811C23.5496 36.5452 25.0463 37.4106 26.6067 39.5262C27.1162 40.1992 27.6895 40.4236 28.1353 40.5198L28.4222 39.8464Z" fill="black"/>
<path opacity="0.4" d="M43.1984 19.2371C43.294 19.7178 43.5486 20.6473 44.0582 21.096C44.2813 21.3204 44.313 21.3844 44.122 21.3844C43.9307 21.3844 42.5296 21.3204 42.5296 21.3204L42.1475 20.6473L43.1984 19.2371Z" fill="black"/>
</svg>
