<svg width="113" height="43" viewBox="0 0 113 43" fill="none" xmlns="http://www.w3.org/2000/svg">
<path d="M40.8118 11.9834C42.4229 11.9834 43.919 12.5666 43.919 13.0138C43.919 13.286 43.5738 13.9664 43.3627 13.9664C43.1901 13.9664 42.4037 13.2471 40.8309 13.2471C37.9538 13.2471 37.014 14.9386 37.014 17.8161C37.014 20.3437 37.762 22.4824 40.6583 22.4824C41.5022 22.4824 42.327 22.3852 42.749 22.2686V18.9439H40.8501C40.6199 18.9439 40.524 18.7883 40.524 18.4578V18.1855C40.524 17.8356 40.6199 17.6995 40.8501 17.6995H43.708C44.0533 17.6995 44.1875 17.855 44.1875 18.1855V22.5602C44.1875 23.4934 42.423 23.7462 40.5624 23.7462C37.3209 23.7462 35.5371 21.8991 35.5371 17.9717C35.5371 13.8499 37.4168 11.9834 40.8118 11.9834Z" fill="white"/>
<path d="M45.8754 17.5246C45.8754 16.1635 45.6836 15.522 45.6836 15.4442C45.6836 15.1331 46.3549 15.0554 46.5658 15.0554C46.9495 15.0554 47.0454 15.7164 47.1412 16.1441C47.6974 15.3469 48.3496 14.8998 49.021 14.8998C49.6539 14.8998 49.9607 15.172 49.9607 15.5414C49.9607 15.8525 49.8265 16.4358 49.6346 16.4358C49.4237 16.4358 49.2894 16.2608 48.7332 16.2608C47.8893 16.2608 47.2371 17.2718 47.2371 17.2718V23.3186C47.2371 23.5519 47.0453 23.688 46.585 23.688H46.5274C46.067 23.688 45.8753 23.5519 45.8753 23.3186V17.5246H45.8754Z" fill="white"/>
<path d="M54.4106 14.8998C56.6355 14.8998 57.7672 16.3969 57.7672 19.1967C57.7672 19.3911 57.4219 19.8772 57.2301 19.8772H52.0897C52.224 21.7047 52.9912 22.5408 54.6024 22.5408C56.0218 22.5408 56.8083 21.8409 56.9809 21.8409C57.211 21.8409 57.5562 22.4825 57.5562 22.6576C57.5562 23.0463 56.2711 23.7075 54.6216 23.7075C51.9171 23.7075 50.632 22.3075 50.632 19.3523C50.6128 16.4552 51.9171 14.8998 54.4106 14.8998ZM56.3094 18.7106C56.3094 16.9802 55.6573 16.1053 54.353 16.1053C52.9337 16.1053 52.1856 16.9802 52.0705 18.7106H56.3094Z" fill="white"/>
<path d="M62.8498 14.8998C65.0747 14.8998 66.2064 16.3969 66.2064 19.1967C66.2064 19.3911 65.8612 19.8772 65.6694 19.8772H60.529C60.6633 21.7047 61.4304 22.5408 63.0417 22.5408C64.461 22.5408 65.2475 21.8409 65.4201 21.8409C65.6502 21.8409 65.9955 22.4825 65.9955 22.6576C65.9955 23.0463 64.7105 23.7075 63.0608 23.7075C60.3564 23.7075 59.0713 22.3075 59.0713 19.3523C59.0712 16.4552 60.3564 14.8998 62.8498 14.8998ZM64.7678 18.7106C64.7678 16.9802 64.1157 16.1053 62.8115 16.1053C61.3921 16.1053 60.6441 16.9802 60.529 18.7106H64.7678Z" fill="white"/>
<path d="M67.684 17.5246C67.684 16.1635 67.4922 15.522 67.4922 15.4442C67.4922 15.1331 68.1635 15.0554 68.3745 15.0554C68.7581 15.0554 68.854 15.7164 68.9499 16.1441C69.6403 15.3665 70.5802 14.8998 71.4817 14.8998C73.1505 14.8998 74.1286 15.9108 74.1286 17.5634V23.2796C74.1286 23.5129 73.9368 23.649 73.4764 23.649H73.4189C72.9586 23.649 72.7667 23.5129 72.7667 23.2796V17.6801C72.7667 16.669 72.1722 16.0858 71.098 16.0858C70.3692 16.0858 69.5828 16.533 69.0457 17.233V23.2797C69.0457 23.513 68.8539 23.6491 68.3935 23.6491H68.336C67.8756 23.6491 67.6838 23.513 67.6838 23.2797L67.684 17.5246Z" fill="white"/>
<path d="M77.0433 20.8493C77.331 20.8493 78.1365 21.6076 79.4409 21.6076C80.1313 21.6076 80.9753 21.3937 80.9753 20.4021C80.9753 18.4578 76.276 19.2161 76.276 15.3275C76.276 12.8972 78.2324 11.9445 80.1313 11.9445C81.8576 11.9445 83.0659 12.5471 83.0659 13.0916C83.0659 13.5389 82.5672 14.5304 82.1645 14.5304C81.9535 14.5304 81.4548 14.1221 80.3616 14.1221C79.0957 14.1221 78.8463 14.7248 78.8463 15.0943C78.8463 16.9803 83.5454 16.2219 83.5454 20.0912C83.5454 22.8326 81.6466 23.7464 79.8628 23.7464C77.3886 23.7464 76.0459 22.852 76.0459 22.2883C76.0459 21.802 76.698 20.8493 77.0433 20.8493Z" fill="#88CE02"/>
<path d="M88.4561 14.8803C91.0455 14.8803 92.3881 16.4552 92.3881 19.3133C92.3881 22.1909 91.0455 23.7657 88.4561 23.7657C85.8667 23.7657 84.5049 22.1909 84.5049 19.3133C84.5049 16.4357 85.8667 14.8803 88.4561 14.8803ZM89.9522 19.3133C89.9522 17.6607 89.4919 16.8052 88.4561 16.8052C87.4204 16.8052 86.9408 17.6607 86.9408 19.3133C86.9408 20.9659 87.4204 21.8409 88.4561 21.8409C89.4919 21.8409 89.9522 20.966 89.9522 19.3133Z" fill="#88CE02"/>
<path d="M97.6247 14.8803C98.7755 14.8803 100.329 15.2692 100.329 16.0275C100.329 16.3387 99.7346 17.2913 99.4661 17.2913C99.4085 17.2913 99.3127 17.233 99.1784 17.1746C98.8906 17.0191 98.4495 16.8052 97.759 16.8052C96.4547 16.8052 95.9177 17.6219 95.9177 19.3133C95.9177 21.0048 96.4163 21.8409 97.6631 21.8409C98.4302 21.8409 98.9481 21.6077 99.255 21.4521C99.3893 21.3937 99.4852 21.3548 99.5427 21.3548C99.9072 21.3548 100.387 22.2881 100.387 22.5991C100.387 23.5323 98.0659 23.7463 97.548 23.7463C94.7669 23.7463 93.4434 22.3075 93.4434 19.3523C93.4434 16.4357 94.7092 14.8803 97.6247 14.8803Z" fill="#88CE02"/>
<path d="M101.557 11.7306C101.557 11.3807 101.845 11.2057 102.535 11.2057H102.995C103.686 11.2057 103.974 11.3807 103.974 11.7306V18.2634L104.031 18.2828L106.007 15.2887C106.198 15.0164 106.524 14.9775 107.004 14.9775H107.599C108.212 14.9775 108.519 15.0747 108.519 15.2302C108.519 15.3079 108.462 15.4247 108.366 15.5608L106.102 18.8272L108.749 23.0851C108.826 23.2407 108.884 23.3379 108.884 23.4351C108.884 23.5906 108.596 23.6878 107.963 23.6878H107.272C106.793 23.6878 106.448 23.6295 106.294 23.3767L104.031 19.5854L103.973 19.6047V23.1628C103.973 23.5127 103.686 23.6877 102.995 23.6877H102.535C101.844 23.6877 101.557 23.5127 101.557 23.1628L101.557 11.7306Z" fill="#88CE02"/>
<path d="M5.50017 19.1773C4.52188 19.6438 1.93258 21.7437 1.43387 22.3659C0.915952 22.988 0.762554 22.0159 1.29959 20.4022C1.72145 19.0995 2.79571 17.3302 4.59862 15.8137C5.65348 14.9387 7.9744 13.675 9.39368 12.9361C9.68146 12.7805 13.4025 11.1862 16.7207 10.3891C17.0085 10.3113 16.3755 10.8751 16.2795 11.1862C15.7808 12.6639 5.82608 19.0022 5.82608 19.0022L5.50017 19.1773Z" fill="black"/>
<path d="M19.5211 37.0063C19.6937 38.0562 19.5403 38.134 18.4662 38.2701C17.3921 38.4062 16.6057 37.9979 16.318 37.7257C16.0302 37.4534 15.9728 36.8508 16.2605 36.3064C16.4332 35.9564 16.6058 35.8398 16.7017 35.412C16.7976 35.0038 16.8743 34.9065 16.951 34.751C17.0276 34.6148 17.0469 34.4787 17.0661 33.526C17.0853 32.5734 17.0661 30.7846 17.162 30.0264C17.258 29.2487 20.5762 30.3763 20.5762 30.3763C20.5762 30.3763 19.7897 32.3595 19.5788 32.8455C19.3678 33.3317 19.387 34.2649 19.387 34.4593C19.387 34.6537 19.3103 35.0425 19.2527 35.062C19.1952 35.0814 19.4445 35.5869 19.3293 35.8786C19.2526 36.1508 19.502 36.8508 19.5211 37.0063Z" fill="black"/>
<path d="M20.787 7.27822C20.6719 6.5394 20.787 5.08105 20.9404 4.84785C21.42 4.18674 23.9518 4.10904 24.4889 4.8867C24.719 5.23664 24.6998 6.05325 24.6615 6.57825C24.6232 7.10316 24.4889 8.23086 24.4697 8.60037C24.4506 8.8726 21.6694 9.30024 21.0556 8.56142C20.8829 8.36707 20.787 7.27822 20.787 7.27822Z" fill="black"/>
<path d="M26.4261 35.1203C27.5961 35.9759 28.4976 36.1314 29.0922 36.4425C29.6867 36.7536 29.5333 37.3563 28.5359 37.5313C27.7303 37.6868 26.4645 37.3757 25.6205 37.3757C24.7766 37.3757 22.8969 37.473 22.3981 37.123C21.8228 36.7148 22.0721 35.9564 22.0721 35.9564C22.2255 35.5288 22.6091 34.5759 22.494 33.7983C22.3789 33.0206 22.2254 32.5929 21.9378 31.8734C21.6501 31.1541 21.4392 29.3848 21.7077 29.2876C21.9763 29.1903 21.8994 29.2876 22.2448 29.3653C22.59 29.443 22.9736 29.5597 23.7217 29.5597C24.4697 29.5597 25.2944 29.443 25.5822 29.3847C25.8699 29.3264 26.1 29.268 26.0041 29.8708C25.9082 30.4735 25.6205 31.6012 25.6013 32.4761C25.5822 33.3511 25.5822 34.3621 25.6397 34.5371C25.6972 34.7121 26.1192 34.9065 26.4261 35.1203Z" fill="black"/>
<path d="M22.3214 9.22253C20.2116 11.0697 16.1261 11.5751 10.0651 13.9471C8.51146 14.5498 4.36851 16.358 3.37109 18.244C6.72766 16.2803 7.97443 18.9828 8.2429 21.7632C8.49216 24.3685 9.77735 25.7296 13.0764 25.6517C16.4714 25.574 17.5071 27.5765 18.4469 29.9292C20.269 20.9271 23.1845 19.1773 25.0641 17.6413C29.0537 14.3554 24.1435 8.56141 22.3214 9.22253Z" fill="#88CE02"/>
<path d="M22.3212 9.22253C17.2576 11.0113 12.2514 11.4585 6.36303 15.1332C4.96287 16.0081 2.00905 17.9912 1.43359 21.7826C3.58172 19.3716 8.54949 16.3387 14.6297 14.4138C17.6986 13.4416 19.9428 12.8001 22.6664 11.7307C22.4747 10.4863 22.4747 10.0002 22.3212 9.22253Z" fill="#88CE02"/>
<path d="M28.7849 19.8772C28.7849 19.8772 28.4205 21.141 27.6916 21.5493C27.6916 21.5493 27.1546 21.7438 26.0805 21.1411C25.7737 20.9661 25.5435 20.3634 25.5626 20.1689C25.5818 19.7022 25.8695 19.4884 25.8695 19.4884C25.8695 19.4884 26.1765 18.9634 26.5408 18.9829C26.9054 19.0022 27.5191 19.0606 27.711 18.8856C27.8835 18.6912 28.8233 19.2355 28.7849 19.8772Z" fill="black"/>
<path d="M20.959 7.64763C20.959 7.64763 20.8824 8.63931 20.7481 9.26138C20.7289 9.37812 20.1535 9.43635 19.7314 9.61141C20.537 11.9445 25.3897 11.925 26.0227 10.778C25.7158 10.5641 25.1021 10.2336 24.8144 10.1169C24.5266 10.0002 24.5458 10.0197 24.5266 9.4753C24.5075 8.93082 24.4691 7.91986 24.4306 7.64763C24.3923 7.37539 21.4193 7.37539 20.959 7.64763Z" fill="black"/>
<path d="M21.1512 7.64762C21.1512 7.64762 21.1512 8.21147 21.0937 8.75585C21.0745 9.00861 21.0553 9.16411 21.017 9.35855C20.9978 9.47529 21.6691 9.94178 21.8609 10.9723C22.7816 13.0526 24.9107 12.0222 25.793 11.0306C25.4861 10.8167 24.9874 10.5251 24.412 10.2918C24.1242 10.1751 24.2585 9.9224 24.2394 9.37802C24.2202 8.83365 24.1434 8.03641 24.1051 7.74479C24.0666 7.45318 21.6116 7.37539 21.1512 7.64762Z" fill="#EFEFEF"/>
<path d="M20.9595 7.64763C20.9595 7.64763 20.9403 7.99766 20.8828 8.40592C21.1321 8.65859 21.4582 9.00862 21.7076 9.22253C21.8802 9.37813 22.3021 9.35865 22.6858 9.35865C23.031 9.35865 23.3379 9.3975 23.4722 9.3198C23.7792 9.16421 24.2203 8.77542 24.4696 8.48371C24.4505 8.13378 24.4313 7.80322 24.4122 7.64763C24.3928 7.37539 21.4198 7.37539 20.9595 7.64763Z" fill="black"/>
<path d="M22.7051 9.12526C22.4748 9.12526 22.2063 9.10589 21.9953 9.06694C21.8994 9.04756 21.8035 8.98924 21.7268 8.95029C21.5925 8.85303 21.4582 8.73648 21.3049 8.61974C20.9979 8.38645 20.9788 8.25033 20.9788 8.1921C21.1131 6.96713 20.9404 5.9367 20.9404 5.9367C20.9404 5.9367 20.8061 5.4117 21.535 5.27558C22.2638 5.13946 22.705 5.12009 22.705 5.12009C22.705 5.12009 23.1654 5.12009 23.875 5.27558C24.6039 5.4117 24.4696 5.9367 24.4696 5.9367C24.4696 5.9367 24.297 6.96713 24.4313 8.1921C24.4313 8.25033 24.4121 8.38645 24.1052 8.61974C23.8366 8.81418 23.6257 9.028 23.4147 9.06694C23.2037 9.10589 22.9351 9.12526 22.7051 9.12526Z" fill="black"/>
<path d="M22.7051 4.61456C21.4392 4.61456 21.1898 4.9645 20.8254 5.35338C20.7487 5.45055 20.8061 6.03388 20.9405 7.27822H21.1131C21.1131 7.27822 20.998 6.92819 21.0172 6.51993C21.0364 6.11167 21.1131 6.13115 21.0555 6.03388C20.9788 5.91714 20.8254 5.72269 21.1707 5.52835C21.5159 5.33391 22.0529 5.68385 22.7051 5.70332C23.3572 5.68385 23.9135 5.33391 24.2587 5.52835C24.6039 5.72269 24.4505 5.91714 24.3738 6.03388C24.2971 6.15052 24.3929 6.11158 24.4122 6.51993C24.4313 6.92819 24.3162 7.27822 24.3162 7.27822H24.4888C24.6039 6.03388 24.6806 5.4895 24.6231 5.39223C24.297 4.9645 23.971 4.63394 22.7051 4.61456Z" fill="black"/>
<path d="M28.7854 19.9355C28.7854 19.9355 28.421 21.1215 27.7113 21.5298C27.5578 21.4521 27.5771 21.3354 27.4428 21.1604C27.4044 21.1021 27.2701 21.0631 27.2126 21.0049C27.1551 20.9465 27.1743 20.8493 27.0783 20.7716C27.0016 20.6938 26.9441 20.7521 26.8673 20.6938C26.7907 20.6161 26.7714 20.5188 26.7139 20.4606C26.6755 20.4216 26.5221 20.4023 26.4838 20.3633C26.3878 20.266 25.544 20.0911 25.5823 19.8966C25.659 19.6049 25.8125 19.3911 25.8125 19.3911C25.8125 19.3911 26.1769 18.8467 26.5412 18.8661C26.9056 18.8856 27.251 18.9634 27.4428 18.7884C27.6538 18.5939 28.843 19.3133 28.7854 19.9355Z" fill="black"/>
<path d="M26.2915 11.3418C26.2915 11.3418 27.4998 11.0501 28.3247 11.8473C29.1495 12.664 29.0918 13.6749 28.8426 14.2971C29.0535 14.5499 29.4371 15.2497 29.1495 16.0858C30.4153 17.1746 29.8591 18.8467 28.7275 19.955C28.7275 19.955 28.4589 18.9439 27.3849 18.8856C27.4232 18.4968 26.3875 18.1856 26.867 17.1746C26.1381 16.9996 26.1573 16.4941 26.0422 15.872C25.9463 15.2497 26.2915 11.3418 26.2915 11.3418Z" fill="black"/>
<path d="M25.8505 11.8862C25.8505 11.8862 27.2506 11.1669 28.0754 11.9835C28.9001 12.8001 28.6699 13.6944 28.4206 14.3166C28.6316 14.5692 29.1303 15.2888 28.8234 16.1441C28.7659 16.3386 28.3439 16.3386 28.0369 16.8441C28.8041 16.3968 29.2837 16.5136 29.4563 17.0773C29.7249 17.9522 29.1302 19.0021 28.6124 19.5855C28.6124 19.566 28.5932 19.5465 28.5932 19.5271C28.5165 19.8189 28.4206 20.3826 27.8452 21.0048C27.5574 21.3159 27.3273 21.277 27.0012 21.1992C26.6176 21.102 26.4834 20.9269 25.9463 20.6354C25.6394 20.4604 25.812 20.2465 25.812 20.0715C25.812 20.0327 25.8504 19.9743 25.908 19.8966C25.9463 19.7993 26.0614 19.6439 26.234 19.4688C26.234 19.4688 26.4834 19.1189 26.8479 19.1383C27.2123 19.1577 27.5958 19.08 27.6918 18.9828C27.6918 18.3023 26.9246 18.2828 27.1931 17.1163C27.2123 17.0579 27.3083 16.9607 27.6151 16.9218C27.1547 16.8245 26.9437 16.8051 26.6176 16.4941C26.3875 16.2803 26.2149 16.008 26.1573 15.6581C26.0423 15.0554 25.8505 11.8862 25.8505 11.8862Z" fill="#EFEFEF"/>
<path d="M21.8034 10.6613C21.6884 10.5057 21.0938 9.72806 19.9621 9.41698C19.636 9.31971 19.4251 9.59194 19.0991 9.78638C19.0031 9.72806 18.5811 9.53362 18.351 9.66964C18.1209 9.80567 17.9675 9.94188 17.7372 10.0391C17.6221 9.98073 17.3153 9.98073 17.0659 10.0779C16.8166 10.1557 16.4329 10.3307 16.0685 10.8362C15.8384 11.6723 20.1347 11.05 20.1347 11.05L21.8034 10.6613Z" fill="black"/>
<path d="M21.8414 10.6613C21.2275 10.4474 21.3235 9.72806 19.9616 9.61141C19.6931 9.59194 19.5205 9.80576 19.3286 9.94188C19.4246 10.0391 19.5205 10.1946 19.578 10.3501C19.4054 10.1558 19.0985 9.90293 18.7915 9.84461C18.5038 9.78638 18.312 10.0002 18.0051 10.1558C18.0626 10.214 18.1202 10.3113 18.1968 10.428C17.9283 10.2531 17.7366 10.1947 17.3721 10.3308C17.1228 10.4085 16.6433 10.6224 16.2789 11.1474C16.0487 11.9835 20.1533 11.0501 20.1533 11.0501L21.8414 10.6613Z" fill="#88CE02"/>
<path d="M25.4473 10.9724C25.4473 10.9724 25.4473 10.7585 25.4281 10.5641C25.4281 10.5253 25.2747 10.428 25.2747 10.3892L25.2363 10.3502C25.2363 10.3502 25.5432 10.1753 25.7734 10.2725C26.0226 10.3502 26.1569 10.6808 26.1569 10.6808C26.5981 10.5253 26.6364 10.7003 26.8474 10.9336C27.3078 10.8363 27.3652 11.0113 27.653 11.4391C27.653 11.4391 27.3078 11.3808 26.6365 11.4973C25.9843 11.5945 25.4473 10.9529 25.4473 10.9724Z" fill="black"/>
<path d="M25.3705 10.8751C25.3705 10.8751 25.4856 10.7779 25.4472 10.7584C25.6581 10.6418 25.9459 10.5057 26.0802 10.8751C26.5214 10.7196 26.5789 10.9335 26.7898 11.1669C27.3269 10.9141 27.3652 11.2251 27.4036 11.3612C27.231 11.3612 26.9817 11.3807 26.6364 11.4195C25.9843 11.5168 25.3513 10.8557 25.3705 10.8751Z" fill="#88CE02"/>
<path d="M18.8497 10.3891C18.8497 10.3891 19.9429 10.7779 20.8636 10.7196C21.7843 10.6419 23.357 10.5641 24.201 11.0696C24.201 11.0696 25.0641 10.7584 25.8697 10.9723C26.6754 11.1861 28.1522 12.5861 27.7111 14.0637C27.6727 14.161 27.4234 14.3165 27.1357 14.4137C27.1357 14.4137 27.2892 15.0748 27.0206 15.6192C26.752 16.1442 26.1575 17.1552 26.1383 18.555C26.1191 18.7883 26.0808 19.2744 26.0424 19.5077C24.5463 19.4495 22.2447 18.8855 19.9814 18.9245C20.0005 18.6718 20.0197 18.5162 20.0389 18.2634H20.0963C19.9813 17.6218 19.9429 17.2912 19.8278 16.8052C19.0989 16.3386 18.3317 15.7942 17.6796 14.7637C17.0467 13.7332 18.8497 10.3891 18.8497 10.3891Z" fill="black"/>
<path d="M26.253 20.8882C26.253 20.8882 27.4423 25.2046 26.0421 27.0128C26.0421 27.0128 26.253 27.8488 25.7735 28.7432C25.6968 29.132 25.6008 29.482 25.5434 29.8708C25.2941 31.4845 24.872 32.165 24.7569 34.7509L23.606 34.7315C23.606 34.7315 23.4717 32.865 23.069 31.8734C22.8389 31.3097 21.9373 30.5513 21.9758 29.7931C22.0141 29.2098 22.1292 28.7237 23.1075 27.9459C23.1842 26.8183 22.0717 25.7489 22.2444 21.5492L26.253 20.8882Z" fill="black"/>
<path d="M25.9083 20.7132C26.2151 22.6963 26.9248 25.6322 25.6397 27.0709C25.6971 27.3432 25.7356 27.732 25.6588 28.1791C25.6205 28.4124 25.5437 28.6652 25.4479 28.9373C25.2561 29.404 25.1793 30.0845 25.1218 30.4928C24.8724 32.1065 24.8724 32.1844 24.7574 34.7703L23.6064 34.7508C23.6064 34.7508 23.4722 32.8843 23.0694 31.8928C22.8394 31.329 22.3598 30.8429 22.3214 30.0846C22.2831 29.5014 22.6859 28.3348 23.645 28.3737C23.5874 26.0211 22.5133 26.4877 22.2256 21.5881L25.9083 20.7132Z" fill="#EFEFEF"/>
<path d="M18.8492 10.3891C18.8492 10.3891 19.2711 10.5252 19.7314 10.5641C20.1918 10.6029 20.6905 10.5641 21.1316 10.5446C22.0522 10.4669 23.3565 10.3696 24.2197 10.8752C24.2197 10.8752 24.6992 10.7196 25.2171 10.7584C25.4472 10.7779 25.6775 10.9723 25.9459 11.0501C26.7899 11.2639 27.5955 12.6833 27.2309 13.9665C27.1926 14.0638 26.9241 13.9665 26.6172 14.0638C26.6746 14.336 26.7131 14.9582 26.4061 15.6192C26.0801 16.2804 25.6582 17.1358 25.7348 18.7691C23.7209 18.6718 22.8194 18.5358 20.8246 18.4385C20.652 17.7191 20.5368 16.9997 20.5177 16.6303C20.7863 16.4942 20.9396 16.3776 21.1507 16.1442C20.5753 16.2415 20.3451 16.2026 19.9998 16.0081C19.6546 15.8137 19.0408 15.1915 18.7339 14.7833C18.6956 14.7443 18.4846 15.3859 18.0051 15.4054C17.8324 15.1527 18.5613 14.4332 18.427 14.1611C17.9476 13.1694 18.8492 10.3891 18.8492 10.3891Z" fill="#EFEFEF"/>
<path d="M26.0612 19.0994C26.0612 19.0994 26.0995 19.7994 26.0995 19.9743C26.0995 20.1688 26.253 20.752 26.2721 21.0242C26.0612 21.3937 25.1405 22.2297 23.4718 22.5408C21.8223 22.8908 19.6357 20.266 19.6357 20.266C19.6933 20.0133 19.8851 19.2744 20.0194 18.8856C20.0386 18.8467 20.0769 18.7495 20.0769 18.7106C20.2496 18.4579 26.0612 19.0994 26.0612 19.0994Z" fill="black"/>
<path d="M25.6396 19.1578C25.6396 19.6439 25.7162 19.9939 25.7739 20.305C25.8697 20.8689 26.0231 21.2383 26.0231 21.6077C26.0231 22.7353 24.5654 22.5408 23.3378 22.5798C21.6882 22.9298 20.2881 20.305 20.2881 20.305C20.4032 19.8578 20.4799 19.3524 20.6525 18.9245C20.6716 18.6912 20.71 18.3996 20.7292 18.2635C23.0692 18.2635 24.7187 18.3996 25.6778 18.4967C25.7162 18.7106 25.6779 19.08 25.6396 19.1578Z" fill="#EFEFEF"/>
<path d="M23.7981 21.6659C23.7981 21.6659 22.7816 19.3717 19.7318 20.0522C19.003 22.1326 18.0247 24.5241 18.6577 27.11C18.0247 27.9849 17.2959 28.471 17.2959 30.0847C17.2959 31.6985 17.3726 31.9707 17.3726 31.9707L19.6167 32.0874C19.6167 32.0874 20.3456 31.1348 20.6333 30.1043C20.71 29.8126 20.7868 29.2877 20.7292 28.685C20.8059 28.5683 21.132 28.2962 21.1704 27.7712C21.1704 27.7712 22.2637 27.1879 22.8966 25.7686C23.4913 24.4852 23.3378 23.3769 23.7981 21.6659Z" fill="black"/>
<path d="M23.7984 21.6659C23.741 21.4521 22.9737 19.3523 20.135 19.9743C18.4663 24.4851 19.0801 26.3517 19.3294 27.1682C18.1977 28.6263 17.6799 28.9374 17.9101 31.8928H19.4062C20.0966 30.7846 20.2501 30.3762 20.2885 28.9181C20.2885 28.8597 20.0775 29.0347 19.924 29.2291C20.0392 28.6264 20.3652 28.5098 20.6146 28.1404C20.7296 27.9848 20.8255 27.7515 20.8255 27.4404C22.1681 26.5266 22.6668 25.3795 22.9545 24.1934C23.1847 23.3769 23.4532 22.0353 23.7984 21.6659Z" fill="#EFEFEF"/>
<path d="M19.0606 18.5356C19.0606 18.5356 19.5785 18.555 20.0389 18.7106C20.48 18.8661 20.48 18.9633 20.6526 19.1578C20.8252 19.3524 21.2472 19.6439 21.1706 19.9355C21.1321 20.0911 21.0363 20.1299 20.902 20.266C20.8445 20.3244 20.4224 20.7909 20.3265 20.8493C20.269 20.8881 20.1923 20.9465 20.1347 20.9854C20.0773 21.0242 19.9047 21.141 19.847 21.1798C19.6552 21.2771 19.5209 21.3354 19.31 21.316C19.31 21.316 18.8305 21.2965 18.5235 20.966C18.5235 20.966 18.4852 20.8104 18.562 20.7327C18.562 20.7327 18.1591 20.3827 18.044 20.1494C17.9289 19.9162 17.9289 19.5856 18.0057 19.4107C18.044 19.2355 18.792 18.7495 19.0606 18.5356Z" fill="black"/>
<path d="M19.5401 37.4535L19.4825 37.9397C19.4825 37.9397 19.3099 38.1535 18.0248 38.1341C16.7205 38.1146 16.3753 37.7064 16.2602 37.4925L16.1836 36.9869C16.1836 36.9869 16.4329 36.6175 16.4905 36.6175C16.9124 36.6564 18.351 37.2397 19.3484 37.3952C19.4441 37.3952 19.4632 37.434 19.5401 37.4535Z" fill="black"/>
<path d="M22.321 36.4619C22.321 36.6757 22.3018 36.6757 22.3018 36.8897C22.5319 37.0646 23.1074 37.1619 24.2006 37.1423C25.7926 37.1035 27.2695 37.6285 29.0724 37.3173L29.0916 36.9674L28.919 36.948L22.5319 36.423L22.321 36.4619Z" fill="black"/>
<path d="M23.7212 37.1424C23.8747 37.1424 24.0281 37.1424 24.2007 37.1424C25.2365 37.1036 26.2147 37.3369 27.2696 37.3952C27.8258 37.3757 28.5164 37.2396 28.4588 36.8313L23.0116 36.3647C22.6855 36.7341 22.9347 37.0451 23.7212 37.1424Z" fill="black"/>
<path d="M17.4685 28.957C17.6411 29.0736 18.8111 29.7736 20.71 29.6763C20.6716 30.0458 20.6908 30.7652 19.8469 32.0289C19.4249 32.6511 19.0604 33.7399 18.9837 35.1204C19.0029 35.4315 19.1756 35.7036 18.9454 36.112C19.0221 36.3647 19.329 36.8702 19.4824 37.1813C19.6358 37.4925 19.7126 37.8424 18.696 37.8619C17.6602 37.8812 15.9915 37.7646 16.2217 36.9481C16.3369 36.5203 16.6629 36.0731 16.7013 35.8981C16.7396 35.7231 16.7396 35.1982 17.0657 34.8482C17.3534 33.8761 17.2575 32.9428 17.2 32.0679C17.1041 31.154 17.0849 29.6958 17.4685 28.957Z" fill="black"/>
<path d="M19.2526 13.1111C20.6145 11.2639 19.4635 9.78637 17.2771 10.2335C16.3948 10.4084 15.5125 11.0307 15.4549 12.1583C15.1672 12.1972 14.5151 12.236 14.189 13.4415C13.9397 14.3748 13.8054 14.5497 13.3642 15.0163C13.0765 15.3469 13.3834 16.0274 13.5943 16.5135C14.3041 18.1856 16.4906 18.3411 17.9675 19.6049C18.4662 19.4688 18.9841 18.905 19.1375 18.5356C17.8908 17.0384 18.1592 16.4552 17.6605 15.6775C18.1977 15.483 19.4252 14.7248 19.2526 13.1111Z" fill="black"/>
<path d="M18.9837 12.9944C19.0603 12.8777 19.1946 12.625 19.2522 12.5277C19.2715 12.5083 19.4824 12.8777 19.5016 12.8583C20.0194 12.0027 20.1537 10.7584 19.559 10.6417C19.4248 10.6223 19.1755 10.564 18.9645 10.4862C18.5809 10.35 18.2357 10.35 17.6218 10.4668C16.7779 10.6223 15.934 11.2444 15.934 12.1389C15.934 12.1972 16.5285 12.3721 16.7012 13.0916C16.4134 12.6832 15.9147 12.236 15.3201 12.6249C14.6871 13.0332 15.0132 13.9664 14.1693 14.9385C13.8815 15.2691 13.92 15.658 14.2268 16.4356C14.7255 17.6606 17.0847 18.3216 18.3698 19.4882C18.6767 19.3521 18.8876 19.041 19.0411 18.8077C18.178 17.8939 17.8327 17.0383 17.5834 16.4162C17.2765 15.6968 16.9312 15.2886 16.2599 14.744C16.6052 14.8801 16.8738 15.0162 17.0271 15.1329C17.1997 15.2495 17.4491 15.269 17.6793 15.1912C18.5042 14.8998 18.9454 13.7331 18.9837 12.9944Z" fill="#EFEFEF"/>
<path d="M27.3277 13.3055C27.2702 14.0443 26.7331 13.6749 26.4454 13.5388C25.87 13.286 25.2945 13.1111 24.6232 13.1111C23.9519 13.1111 23.0888 13.1694 22.3408 13.3638C21.3051 13.6554 20.9981 13.6361 20.5378 13.4027C20.0775 13.1499 19.272 12.5277 19.272 12.5277C19.272 12.5277 19.2528 12.7222 19.4446 12.9749C19.6939 13.286 20.2502 13.6749 20.9982 13.9276C21.3626 14.0443 21.6504 13.9664 21.9765 13.8887C23.6835 13.461 25.4865 13.3832 27.0017 14.3165C27.0784 14.3553 27.347 14.2387 27.4621 14.0637C27.6154 13.811 27.3277 13.3055 27.3277 13.3055Z" fill="black"/>
<path d="M18.6006 20.7132C18.754 20.8104 18.9458 20.8688 19.1567 21.0437C19.1567 21.0437 18.9841 21.0437 18.9075 20.966C18.8115 20.9077 18.6197 20.7327 18.6006 20.7132Z" fill="#001423"/>
<path d="M24.1436 5.29505C24.0861 5.12008 23.664 4.8089 22.6859 4.8089C21.6309 4.8089 21.3241 5.13946 21.3049 5.31443C21.3049 5.37275 21.2282 5.99502 21.209 6.24769C21.209 6.24769 21.209 6.55877 21.2281 7.02535C21.2473 7.33644 21.3241 7.51141 21.3624 7.91976C21.4007 8.3474 21.5159 8.61963 21.7268 8.96967C21.8228 9.02789 21.8994 9.08631 21.9954 9.10578C22.379 9.18348 23.0503 9.20296 23.4147 9.10578C23.6257 9.04746 23.8942 8.67805 23.9518 8.34749C24.0284 7.93923 24.1052 7.64753 24.1244 7.39486C24.1627 7.14219 24.1819 6.57824 24.201 6.42265C24.2587 5.99502 24.1627 5.3339 24.1436 5.29505Z" fill="#EFEFEF"/>
<path d="M22.1297 29.3264C22.1297 29.3264 23.1463 29.7736 25.6589 29.3847C25.6589 29.3847 24.9493 33.0011 25.2754 34.8092C25.2754 34.8092 25.6014 35.2759 28.0182 36.1702C28.0182 36.1702 29.0923 36.4425 29.0539 36.9869C29.0539 36.9869 29.0923 37.1036 27.788 37.0646C26.4838 37.0257 25.2562 36.7924 24.3931 36.7924C23.5299 36.7924 22.6093 36.8312 22.4559 36.5786C22.2832 36.3453 22.4942 35.7425 22.7435 35.3925C23.0122 35.0231 22.9354 34.7508 22.9162 34.0899C22.8585 32.3595 21.5542 30.5708 22.1297 29.3264Z" fill="black"/>
<path d="M21.918 29.657C21.7837 29.8514 21.9371 30.5901 22.1289 31.3096C22.3207 32.0289 22.7428 32.4568 22.8386 33.6427C22.9345 34.8092 22.9537 34.9648 22.6276 35.6452C22.3015 36.3256 22.2057 36.9479 23.3373 36.9674C24.4689 36.9868 25.0827 36.9479 26.2335 37.123C27.3844 37.2979 27.7872 37.3563 28.4202 37.2591C29.0532 37.1619 29.1874 36.9479 28.9189 36.7535C28.6503 36.5591 27.5378 36.3453 27.0583 35.9563C26.598 35.6064 25.2938 35.0231 25.2746 34.8676C25.2171 34.3426 25.1979 32.4372 25.2938 31.815C25.3897 31.1927 25.5239 30.2984 25.5623 30.0651C25.6007 29.8319 25.7925 29.5985 25.4664 29.6763C25.1404 29.754 23.9128 29.929 22.9921 29.8707C22.0715 29.8125 21.9756 29.5986 21.918 29.657Z" fill="#88CE02"/>
<path opacity="0.3" d="M22.5705 35.6648C22.8965 35.8203 23.3761 35.937 23.7405 35.937C23.7405 35.937 23.6061 36.5787 23.8172 36.9675C24.0281 37.3563 22.2827 37.1231 22.2827 37.1231L22.2061 35.7426L22.5705 35.6648Z" fill="black"/>
<path opacity="0.3" d="M27.6538 37.3369C27.9607 37.2396 28.1718 36.8897 27.9224 36.5592C27.6538 36.2286 27.4237 36.1703 27.7689 36.1509C28.1142 36.1315 29.3801 36.9091 29.3801 36.9091L28.7279 37.5118L27.6538 37.3369Z" fill="black"/>
<path opacity="0.3" d="M21.8606 30.4152C22.3018 30.5708 22.9731 30.6096 23.5485 30.5902C24.1239 30.5708 24.987 30.4929 25.5434 30.2985C26.0995 30.1041 25.8694 30.5124 25.8694 30.5124L25.5625 30.8041C25.5625 30.8041 24.8336 31.0957 23.6445 31.0763C22.2443 31.0568 21.8223 30.9013 21.8223 30.9013L21.8606 30.4152Z" fill="black"/>
<path opacity="0.3" d="M21.8994 31.3874C22.3407 31.5429 23.0119 31.5818 23.5874 31.5623C24.1627 31.5429 24.93 31.5429 25.4862 31.329C25.7164 31.2513 25.5822 31.5818 25.5822 31.5818L25.4862 31.7568C25.4862 31.7568 24.7382 32.029 23.5681 32.0094C22.168 31.9901 21.9186 31.8733 21.9186 31.8733L21.8994 31.3874Z" fill="black"/>
<path d="M20.6328 17.758C20.6328 17.8941 22.1289 18.6523 22.9536 18.8079C23.7784 18.9634 25.5047 18.8079 25.7732 18.7496L25.7348 19.0218C25.7348 19.0218 23.6825 19.3329 22.1097 18.9052C20.5369 18.4774 20.7096 18.3802 20.7096 18.3802L20.6328 17.758Z" fill="black"/>
<path d="M17.4307 34.3426C17.6608 34.4594 18.4856 34.6732 19.0226 34.5565C19.0993 34.5371 19.0226 33.2149 19.2337 32.6122C19.5406 31.7761 20.0393 31.0956 20.2693 29.6181C19.4637 29.5403 18.5431 29.3264 18.0636 29.1708C17.4499 31.0763 17.6609 32.7094 17.4307 34.3426Z" fill="#EFEFEF"/>
<path d="M18.7157 35.5676C18.85 35.6064 18.9459 35.7619 18.9843 35.6649C19.0609 35.4898 18.85 35.1593 18.8308 34.926C18.8308 34.9066 18.8308 34.926 18.8308 34.9066C18.6582 34.7511 17.4882 34.7316 17.5649 34.8093C17.4306 35.0621 17.2197 35.0232 17.1431 35.5287C17.1047 35.7814 17.4116 35.5676 17.6992 35.5481C17.1814 35.898 16.5868 36.3453 16.4909 36.7341C16.3758 37.2785 16.5676 37.4341 17.1431 37.7258C17.6418 37.8425 18.2363 37.8619 18.6966 37.8425C19.2145 37.7452 19.3105 37.4925 19.157 37.1425C18.9267 36.6175 18.7733 35.937 18.7157 35.5676Z" fill="#EFEFEF"/>
<path d="M18.9265 10.3113C19.5595 10.6807 20.4418 10.5835 20.7678 10.564C20.8446 10.564 21.6119 10.4279 21.6502 10.4473C21.7268 10.4668 21.7268 10.5251 21.7268 10.5251C21.7268 10.5251 21.4392 10.6806 20.7871 10.7194C20.1733 10.7583 19.4444 10.7194 19.0417 10.5251C18.5621 10.3113 18.9265 10.3113 18.9265 10.3113Z" fill="black"/>
<path d="M25.4474 10.6807C25.5625 10.7584 26.3106 11.0501 26.6367 11.4C26.9243 11.7112 26.771 11.6918 26.7133 11.614C26.6367 11.5167 26.042 11.1084 25.8119 11.0113C25.5817 10.9141 25.2939 10.739 25.2939 10.7002C25.2939 10.6613 25.4474 10.6807 25.4474 10.6807Z" fill="black"/>
<path d="M18.83 18.7495C19.3862 18.7106 19.9617 18.8467 20.3261 19.2355C20.5179 19.43 20.8248 19.6438 20.7865 19.8382C20.7865 19.8965 20.6713 20.0521 20.5756 20.1688C20.518 20.2465 20.3454 20.4215 20.2878 20.4799C20.2111 20.5382 19.9426 20.7521 19.885 20.791C19.8275 20.8299 19.7507 20.9272 19.6932 20.9465C19.5015 21.0438 19.2905 20.966 19.0986 20.8688C18.9069 20.7716 19.1371 20.7521 18.926 20.5966C18.4082 20.2272 18.1204 19.9743 18.3315 19.255C18.3506 19.1189 18.5615 18.9633 18.83 18.7495Z" fill="#EFEFEF"/>
<path opacity="0.4" d="M13.9396 14.2971C12.2133 14.9971 7.82089 17.2136 6.57422 17.8941C7.60996 18.5551 8.08945 20.1494 8.24295 21.7632C8.26206 21.9188 8.28127 22.0549 8.30048 22.2104C8.3196 22.3465 8.33881 22.4437 8.35792 22.5021C8.35792 22.5216 8.35792 22.5604 8.37713 22.5798C9.50883 19.4495 13.5558 16.1442 13.7093 15.8915C13.786 15.7748 13.6134 15.2693 13.8819 14.7833C14.2272 14.161 14.8986 13.8887 13.9396 14.2971Z" fill="black"/>
<path opacity="0.4" d="M18.0439 28.9765C18.9262 27.1877 18.9454 25.4767 18.9262 23.4741C18.9262 22.638 19.5207 21.452 19.214 21.7825C18.063 23.0851 15.1669 25.535 13.0762 25.6711C16.0108 25.5739 17.1616 27.071 18.0439 28.9765Z" fill="black"/>
<path d="M4.88672 19.5466C5.97999 18.7495 11.6383 15.697 13.0001 15.2692C14.3619 14.822 13.9399 14.297 13.9399 14.297C13.9399 14.297 8.4159 16.7079 5.11686 18.7883" fill="black"/>
<path opacity="0.4" d="M20.9979 13.9277C20.5567 13.7527 20.2115 14.2777 20.3265 14.7832C20.4417 15.2888 21.4775 15.8525 21.4198 17.6997C21.3815 19.2162 21.0554 19.8383 21.0554 19.8383L20.3265 18.9051C20.3265 18.9051 20.2115 16.8052 19.9621 16.4942C19.7129 16.1831 18.9264 15.6192 18.6195 15.3276C18.3126 15.0359 18.9647 14.6471 18.9264 14.1026C18.8881 13.5777 19.2525 12.5278 19.2525 12.5278L20.9979 13.9277Z" fill="black"/>
<path opacity="0.4" d="M23.6639 22.2103C23.6256 23.6684 23.9517 25.8267 24.0859 26.8572C24.2202 27.8876 24.3928 27.9654 24.0859 28.4321C23.779 28.8793 23.3762 29.6181 23.3762 29.6181L22.0527 29.5014C22.0527 29.5014 23.1077 28.1404 23.1651 27.8876C23.2227 27.6349 22.6281 25.7101 22.6281 25.7101L23.6639 22.2103Z" fill="black"/>
<path opacity="0.4" d="M21.1133 8.60035C21.3818 9.20296 21.7078 9.47519 22.2257 9.65026C22.5326 9.7669 23.7409 9.9225 24.2205 9.37802C24.4314 9.12526 24.2972 8.44476 24.2972 8.44476L23.2039 9.33908L21.727 9.06694L21.5544 8.61973L21.1133 8.60035Z" fill="black"/>
<path d="M21.2276 9.94189C21.7263 10.2725 22.9731 10.5835 23.3183 10.6419C23.6635 10.7196 24.2198 10.2725 24.4883 10.1558C24.7761 10.0197 25.2748 9.94189 25.8502 10.4669C25.9077 10.5252 25.7159 10.778 25.7159 10.778C25.6967 10.7585 25.5816 10.7585 25.4281 10.6807C25.2747 10.603 25.1404 10.5446 24.9103 10.5641C23.9512 10.6807 23.7978 11.0113 22.9539 10.8167C22.11 10.6222 21.8989 10.4668 21.0742 10.5056" fill="#88CE02"/>
<path d="M21.2276 9.94189C21.7263 10.2725 22.9731 10.5835 23.3183 10.6419C23.6635 10.7196 24.2198 10.2725 24.4883 10.1558C24.7761 10.0197 25.2748 9.94189 25.8502 10.4669C25.9077 10.5252 25.7159 10.778 25.7159 10.778C25.6967 10.7585 25.5816 10.7585 25.4281 10.6807C25.2747 10.603 25.1404 10.5446 24.9103 10.5641C23.9512 10.6807 23.7978 11.0113 22.9539 10.8167C22.11 10.6222 21.8989 10.4668 21.0742 10.5056" stroke="black" stroke-width="0.3" stroke-miterlimit="10" stroke-linejoin="round"/>
<path d="M21.0557 10.0002C21.6887 10.2724 22.9163 10.5641 23.2615 10.6419C23.6067 10.7197 24.1629 10.3696 24.4315 10.1947C24.9111 9.88357 25.5248 10.1363 25.8125 10.4669C26.0043 10.6807 26.0811 10.8168 26.0811 10.8752C26.0811 10.9529 25.851 10.8752 25.851 10.8752C25.7167 10.8168 25.5632 10.7975 25.4482 10.7196C25.2947 10.6419 25.1412 10.5252 24.9112 10.5446C23.9521 10.6613 23.7603 10.9918 22.9356 10.7974C22.1109 10.6029 21.8998 10.4279 21.0176 10.4862" fill="#88CE02"/>
<path d="M18.0829 28.1598C18.0445 28.1209 18.1212 28.0821 18.0829 28.0821C17.8336 28.0821 17.4883 27.8876 17.2964 27.6154C16.4717 26.41 15.2632 25.6129 13.0767 25.6712C9.79676 25.7489 8.49246 24.388 8.2432 21.7826C8.10892 20.3633 7.72528 18.9829 6.9389 18.2051L6.47852 18.4968C7.36076 19.2745 7.64854 20.5383 7.84035 22.2687C8.14724 24.874 10.2187 26.0795 12.6355 26.1184C15.1482 26.1572 16.0496 26.6822 16.9894 27.9655C17.2963 28.3738 17.6416 28.5099 17.9101 28.5682L18.0829 28.1598Z" fill="black"/>
<path opacity="0.4" d="M26.9826 15.6581C27.0401 15.9497 27.1935 16.5135 27.5004 16.7857C27.6348 16.9218 27.6539 16.9607 27.5388 16.9607C27.4237 16.9607 26.5798 16.9218 26.5798 16.9218L26.3496 16.5135L26.9826 15.6581Z" fill="black"/>
</svg>
