<svg width="106" height="40" viewBox="0 0 106 40" fill="none" xmlns="http://www.w3.org/2000/svg">
<path d="M38.2838 11.1706C39.7951 11.1706 41.1986 11.7122 41.1986 12.1274C41.1986 12.3802 40.8747 13.012 40.6768 13.012C40.5149 13.012 39.7771 12.3441 38.3018 12.3441C35.6029 12.3441 34.7214 13.9148 34.7214 16.5867C34.7214 18.9337 35.423 20.9197 38.1399 20.9197C38.9315 20.9197 39.7052 20.8295 40.101 20.7212V17.634H38.3198C38.1039 17.634 38.0139 17.4895 38.0139 17.1825V16.9297C38.0139 16.6048 38.1039 16.4784 38.3198 16.4784H41.0007C41.3245 16.4784 41.4505 16.6228 41.4505 16.9297V20.9919C41.4505 21.8585 39.7952 22.0933 38.0499 22.0933C35.0092 22.0933 33.3359 20.3781 33.3359 16.7312C33.3359 12.9038 35.0992 11.1706 38.2838 11.1706Z" fill="white"/>
<path d="M43.0334 16.316C43.0334 15.0522 42.8535 14.4565 42.8535 14.3842C42.8535 14.0954 43.4832 14.0232 43.6811 14.0232C44.041 14.0232 44.131 14.637 44.2208 15.0342C44.7426 14.2939 45.3544 13.8787 45.9841 13.8787C46.5779 13.8787 46.8657 14.1315 46.8657 14.4745C46.8657 14.7634 46.7397 15.3051 46.5598 15.3051C46.3619 15.3051 46.236 15.1425 45.7142 15.1425C44.9225 15.1425 44.3108 16.0813 44.3108 16.0813V21.6962C44.3108 21.9128 44.1309 22.0392 43.699 22.0392H43.6451C43.2132 22.0392 43.0334 21.9128 43.0334 21.6962V16.316H43.0334Z" fill="white"/>
<path d="M51.0408 13.8787C53.1278 13.8787 54.1894 15.2689 54.1894 17.8687C54.1894 18.0492 53.8656 18.5006 53.6856 18.5006H48.8637C48.9897 20.1976 49.7093 20.974 51.2207 20.974C52.5521 20.974 53.2899 20.324 53.4518 20.324C53.6677 20.324 53.9915 20.9198 53.9915 21.0824C53.9915 21.4434 52.786 22.0573 51.2387 22.0573C48.7018 22.0573 47.4963 20.7573 47.4963 18.0132C47.4783 15.3231 48.7018 13.8787 51.0408 13.8787ZM52.822 17.4174C52.822 15.8106 52.2102 14.9981 50.9868 14.9981C49.6553 14.9981 48.9536 15.8106 48.8457 17.4174H52.822Z" fill="white"/>
<path d="M58.9566 13.8787C61.0436 13.8787 62.1052 15.2689 62.1052 17.8687C62.1052 18.0492 61.7814 18.5006 61.6014 18.5006H56.7795C56.9055 20.1976 57.6251 20.974 59.1366 20.974C60.468 20.974 61.2057 20.324 61.3676 20.324C61.5835 20.324 61.9073 20.9198 61.9073 21.0824C61.9073 21.4434 60.702 22.0573 59.1545 22.0573C56.6176 22.0573 55.4121 20.7573 55.4121 18.0132C55.412 15.3231 56.6176 13.8787 58.9566 13.8787ZM60.7557 17.4174C60.7557 15.8106 60.144 14.9981 58.9206 14.9981C57.5892 14.9981 56.8875 15.8106 56.7795 17.4174H60.7557Z" fill="white"/>
<path d="M63.4915 16.316C63.4915 15.0522 63.3115 14.4565 63.3115 14.3842C63.3115 14.0954 63.9413 14.0232 64.1392 14.0232C64.499 14.0232 64.589 14.637 64.6789 15.0342C65.3266 14.3121 66.2082 13.8787 67.0539 13.8787C68.6193 13.8787 69.5368 14.8176 69.5368 16.3521V21.66C69.5368 21.8766 69.3569 22.003 68.925 22.003H68.8711C68.4393 22.003 68.2593 21.8766 68.2593 21.66V16.4604C68.2593 15.5216 67.7016 14.98 66.694 14.98C66.0103 14.98 65.2726 15.3953 64.7688 16.0453V21.6601C64.7688 21.8767 64.5889 22.0031 64.157 22.0031H64.1031C63.6712 22.0031 63.4913 21.8767 63.4913 21.6601L63.4915 16.316Z" fill="white"/>
<path d="M72.2716 19.4032C72.5414 19.4032 73.297 20.1074 74.5206 20.1074C75.1683 20.1074 75.96 19.9087 75.96 18.988C75.96 17.1825 71.5518 17.8867 71.5518 14.2759C71.5518 12.0191 73.387 11.1345 75.1683 11.1345C76.7876 11.1345 77.9211 11.6941 77.9211 12.1997C77.9211 12.615 77.4533 13.5357 77.0755 13.5357C76.8776 13.5357 76.4098 13.1566 75.3843 13.1566C74.1968 13.1566 73.9629 13.7162 73.9629 14.0593C73.9629 15.8106 78.3709 15.1064 78.3709 18.6993C78.3709 21.2449 76.5897 22.0934 74.9164 22.0934C72.5955 22.0934 71.3359 21.2629 71.3359 20.7394C71.3359 20.2879 71.9476 19.4032 72.2716 19.4032Z" fill="#88CE02"/>
<path d="M82.977 13.8606C85.406 13.8606 86.6654 15.323 86.6654 17.977C86.6654 20.649 85.406 22.1113 82.977 22.1113C80.548 22.1113 79.2705 20.649 79.2705 17.977C79.2705 15.305 80.548 13.8606 82.977 13.8606ZM84.3804 17.977C84.3804 16.4424 83.9486 15.648 82.977 15.648C82.0054 15.648 81.5555 16.4424 81.5555 17.977C81.5555 19.5116 82.0054 20.324 82.977 20.324C83.9486 20.324 84.3804 19.5116 84.3804 17.977Z" fill="#88CE02"/>
<path d="M91.5776 13.8606C92.6571 13.8606 94.1146 14.2217 94.1146 14.9259C94.1146 15.2148 93.5568 16.0994 93.3049 16.0994C93.2509 16.0994 93.161 16.0452 93.035 15.991C92.7651 15.8466 92.3513 15.648 91.7036 15.648C90.4801 15.648 89.9763 16.4064 89.9763 17.977C89.9763 19.5476 90.444 20.324 91.6136 20.324C92.3332 20.324 92.819 20.1075 93.1069 19.963C93.2329 19.9088 93.3228 19.8727 93.3768 19.8727C93.7187 19.8727 94.1685 20.7393 94.1685 21.0281C94.1685 21.8946 91.9915 22.0934 91.5056 22.0934C88.8968 22.0934 87.6553 20.7573 87.6553 18.0132C87.6553 15.305 88.8427 13.8606 91.5776 13.8606Z" fill="#88CE02"/>
<path d="M95.2657 10.9359C95.2657 10.611 95.5357 10.4485 96.1833 10.4485H96.6152C97.2629 10.4485 97.5328 10.611 97.5328 10.9359V17.0021L97.5868 17.0201L99.4399 14.2398C99.6198 13.987 99.9257 13.9509 100.376 13.9509H100.933C101.509 13.9509 101.797 14.0412 101.797 14.1856C101.797 14.2577 101.743 14.3661 101.653 14.4925L99.5298 17.5256L102.013 21.4794C102.085 21.6238 102.139 21.7141 102.139 21.8044C102.139 21.9488 101.869 22.039 101.275 22.039H100.627C100.178 22.039 99.8537 21.9849 99.7098 21.7502L97.5867 18.2296L97.5327 18.2476V21.5515C97.5327 21.8765 97.2628 22.0389 96.6151 22.0389H96.1832C95.5356 22.0389 95.2656 21.8765 95.2656 21.5515L95.2657 10.9359Z" fill="#88CE02"/>
<path d="M5.15959 17.8507C4.2419 18.2839 1.813 20.2338 1.34518 20.8115C0.85935 21.3892 0.715455 20.4866 1.21922 18.9881C1.61495 17.7785 2.62266 16.1355 4.31389 14.7273C5.3034 13.9149 7.48055 12.7414 8.81191 12.0553C9.08186 11.9108 12.5724 10.4304 15.685 9.69021C15.955 9.61797 15.3612 10.1415 15.2712 10.4304C14.8034 11.8025 5.46531 17.6881 5.46531 17.6881L5.15959 17.8507Z" fill="black"/>
<path d="M18.3123 34.4062C18.4742 35.3811 18.3303 35.4533 17.3227 35.5797C16.3151 35.7061 15.5775 35.327 15.3076 35.0742C15.0376 34.8214 14.9838 34.2618 15.2536 33.7563C15.4156 33.4313 15.5775 33.323 15.6676 32.9258C15.7575 32.5467 15.8295 32.4564 15.9014 32.312C15.9733 32.1855 15.9914 32.0591 16.0093 31.1745C16.0273 30.2899 16.0093 28.6289 16.0993 27.9248C16.1893 27.2027 19.302 28.2498 19.302 28.2498C19.302 28.2498 18.5643 30.0913 18.3664 30.5426C18.1684 30.9941 18.1865 31.8606 18.1865 32.0411C18.1865 32.2217 18.1146 32.5827 18.0605 32.6008C18.0065 32.6188 18.2404 33.0882 18.1324 33.359C18.0604 33.6118 18.2943 34.2618 18.3123 34.4062Z" fill="black"/>
<path d="M19.499 6.80154C19.3909 6.11549 19.499 4.76131 19.6429 4.54477C20.0927 3.93087 22.4677 3.85872 22.9715 4.58084C23.1874 4.90578 23.1694 5.66407 23.1334 6.15157C23.0975 6.63898 22.9715 7.68613 22.9535 8.02924C22.9356 8.28203 20.3267 8.67912 19.7509 7.99307C19.5889 7.81261 19.499 6.80154 19.499 6.80154Z" fill="black"/>
<path d="M24.7893 32.6549C25.8868 33.4494 26.7324 33.5937 27.2902 33.8826C27.8479 34.1716 27.704 34.7312 26.7684 34.8937C26.0127 35.0381 24.8252 34.7492 24.0336 34.7492C23.2419 34.7492 21.4786 34.8395 21.0108 34.5146C20.4711 34.1355 20.7049 33.4313 20.7049 33.4313C20.8489 33.0342 21.2087 32.1494 21.1007 31.4273C20.9928 30.7052 20.8488 30.308 20.5789 29.6399C20.3091 28.972 20.1112 27.3291 20.3631 27.2388C20.6151 27.1485 20.543 27.2388 20.8669 27.3109C21.1907 27.3831 21.5506 27.4915 22.2523 27.4915C22.954 27.4915 23.7277 27.3831 23.9976 27.329C24.2675 27.2749 24.4834 27.2206 24.3933 27.7803C24.3034 28.34 24.0336 29.3872 24.0155 30.1996C23.9976 31.012 23.9976 31.9509 24.0516 32.1133C24.1055 32.2758 24.5014 32.4564 24.7893 32.6549Z" fill="black"/>
<path d="M20.9385 8.60696C18.9594 10.3222 15.1269 10.7915 9.44146 12.9941C7.98405 13.5538 4.09774 15.2328 3.16211 16.9841C6.31075 15.1606 7.48028 17.6701 7.73212 20.2518C7.96594 22.6711 9.17151 23.9349 12.2662 23.8626C15.4509 23.7905 16.4224 25.65 17.304 27.8346C19.0133 19.4755 21.7482 17.8507 23.5113 16.4244C27.2538 13.3732 22.6477 7.99307 20.9385 8.60696Z" fill="#88CE02"/>
<path d="M20.9384 8.60696C16.1884 10.2679 11.4924 10.6832 5.9688 14.0954C4.65537 14.9079 1.88453 16.7493 1.34473 20.2699C3.35979 18.0311 8.01981 15.2148 13.7234 13.4275C16.6022 12.5247 18.7074 11.929 21.2622 10.936C21.0824 9.78042 21.0824 9.32908 20.9384 8.60696Z" fill="#88CE02"/>
<path d="M27.0022 18.5005C27.0022 18.5005 26.6604 19.6741 25.9767 20.0533C25.9767 20.0533 25.4729 20.2338 24.4654 19.6742C24.1775 19.5117 23.9616 18.9521 23.9796 18.7714C23.9976 18.3381 24.2674 18.1395 24.2674 18.1395C24.2674 18.1395 24.5554 17.652 24.8972 17.6701C25.2391 17.6881 25.8149 17.7423 25.9948 17.5798C26.1566 17.3992 27.0383 17.9047 27.0022 18.5005Z" fill="black"/>
<path d="M19.6613 7.14455C19.6613 7.14455 19.5894 8.06539 19.4634 8.64304C19.4454 8.75144 18.9057 8.80551 18.5098 8.96807C19.2655 11.1345 23.8175 11.1164 24.4113 10.0513C24.1234 9.85275 23.5477 9.5458 23.2778 9.43749C23.0079 9.32908 23.0259 9.34716 23.0079 8.84167C22.9899 8.33609 22.9539 7.39734 22.9179 7.14455C22.8819 6.89176 20.0931 6.89176 19.6613 7.14455Z" fill="black"/>
<path d="M19.8411 7.14454C19.8411 7.14454 19.8411 7.66812 19.7871 8.17361C19.7692 8.40832 19.7512 8.55271 19.7152 8.73326C19.6972 8.84166 20.3269 9.27483 20.5069 10.2317C21.3705 12.1635 23.3677 11.2067 24.1953 10.2859C23.9074 10.0873 23.4396 9.81649 22.8999 9.59986C22.63 9.49146 22.7559 9.25684 22.738 8.75134C22.72 8.24585 22.648 7.50556 22.612 7.23477C22.5759 6.96399 20.273 6.89175 19.8411 7.14454Z" fill="#EFEFEF"/>
<path d="M19.6608 7.14455C19.6608 7.14455 19.6428 7.46958 19.5889 7.84868C19.8227 8.0833 20.1286 8.40833 20.3626 8.60696C20.5245 8.75144 20.9202 8.73336 21.2802 8.73336C21.604 8.73336 21.8919 8.76943 22.0179 8.69728C22.3058 8.5528 22.7196 8.19179 22.9535 7.92092C22.9356 7.59597 22.9175 7.28903 22.8996 7.14455C22.8814 6.89176 20.0925 6.89176 19.6608 7.14455Z" fill="black"/>
<path d="M21.2983 8.51664C21.0823 8.51664 20.8304 8.49865 20.6325 8.46248C20.5425 8.44449 20.4526 8.39033 20.3806 8.35417C20.2546 8.26385 20.1287 8.15562 19.9849 8.04722C19.6969 7.83059 19.679 7.7042 19.679 7.65013C19.8049 6.51266 19.6429 5.55583 19.6429 5.55583C19.6429 5.55583 19.517 5.06833 20.2007 4.94193C20.8844 4.81554 21.2982 4.79755 21.2982 4.79755C21.2982 4.79755 21.7301 4.79755 22.3957 4.94193C23.0794 5.06833 22.9535 5.55583 22.9535 5.55583C22.9535 5.55583 22.7916 6.51266 22.9175 7.65013C22.9175 7.7042 22.8996 7.83059 22.6116 8.04722C22.3597 8.22777 22.1618 8.42632 21.964 8.46248C21.766 8.49865 21.5141 8.51664 21.2983 8.51664Z" fill="black"/>
<path d="M21.2984 4.32812C20.111 4.32812 19.877 4.65307 19.5351 5.01417C19.4632 5.1044 19.5171 5.64606 19.6432 6.80152H19.8051C19.8051 6.80152 19.6971 6.47649 19.7151 6.0974C19.7331 5.7183 19.8051 5.73638 19.751 5.64606C19.6791 5.53766 19.5351 5.3571 19.8591 5.17664C20.1829 4.99609 20.6867 5.32103 21.2984 5.33911C21.9102 5.32103 22.4319 4.99609 22.7558 5.17664C23.0796 5.3571 22.9357 5.53766 22.8638 5.64606C22.7918 5.75437 22.8817 5.71821 22.8998 6.0974C22.9177 6.47649 22.8097 6.80152 22.8097 6.80152H22.9717C23.0796 5.64606 23.1516 5.14057 23.0976 5.05025C22.7917 4.65307 22.4859 4.34612 21.2984 4.32812Z" fill="black"/>
<path d="M27.0019 18.5547C27.0019 18.5547 26.6601 19.656 25.9944 20.0351C25.8504 19.963 25.8684 19.8546 25.7425 19.6921C25.7064 19.638 25.5805 19.6018 25.5266 19.5477C25.4726 19.4935 25.4906 19.4032 25.4006 19.3311C25.3286 19.2588 25.2747 19.313 25.2027 19.2588C25.1308 19.1867 25.1127 19.0964 25.0588 19.0423C25.0227 19.0061 24.8789 18.9881 24.8429 18.952C24.7529 18.8616 23.9613 18.6992 23.9973 18.5186C24.0692 18.2477 24.2132 18.0492 24.2132 18.0492C24.2132 18.0492 24.555 17.5437 24.8968 17.5617C25.2386 17.5798 25.5625 17.652 25.7425 17.4896C25.9404 17.3089 27.056 17.977 27.0019 18.5547Z" fill="black"/>
<path d="M24.6627 10.5749C24.6627 10.5749 25.7962 10.304 26.5699 11.0443C27.3436 11.8026 27.2896 12.7413 27.0557 13.319C27.2536 13.5537 27.6135 14.2036 27.3436 14.98C28.5311 15.991 28.0093 17.5437 26.9478 18.5728C26.9478 18.5728 26.6959 17.6339 25.6883 17.5798C25.7243 17.2188 24.7527 16.9298 25.2025 15.991C24.5188 15.8285 24.5368 15.3591 24.4289 14.7814C24.3389 14.2036 24.6627 10.5749 24.6627 10.5749Z" fill="black"/>
<path d="M24.2494 11.0804C24.2494 11.0804 25.5628 10.4124 26.3365 11.1707C27.1101 11.929 26.8942 12.7594 26.6604 13.3371C26.8582 13.5717 27.326 14.2399 27.0382 15.0342C26.9842 15.2147 26.5884 15.2147 26.3004 15.6841C27.02 15.2688 27.4699 15.3772 27.6318 15.9007C27.8838 16.7131 27.3259 17.688 26.8402 18.2297C26.8402 18.2116 26.8222 18.1935 26.8222 18.1755C26.7503 18.4464 26.6603 18.9699 26.1206 19.5476C25.8506 19.8365 25.6347 19.8004 25.3288 19.7282C24.969 19.6378 24.8431 19.4753 24.3393 19.2046C24.0514 19.0421 24.2133 18.8435 24.2133 18.681C24.2133 18.6449 24.2493 18.5907 24.3034 18.5185C24.3393 18.4282 24.4473 18.2839 24.6092 18.1214C24.6092 18.1214 24.8431 17.7964 25.185 17.8144C25.5269 17.8325 25.8866 17.7603 25.9767 17.67C25.9767 17.0381 25.257 17.0201 25.5088 15.9368C25.5269 15.8827 25.6169 15.7923 25.9047 15.7563C25.4728 15.666 25.2749 15.6479 24.969 15.3591C24.7532 15.1605 24.5912 14.9078 24.5372 14.5828C24.4293 14.0232 24.2494 11.0804 24.2494 11.0804Z" fill="#EFEFEF"/>
<path d="M20.4525 9.94296C20.3446 9.79849 19.7868 9.07637 18.7252 8.7875C18.4193 8.69718 18.2215 8.94997 17.9157 9.13052C17.8256 9.07637 17.4298 8.89581 17.2139 9.02212C16.9981 9.14843 16.8542 9.27491 16.6382 9.36514C16.5302 9.31099 16.2424 9.31099 16.0085 9.40122C15.7745 9.47346 15.4147 9.63593 15.0728 10.1053C14.8569 10.8817 18.8871 10.3039 18.8871 10.3039L20.4525 9.94296Z" fill="black"/>
<path d="M20.4884 9.94299C19.9126 9.74435 20.0026 9.07639 18.7251 8.96807C18.4732 8.94999 18.3113 9.14854 18.1313 9.27493C18.2213 9.36525 18.3113 9.50964 18.3652 9.65403C18.2033 9.47357 17.9154 9.23877 17.6275 9.18461C17.3576 9.13055 17.1777 9.32909 16.8898 9.47357C16.9437 9.52763 16.9977 9.61796 17.0696 9.72636C16.8177 9.56389 16.6379 9.50973 16.296 9.63604C16.0621 9.70819 15.6123 9.90682 15.2705 10.3943C15.0546 11.1707 18.9049 10.304 18.9049 10.304L20.4884 9.94299Z" fill="#88CE02"/>
<path d="M23.8707 10.2318C23.8707 10.2318 23.8707 10.0332 23.8527 9.85274C23.8527 9.81667 23.7088 9.72634 23.7088 9.69027L23.6729 9.65411C23.6729 9.65411 23.9607 9.49164 24.1766 9.58196C24.4104 9.65411 24.5364 9.96105 24.5364 9.96105C24.9502 9.81666 24.9862 9.97914 25.1841 10.1958C25.616 10.1054 25.6699 10.2679 25.9398 10.6652C25.9398 10.6652 25.616 10.611 24.9863 10.7193C24.3745 10.8095 23.8707 10.2138 23.8707 10.2318Z" fill="black"/>
<path d="M23.7992 10.1415C23.7992 10.1415 23.9072 10.0512 23.8711 10.0331C24.069 9.9248 24.3389 9.79849 24.4649 10.1415C24.8788 9.99704 24.9327 10.1957 25.1306 10.4124C25.6344 10.1777 25.6703 10.4665 25.7063 10.5929C25.5444 10.5929 25.3106 10.6109 24.9867 10.647C24.375 10.7373 23.7812 10.1234 23.7992 10.1415Z" fill="#88CE02"/>
<path d="M17.6819 9.69019C17.6819 9.69019 18.7075 10.0512 19.5711 9.99705C20.4347 9.9249 21.9101 9.85266 22.7017 10.3221C22.7017 10.3221 23.5114 10.0331 24.2671 10.2318C25.0229 10.4303 26.4082 11.7302 25.9944 13.1023C25.9584 13.1927 25.7245 13.337 25.4546 13.4274C25.4546 13.4274 25.5986 14.0412 25.3467 14.5467C25.0948 15.0342 24.537 15.973 24.519 17.2728C24.5011 17.4895 24.4651 17.9408 24.4291 18.1574C23.0257 18.1034 20.8666 17.5797 18.7435 17.6159C18.7615 17.3813 18.7795 17.2368 18.7975 17.0021H18.8514C18.7434 16.4063 18.7075 16.0993 18.5994 15.648C17.9157 15.2147 17.196 14.7092 16.5844 13.7523C15.9906 12.7954 17.6819 9.69019 17.6819 9.69019Z" fill="black"/>
<path d="M24.6267 19.4394C24.6267 19.4394 25.7422 23.4474 24.4288 25.1265C24.4288 25.1265 24.6267 25.9028 24.1769 26.7333C24.1049 27.0943 24.0149 27.4193 23.961 27.7803C23.7271 29.2788 23.3312 29.9107 23.2232 32.3119L22.1436 32.2939C22.1436 32.2939 22.0177 30.5607 21.6399 29.6399C21.4241 29.1164 20.5783 28.4122 20.6144 27.7082C20.6504 27.1665 20.7583 26.7152 21.676 25.993C21.7479 24.9459 20.7043 23.9528 20.8663 20.0532L24.6267 19.4394Z" fill="black"/>
<path d="M24.3032 19.2768C24.5911 21.1183 25.2567 23.8445 24.0512 25.1805C24.1051 25.4332 24.1412 25.7943 24.0692 26.2095C24.0332 26.4261 23.9612 26.6609 23.8713 26.9136C23.6914 27.3469 23.6194 27.9788 23.5654 28.3579C23.3315 29.8564 23.3315 29.9287 23.2236 32.3299L22.144 32.3118C22.144 32.3118 22.018 30.5786 21.6402 29.6579C21.4244 29.1343 20.9745 28.683 20.9386 27.9789C20.9026 27.4373 21.2804 26.3541 22.1801 26.3902C22.1261 24.2056 21.1185 24.6389 20.8486 20.0893L24.3032 19.2768Z" fill="#EFEFEF"/>
<path d="M17.6819 9.69019C17.6819 9.69019 18.0778 9.81658 18.5095 9.85266C18.9414 9.88873 19.4092 9.85266 19.823 9.83457C20.6866 9.76242 21.9101 9.6721 22.7198 10.1415C22.7198 10.1415 23.1696 9.99705 23.6554 10.0331C23.8713 10.0512 24.0873 10.2318 24.3391 10.304C25.1307 10.5025 25.8864 11.8205 25.5445 13.0121C25.5085 13.1024 25.2566 13.0121 24.9687 13.1024C25.0226 13.3552 25.0588 13.9329 24.7708 14.5468C24.465 15.1606 24.0692 15.955 24.1411 17.4716C22.2519 17.3813 21.4063 17.2549 19.535 17.1646C19.3731 16.4966 19.2651 15.8286 19.2471 15.4856C19.4991 15.3592 19.6429 15.251 19.8409 15.0343C19.3012 15.1246 19.0852 15.0884 18.7613 14.9079C18.4375 14.7273 17.8617 14.1496 17.5738 13.7705C17.5379 13.7343 17.34 14.33 16.8902 14.3482C16.7282 14.1135 17.4119 13.4454 17.286 13.1927C16.8362 12.2719 17.6819 9.69019 17.6819 9.69019Z" fill="#EFEFEF"/>
<path d="M24.4464 17.7783C24.4464 17.7783 24.4823 18.4283 24.4823 18.5908C24.4823 18.7713 24.6263 19.3129 24.6442 19.5657C24.4464 19.9087 23.5827 20.6851 22.0174 20.9739C20.47 21.2989 18.4189 18.8616 18.4189 18.8616C18.4729 18.6269 18.6529 17.9408 18.7788 17.5798C18.7968 17.5437 18.8328 17.4534 18.8328 17.4173C18.9948 17.1826 24.4464 17.7783 24.4464 17.7783Z" fill="black"/>
<path d="M24.0512 17.8326C24.0512 18.2839 24.1231 18.6089 24.1772 18.8978C24.2671 19.4214 24.411 19.7644 24.411 20.1074C24.411 21.1545 23.0436 20.9739 21.892 21.0101C20.3447 21.3351 19.0312 18.8978 19.0312 18.8978C19.1392 18.4825 19.2112 18.0132 19.3731 17.6159C19.391 17.3993 19.4271 17.1285 19.445 17.0021C21.6401 17.0021 23.1874 17.1285 24.0871 17.2187C24.1231 17.4173 24.0872 17.7603 24.0512 17.8326Z" fill="#EFEFEF"/>
<path d="M22.324 20.1615C22.324 20.1615 21.3705 18.0311 18.5096 18.6631C17.826 20.5948 16.9083 22.8155 17.5021 25.2167C16.9083 26.0291 16.2246 26.4806 16.2246 27.979C16.2246 29.4774 16.2966 29.7302 16.2966 29.7302L18.4017 29.8386C18.4017 29.8386 19.0854 28.954 19.3552 27.9971C19.4272 27.7263 19.4992 27.2388 19.4452 26.6792C19.5171 26.5709 19.823 26.3182 19.8591 25.8307C19.8591 25.8307 20.8846 25.2891 21.4784 23.9712C22.0362 22.7794 21.8923 21.7503 22.324 20.1615Z" fill="black"/>
<path d="M22.3239 20.1615C22.27 19.963 21.5503 18.0131 18.8874 18.5908C17.3221 22.7794 17.8979 24.5126 18.1317 25.2708C17.0701 26.6248 16.5843 26.9136 16.8003 29.6579H18.2038C18.8514 28.6288 18.9954 28.2497 19.0314 26.8957C19.0314 26.8415 18.8335 27.004 18.6895 27.1845C18.7975 26.6249 19.1033 26.5166 19.3373 26.1735C19.4452 26.0291 19.5351 25.8124 19.5351 25.5236C20.7946 24.675 21.2624 23.6098 21.5323 22.5085C21.7482 21.7503 22.0001 20.5045 22.3239 20.1615Z" fill="#EFEFEF"/>
<path d="M17.8796 17.2549C17.8796 17.2549 18.3654 17.2728 18.7973 17.4173C19.2111 17.5617 19.2111 17.6519 19.373 17.8326C19.535 18.0132 19.9308 18.2839 19.8589 18.5547C19.8228 18.6992 19.7329 18.7353 19.607 18.8617C19.553 18.9158 19.1571 19.3491 19.0672 19.4032C19.0132 19.4393 18.9412 19.4935 18.8872 19.5296C18.8333 19.5657 18.6714 19.6741 18.6174 19.7102C18.4374 19.8005 18.3115 19.8546 18.1136 19.8366C18.1136 19.8366 17.6638 19.8185 17.3758 19.5116C17.3758 19.5116 17.3399 19.3671 17.4119 19.295C17.4119 19.295 17.034 18.97 16.926 18.7533C16.818 18.5368 16.818 18.2299 16.8901 18.0674C16.926 17.9047 17.6277 17.4534 17.8796 17.2549Z" fill="black"/>
<path d="M18.3292 34.8214L18.2752 35.2729C18.2752 35.2729 18.1133 35.4714 16.9078 35.4534C15.6843 35.4353 15.3605 35.0562 15.2526 34.8576L15.1807 34.3882C15.1807 34.3882 15.4146 34.0452 15.4685 34.0452C15.8644 34.0812 17.2138 34.6229 18.1495 34.7673C18.2392 34.7673 18.2571 34.8034 18.3292 34.8214Z" fill="black"/>
<path d="M20.9379 33.9007C20.9379 34.0992 20.9199 34.0992 20.9199 34.2978C21.1358 34.4603 21.6757 34.5506 22.7012 34.5325C24.1945 34.4964 25.5799 34.9839 27.2712 34.6949L27.2892 34.37L27.1273 34.352L21.1358 33.8645L20.9379 33.9007Z" fill="black"/>
<path d="M22.2516 34.5326C22.3956 34.5326 22.5395 34.5326 22.7014 34.5326C23.6731 34.4965 24.5907 34.7131 25.5802 34.7673C26.102 34.7492 26.7497 34.6228 26.6958 34.2437L21.5859 33.8104C21.28 34.1534 21.5139 34.4422 22.2516 34.5326Z" fill="black"/>
<path d="M16.386 26.9318C16.5479 27.0401 17.6455 27.6901 19.4267 27.5998C19.3907 27.9428 19.4087 28.6109 18.6171 29.7843C18.2212 30.3621 17.8793 31.3731 17.8074 32.655C17.8254 32.9439 17.9873 33.1966 17.7714 33.5757C17.8433 33.8104 18.1312 34.2798 18.2752 34.5686C18.4191 34.8576 18.4911 35.1825 17.5375 35.2006C16.5659 35.2186 15.0005 35.1103 15.2165 34.3521C15.3245 33.9549 15.6303 33.5397 15.6664 33.3771C15.7023 33.2146 15.7023 32.7272 16.0081 32.4022C16.2781 31.4995 16.1881 30.6329 16.1342 29.8205C16.0442 28.9719 16.0262 27.6179 16.386 26.9318Z" fill="black"/>
<path d="M18.0593 12.2177C19.3368 10.5025 18.2572 9.13052 16.2062 9.54569C15.3785 9.70816 14.5509 10.286 14.4968 11.333C14.227 11.3691 13.6153 11.4052 13.3094 12.5246C13.0755 13.3912 12.9496 13.5537 12.5356 13.9869C12.2658 14.2939 12.5537 14.9257 12.7515 15.3772C13.4173 16.9298 15.4684 17.0742 16.8538 18.2477C17.3216 18.1213 17.8074 17.5979 17.9514 17.2548C16.7818 15.8646 17.0337 15.323 16.5658 14.6009C17.0697 14.4203 18.2212 13.7162 18.0593 12.2177Z" fill="black"/>
<path d="M17.8081 12.1094C17.88 12.001 18.006 11.7664 18.06 11.6761C18.078 11.658 18.2759 12.001 18.2939 11.983C18.7797 11.1886 18.9056 10.0331 18.3478 9.92479C18.2218 9.90671 17.988 9.85264 17.7901 9.78031C17.4303 9.65392 17.1065 9.65392 16.5306 9.76232C15.739 9.90671 14.9473 10.4844 14.9473 11.315C14.9473 11.3691 15.505 11.5316 15.667 12.1996C15.397 11.8205 14.9292 11.4052 14.3715 11.7663C13.7777 12.1454 14.0836 13.012 13.292 13.9147C13.022 14.2216 13.0581 14.5827 13.3458 15.3048C13.8137 16.4423 16.0268 17.0561 17.2322 18.1393C17.5201 18.0129 17.718 17.7241 17.862 17.5075C17.0523 16.6589 16.7284 15.8645 16.4946 15.2868C16.2067 14.6188 15.8828 14.2397 15.2531 13.734C15.577 13.8604 15.8289 13.9868 15.9727 14.0951C16.1346 14.2034 16.3685 14.2215 16.5845 14.1493C17.3583 13.8787 17.7721 12.7954 17.8081 12.1094Z" fill="#EFEFEF"/>
<path d="M25.6343 12.3983C25.5803 13.0843 25.0766 12.7413 24.8067 12.6149C24.2669 12.3802 23.7271 12.2177 23.0974 12.2177C22.4676 12.2177 21.658 12.2719 20.9563 12.4525C19.9848 12.7232 19.6968 12.7052 19.265 12.4885C18.8333 12.2538 18.0777 11.6761 18.0777 11.6761C18.0777 11.6761 18.0596 11.8566 18.2396 12.0913C18.4734 12.3802 18.9953 12.7413 19.6969 12.9759C20.0387 13.0843 20.3087 13.012 20.6146 12.9399C22.2159 12.5427 23.9071 12.4704 25.3285 13.337C25.4005 13.3731 25.6524 13.2648 25.7604 13.1023C25.9042 12.8677 25.6343 12.3983 25.6343 12.3983Z" fill="black"/>
<path d="M17.4482 19.2768C17.5921 19.3671 17.7721 19.4213 17.9699 19.5838C17.9699 19.5838 17.808 19.5838 17.7361 19.5116C17.6461 19.4575 17.4662 19.295 17.4482 19.2768Z" fill="#001423"/>
<path d="M22.6473 4.96C22.5934 4.79753 22.1975 4.50858 21.28 4.50858C20.2904 4.50858 20.0025 4.81552 19.9845 4.97799C19.9845 5.03215 19.9126 5.60997 19.8945 5.84459C19.8945 5.84459 19.8945 6.13346 19.9125 6.56671C19.9305 6.85558 20.0025 7.01805 20.0384 7.39723C20.0744 7.79433 20.1824 8.04712 20.3803 8.37214C20.4703 8.42621 20.5422 8.48046 20.6322 8.49854C20.9921 8.57069 21.6218 8.58877 21.9637 8.49854C22.1615 8.44438 22.4134 8.10136 22.4674 7.79441C22.5393 7.41531 22.6113 7.14444 22.6293 6.90982C22.6653 6.6752 22.6833 6.15154 22.7012 6.00706C22.7553 5.60997 22.6653 4.99607 22.6473 4.96Z" fill="#EFEFEF"/>
<path d="M20.7583 27.2748C20.7583 27.2748 21.7119 27.6901 24.0689 27.329C24.0689 27.329 23.4033 30.6871 23.7092 32.366C23.7092 32.366 24.015 32.7994 26.282 33.6298C26.282 33.6298 27.2896 33.8826 27.2536 34.3882C27.2536 34.3882 27.2896 34.4965 26.0662 34.4603C24.8427 34.4242 23.6911 34.2075 22.8815 34.2075C22.0718 34.2075 21.2082 34.2436 21.0643 34.009C20.9024 33.7924 21.1002 33.2326 21.3341 32.9076C21.5862 32.5647 21.5141 32.3118 21.4961 31.6981C21.442 30.0913 20.2185 28.4303 20.7583 27.2748Z" fill="black"/>
<path d="M20.5603 27.5818C20.4344 27.7624 20.5783 28.4483 20.7582 29.1164C20.9381 29.7843 21.334 30.1816 21.424 31.2828C21.5139 32.366 21.5319 32.5105 21.226 33.1423C20.9201 33.7741 20.8302 34.3519 21.8917 34.37C22.9532 34.3881 23.529 34.3519 24.6086 34.5145C25.6882 34.677 26.066 34.7311 26.6598 34.6409C27.2535 34.5507 27.3794 34.3519 27.1276 34.1715C26.8756 33.9909 25.8321 33.7924 25.3823 33.4312C24.9504 33.1062 23.727 32.5646 23.7091 32.4202C23.6551 31.9327 23.6371 30.1634 23.727 29.5857C23.817 29.0079 23.9429 28.1774 23.9789 27.9608C24.015 27.7442 24.1948 27.5275 23.8889 27.5997C23.5831 27.6719 22.4316 27.8344 21.568 27.7803C20.7043 27.7262 20.6144 27.5276 20.5603 27.5818Z" fill="#88CE02"/>
<path opacity="0.3" d="M21.1719 33.1605C21.4777 33.3049 21.9276 33.4133 22.2695 33.4133C22.2695 33.4133 22.1434 34.0091 22.3414 34.3701C22.5392 34.7312 20.902 34.5146 20.902 34.5146L20.8301 33.2327L21.1719 33.1605Z" fill="black"/>
<path opacity="0.3" d="M25.9402 34.7131C26.2281 34.6228 26.4261 34.2979 26.1921 33.991C25.9402 33.6841 25.7243 33.6299 26.0482 33.6119C26.3721 33.5938 27.5595 34.3159 27.5595 34.3159L26.9477 34.8756L25.9402 34.7131Z" fill="black"/>
<path opacity="0.3" d="M20.5067 28.2858C20.9205 28.4303 21.5502 28.4664 22.09 28.4483C22.6297 28.4303 23.4394 28.358 23.9613 28.1775C24.483 27.997 24.2671 28.3761 24.2671 28.3761L23.9792 28.6469C23.9792 28.6469 23.2955 28.9177 22.18 28.8997C20.8666 28.8816 20.4707 28.7372 20.4707 28.7372L20.5067 28.2858Z" fill="black"/>
<path opacity="0.3" d="M20.542 29.1886C20.9559 29.3331 21.5856 29.3691 22.1254 29.3511C22.6651 29.3331 23.3848 29.3331 23.9066 29.1344C24.1225 29.0623 23.9966 29.3691 23.9966 29.3691L23.9066 29.5316C23.9066 29.5316 23.2049 29.7844 22.1073 29.7662C20.7939 29.7482 20.56 29.6398 20.56 29.6398L20.542 29.1886Z" fill="black"/>
<path d="M19.3555 16.5327C19.3555 16.6591 20.7589 17.3632 21.5325 17.5077C22.3062 17.652 23.9256 17.5077 24.1774 17.4535L24.1414 17.7063C24.1414 17.7063 22.2162 17.9952 20.7409 17.598C19.2655 17.2008 19.4275 17.1105 19.4275 17.1105L19.3555 16.5327Z" fill="black"/>
<path d="M16.3496 31.9328C16.5655 32.0412 17.3392 32.2397 17.843 32.1314C17.9149 32.1133 17.843 30.8856 18.0409 30.326C18.3288 29.5496 18.7966 28.9177 19.0124 27.5457C18.2567 27.4735 17.3932 27.2748 16.9433 27.1304C16.3676 28.8997 16.5656 30.4162 16.3496 31.9328Z" fill="#EFEFEF"/>
<path d="M17.5554 33.0702C17.6814 33.1063 17.7713 33.2507 17.8074 33.1606C17.8793 32.998 17.6814 32.6911 17.6634 32.4745C17.6634 32.4564 17.6634 32.4745 17.6634 32.4564C17.5015 32.3121 16.4039 32.294 16.4759 32.3661C16.3499 32.6008 16.1521 32.5648 16.0802 33.0342C16.0442 33.2688 16.3321 33.0702 16.6019 33.0522C16.1161 33.3771 15.5584 33.7925 15.4684 34.1535C15.3604 34.659 15.5404 34.8034 16.0802 35.0743C16.548 35.1826 17.1057 35.2007 17.5375 35.1826C18.0233 35.0923 18.1133 34.8577 17.9694 34.5327C17.7533 34.0452 17.6094 33.4133 17.5554 33.0702Z" fill="#EFEFEF"/>
<path d="M17.7533 9.61795C18.347 9.96097 19.1747 9.87074 19.4805 9.85266C19.5525 9.85266 20.2723 9.72627 20.3082 9.74426C20.3801 9.76234 20.3801 9.8165 20.3801 9.8165C20.3801 9.8165 20.1103 9.96088 19.4986 9.99696C18.9228 10.033 18.2391 9.99696 17.8613 9.8165C17.4114 9.61795 17.7533 9.61795 17.7533 9.61795Z" fill="black"/>
<path d="M23.8715 9.96097C23.9795 10.0331 24.6812 10.304 24.9871 10.6289C25.2569 10.9179 25.113 10.8998 25.059 10.8276C24.9871 10.7372 24.4293 10.3581 24.2134 10.2679C23.9975 10.1777 23.7275 10.0151 23.7275 9.97905C23.7275 9.94298 23.8715 9.96097 23.8715 9.96097Z" fill="black"/>
<path d="M17.6639 17.4534C18.1857 17.4173 18.7255 17.5437 19.0674 17.9047C19.2473 18.0853 19.5352 18.2838 19.4992 18.4644C19.4992 18.5185 19.3912 18.663 19.3014 18.7713C19.2474 18.8435 19.0855 19.0059 19.0314 19.0602C18.9595 19.1143 18.7076 19.313 18.6536 19.3491C18.5996 19.3852 18.5276 19.4755 18.4737 19.4935C18.2938 19.5839 18.0959 19.5116 17.9159 19.4214C17.7361 19.3311 17.952 19.313 17.754 19.1686C17.2683 18.8256 16.9983 18.5908 17.1963 17.9228C17.2142 17.7964 17.4121 17.6519 17.6639 17.4534Z" fill="#EFEFEF"/>
<path opacity="0.4" d="M13.0761 13.3191C11.4567 13.969 7.33644 16.0272 6.16699 16.6591C7.13857 17.2729 7.58836 18.7533 7.73235 20.2518C7.75028 20.3963 7.7683 20.5227 7.78632 20.6671C7.80425 20.7935 7.82227 20.8837 7.8402 20.938C7.8402 20.956 7.8402 20.9921 7.85822 21.0101C8.91981 18.1035 12.7161 15.0343 12.8601 14.7995C12.932 14.6912 12.7701 14.2218 13.022 13.7706C13.3459 13.1927 13.9757 12.9399 13.0761 13.3191Z" fill="black"/>
<path opacity="0.4" d="M16.9266 26.9499C17.7542 25.289 17.7722 23.7002 17.7542 21.8406C17.7542 21.0642 18.312 19.9629 18.0242 20.2698C16.9446 21.4794 14.2278 23.7543 12.2666 23.8806C15.0194 23.7904 16.0989 25.1806 16.9266 26.9499Z" fill="black"/>
<path d="M4.58398 18.1936C5.60953 17.4534 10.9173 14.619 12.1948 14.2217C13.4722 13.8065 13.0764 13.319 13.0764 13.319C13.0764 13.319 7.89454 15.5577 4.79987 17.4895" fill="black"/>
<path opacity="0.4" d="M19.697 12.976C19.2831 12.8136 18.9593 13.3011 19.0673 13.7705C19.1753 14.2399 20.1469 14.7634 20.0928 16.4786C20.0569 17.8868 19.751 18.4645 19.751 18.4645L19.0673 17.598C19.0673 17.598 18.9593 15.6481 18.7254 15.3592C18.4916 15.0703 17.7538 14.5468 17.466 14.276C17.1781 14.0051 17.7898 13.6441 17.7538 13.1385C17.7179 12.6511 18.0597 11.6762 18.0597 11.6762L19.697 12.976Z" fill="black"/>
<path opacity="0.4" d="M22.1979 20.667C22.162 22.021 22.4679 24.0251 22.5937 24.982C22.7197 25.9388 22.8816 26.0111 22.5937 26.4444C22.3059 26.8597 21.928 27.5457 21.928 27.5457L20.6865 27.4373C20.6865 27.4373 21.6761 26.1736 21.73 25.9388C21.784 25.7042 21.2262 23.9169 21.2262 23.9169L22.1979 20.667Z" fill="black"/>
<path opacity="0.4" d="M19.8057 8.02924C20.0576 8.5888 20.3634 8.84159 20.8491 9.00415C21.137 9.11247 22.2705 9.25695 22.7204 8.75136C22.9183 8.51665 22.7923 7.88477 22.7923 7.88477L21.7668 8.7152L20.3813 8.4625L20.2194 8.04724L19.8057 8.02924Z" fill="black"/>
<path d="M19.9134 9.27493C20.3812 9.58188 21.5508 9.87075 21.8746 9.9249C22.1984 9.99705 22.7202 9.58188 22.9721 9.47357C23.2421 9.34717 23.7099 9.27493 24.2496 9.76243C24.3036 9.81659 24.1237 10.0513 24.1237 10.0513C24.1056 10.0332 23.9977 10.0332 23.8537 9.96098C23.7098 9.88883 23.5839 9.83458 23.368 9.85267C22.4683 9.96098 22.3244 10.2679 21.5328 10.0873C20.7411 9.90665 20.5432 9.76234 19.7695 9.79842" fill="#88CE02"/>
<path d="M19.9134 9.27493C20.3812 9.58188 21.5508 9.87075 21.8746 9.9249C22.1984 9.99705 22.7202 9.58188 22.9721 9.47357C23.2421 9.34717 23.7099 9.27493 24.2496 9.76243C24.3036 9.81659 24.1237 10.0513 24.1237 10.0513C24.1056 10.0332 23.9977 10.0332 23.8537 9.96098C23.7098 9.88883 23.5839 9.83458 23.368 9.85267C22.4683 9.96098 22.3244 10.2679 21.5328 10.0873C20.7411 9.90665 20.5432 9.76234 19.7695 9.79842" stroke="black" stroke-width="0.3" stroke-miterlimit="10" stroke-linejoin="round"/>
<path d="M19.7516 9.3291C20.3454 9.58189 21.4969 9.85268 21.8207 9.92492C22.1445 9.99716 22.6663 9.67213 22.9183 9.50966C23.3681 9.22079 23.9438 9.4555 24.2138 9.76245C24.3936 9.96099 24.4657 10.0874 24.4657 10.1415C24.4657 10.2137 24.2498 10.1415 24.2498 10.1415C24.1238 10.0874 23.9798 10.0694 23.872 9.99707C23.728 9.92492 23.584 9.8166 23.3682 9.83459C22.4686 9.943 22.2886 10.2499 21.515 10.0693C20.7414 9.88875 20.5434 9.72628 19.7158 9.78035" fill="#88CE02"/>
<path d="M16.9626 26.1915C16.9267 26.1555 16.9986 26.1194 16.9626 26.1194C16.7288 26.1194 16.4049 25.9388 16.2249 25.686C15.4513 24.5667 14.3177 23.8265 12.2666 23.8807C9.18984 23.9528 7.96633 22.6891 7.73251 20.2699C7.60655 18.952 7.24668 17.6701 6.50901 16.9479L6.07715 17.2188C6.90474 17.9409 7.17469 19.1144 7.35462 20.7212C7.6425 23.1405 9.58566 24.2599 11.8527 24.2959C14.2097 24.332 15.0553 24.8195 15.9369 26.0112C16.2248 26.3902 16.5487 26.5166 16.8005 26.5708L16.9626 26.1915Z" fill="black"/>
<path opacity="0.4" d="M25.3106 14.5828C25.3645 14.8536 25.5084 15.3772 25.7963 15.6299C25.9224 15.7563 25.9403 15.7924 25.8324 15.7924C25.7243 15.7924 24.9327 15.7563 24.9327 15.7563L24.7168 15.3772L25.3106 14.5828Z" fill="black"/>
</svg>
