<svg width="50" height="57" viewBox="0 0 50 57" fill="none" xmlns="http://www.w3.org/2000/svg">
<path d="M49.2198 0.392639L44.7357 50.6254L24.5798 56.2133L4.4793 50.6332L0 0.392639H49.2198Z" fill="#E44D26"/>
<path d="M24.6104 51.9421L40.8974 47.4267L44.7293 4.50055H24.6104V51.9421Z" fill="#F16529"/>
<path d="M15.8933 16.8243H24.6101V10.6624H9.15918L9.30668 12.3155L10.8211 29.2958H24.6101V23.1341H16.4564L15.8933 16.8243Z" fill="#EBEBEB"/>
<path d="M17.2822 32.3768H11.0967L11.9599 42.0517L24.5819 45.5557L24.6103 45.5478V39.1369L24.5833 39.1441L17.7208 37.2911L17.2822 32.3768Z" fill="#EBEBEB"/>
<path d="M24.5889 29.2958H32.1764L31.4612 37.2872L24.5889 39.1421V45.5527L37.2209 42.0517L37.3136 41.0107L38.7615 24.7887L38.9119 23.1341H24.5889V29.2958Z" fill="white"/>
<path d="M24.5889 16.8092V16.8243H39.4726L39.5962 15.4393L39.8769 12.3155L40.0243 10.6624H24.5889V16.8092Z" fill="white"/>
</svg>
