<svg width="95" height="13" viewBox="0 0 95 13" fill="none" xmlns="http://www.w3.org/2000/svg">
<g clip-path="url(#clip0_22_373)">
<path fill-rule="evenodd" clip-rule="evenodd" d="M0.383789 0.962229H3.57663V3.03612H0.383789V0.962229ZM0.383789 3.98697H3.57663V11.9381H0.383789V3.98697ZM5.40672 3.98697H8.3799V5.28222C8.82445 4.75313 9.27421 4.37505 9.72921 4.14794C10.1842 3.92083 10.7386 3.80728 11.3923 3.80728C12.2762 3.80728 12.9678 4.05809 13.4673 4.55972C13.9667 5.06135 14.2164 5.83625 14.2164 6.88443V11.9381H11.0079V7.56575C11.0079 7.06661 10.9112 6.71348 10.7177 6.50634C10.5242 6.2992 10.2522 6.19563 9.9018 6.19563C9.51479 6.19563 9.201 6.33538 8.96042 6.6149C8.71985 6.89441 8.59956 7.39604 8.59956 8.11978V11.9381H5.40672V3.98697ZM19.4669 3.98697H20.9888V6.21809H19.4669V11.9381H16.2662V6.21809H15.0738V3.98697H16.2662V3.62759C16.2662 3.30316 16.3028 2.94628 16.376 2.55696C16.4492 2.16763 16.5865 1.84944 16.7879 1.60237C16.9892 1.35529 17.2716 1.15564 17.6351 1.00341C17.9986 0.851172 18.5307 0.775055 19.2315 0.775055C19.7911 0.775055 20.6044 0.837446 21.6713 0.962229L21.3183 2.80403C20.9365 2.74413 20.6279 2.71418 20.3926 2.71418C20.1049 2.71418 19.8983 2.76035 19.7728 2.85269C19.6473 2.94503 19.5584 3.09103 19.5061 3.29068C19.48 3.40049 19.4669 3.63258 19.4669 3.98697ZM21.2891 7.98502C21.2891 6.77212 21.718 5.77262 22.5757 4.98648C23.4334 4.20034 24.5918 3.80728 26.0509 3.80728C27.7193 3.80728 28.9797 4.26897 29.8321 5.19237C30.5172 5.93608 30.8598 6.85198 30.8598 7.94009C30.8598 9.16297 30.4349 10.165 29.585 10.9461C28.7352 11.7273 27.5598 12.1178 26.0588 12.1178C24.7199 12.1178 23.6373 11.7934 22.811 11.1445C21.7964 10.3409 21.2891 9.28776 21.2891 7.98502ZM24.4898 7.97753C24.4898 8.6863 24.6402 9.21038 24.9409 9.54979C25.2416 9.88921 25.6195 10.0589 26.0745 10.0589C26.5347 10.0589 26.9125 9.8917 27.208 9.55728C27.5035 9.22286 27.6513 8.6863 27.6513 7.94758C27.6513 7.25878 27.5022 6.74592 27.2041 6.40901C26.906 6.07209 26.5373 5.90364 26.098 5.90364C25.6325 5.90364 25.2481 6.07459 24.9448 6.41649C24.6415 6.7584 24.4898 7.27874 24.4898 7.97753ZM32.2114 3.98697H35.1924V5.14745C35.6212 4.66329 36.054 4.31889 36.4907 4.11425C36.9274 3.9096 37.4543 3.80728 38.0714 3.80728C38.7356 3.80728 39.2612 3.91959 39.6482 4.1442C40.0352 4.36881 40.3517 4.70322 40.5975 5.14745C41.0995 4.62835 41.5571 4.27522 41.9703 4.08804C42.3835 3.90087 42.8934 3.80728 43.5 3.80728C44.3944 3.80728 45.0925 4.06059 45.5946 4.56721C46.0967 5.07383 46.3477 5.8662 46.3477 6.94433V11.9381H43.147V7.40852C43.147 7.04914 43.0738 6.78211 42.9274 6.60741C42.7129 6.33289 42.4462 6.19563 42.1272 6.19563C41.7506 6.19563 41.4473 6.3254 41.2172 6.58495C40.9871 6.8445 40.872 7.26127 40.872 7.83528V11.9381H37.6713V7.55826C37.6713 7.20886 37.6504 6.97178 37.6086 6.847C37.5406 6.64734 37.4229 6.48637 37.2556 6.36409C37.0882 6.2418 36.8921 6.18065 36.6672 6.18065C36.3011 6.18065 36.0004 6.31292 35.7651 6.57746C35.5297 6.84201 35.412 7.27625 35.412 7.8802V11.9381H32.2114V3.98697ZM50.9549 6.56249L47.9032 6.25552C48.0183 5.74641 48.1843 5.34586 48.4014 5.05386C48.6184 4.76187 48.9309 4.50856 49.3388 4.29394C49.6317 4.1392 50.0344 4.01941 50.5469 3.93456C51.0595 3.84971 51.6138 3.80728 52.21 3.80728C53.1671 3.80728 53.9359 3.85844 54.5164 3.96076C55.0969 4.06309 55.5807 4.27646 55.9677 4.6009C56.2397 4.82551 56.4541 5.14371 56.611 5.55549C56.7679 5.96728 56.8463 6.36034 56.8463 6.73469V10.2461C56.8463 10.6204 56.8712 10.9137 56.9208 11.1258C56.9705 11.3379 57.079 11.6087 57.2464 11.9381H54.2497C54.1294 11.7335 54.0509 11.5775 54.0143 11.4702C53.9777 11.3629 53.9411 11.1944 53.9045 10.9648C53.4861 11.3492 53.0704 11.6237 52.6572 11.7884C52.0924 12.008 51.436 12.1178 50.6881 12.1178C49.6945 12.1178 48.9401 11.8982 48.4249 11.459C47.9098 11.0197 47.6522 10.4782 47.6522 9.8343C47.6522 9.23035 47.8379 8.73372 48.2092 8.34439C48.5805 7.95507 49.2656 7.66557 50.2645 7.4759C51.4622 7.2463 52.2388 7.08533 52.5944 6.99299C52.9501 6.90065 53.3266 6.77961 53.7241 6.62987C53.7241 6.25552 53.643 5.99348 53.4809 5.84374C53.3188 5.694 53.0337 5.61913 52.6258 5.61913C52.1028 5.61913 51.7106 5.69899 51.4491 5.85871C51.2451 5.9835 51.0804 6.21809 50.9549 6.56249ZM53.7241 8.1647C53.2848 8.31444 52.8272 8.44671 52.3512 8.56151C51.7027 8.72623 51.2922 8.88844 51.1196 9.04817C50.9418 9.21288 50.8529 9.40005 50.8529 9.60969C50.8529 9.84928 50.9405 10.0452 51.1157 10.1974C51.2909 10.3497 51.5485 10.4258 51.8884 10.4258C52.244 10.4258 52.5748 10.3434 52.8808 10.1787C53.1867 10.014 53.4038 9.81309 53.5319 9.576C53.66 9.33891 53.7241 9.0307 53.7241 8.65136V8.1647ZM58.5509 3.98697H61.5241V5.28222C61.9686 4.75313 62.4184 4.37505 62.8734 4.14794C63.3284 3.92083 63.8827 3.80728 64.5365 3.80728C65.4203 3.80728 66.112 4.05809 66.6114 4.55972C67.1109 5.06135 67.3606 5.83625 67.3606 6.88443V11.9381H64.1521V7.56575C64.1521 7.06661 64.0553 6.71348 63.8618 6.50634C63.6683 6.2992 63.3964 6.19563 63.046 6.19563C62.659 6.19563 62.3452 6.33538 62.1046 6.6149C61.864 6.89441 61.7437 7.39604 61.7437 8.11978V11.9381H58.5509V3.98697ZM69.175 0.962229H72.3679V3.03612H69.175V0.962229ZM69.175 3.98697H72.3679V11.9381H69.175V3.98697ZM77.1084 6.56249L74.0567 6.25552C74.1718 5.74641 74.3378 5.34586 74.5549 5.05386C74.7719 4.76187 75.0844 4.50856 75.4923 4.29394C75.7852 4.1392 76.1879 4.01941 76.7004 3.93456C77.213 3.84971 77.7673 3.80728 78.3635 3.80728C79.3206 3.80728 80.0894 3.85844 80.6699 3.96076C81.2504 4.06309 81.7342 4.27646 82.1212 4.6009C82.3932 4.82551 82.6076 5.14371 82.7645 5.55549C82.9214 5.96728 82.9998 6.36034 82.9998 6.73469V10.2461C82.9998 10.6204 83.0247 10.9137 83.0744 11.1258C83.124 11.3379 83.2326 11.6087 83.3999 11.9381H80.4032C80.2829 11.7335 80.2045 11.5775 80.1679 11.4702C80.1312 11.3629 80.0946 11.1944 80.058 10.9648C79.6396 11.3492 79.2239 11.6237 78.8107 11.7884C78.2459 12.008 77.5895 12.1178 76.8417 12.1178C75.848 12.1178 75.0936 11.8982 74.5784 11.459C74.0633 11.0197 73.8057 10.4782 73.8057 9.8343C73.8057 9.23035 73.9914 8.73372 74.3627 8.34439C74.734 7.95507 75.4191 7.66557 76.418 7.4759C77.6157 7.2463 78.3923 7.08533 78.7479 6.99299C79.1036 6.90065 79.4801 6.77961 79.8776 6.62987C79.8776 6.25552 79.7965 5.99348 79.6344 5.84374C79.4723 5.694 79.1873 5.61913 78.7793 5.61913C78.2563 5.61913 77.8641 5.69899 77.6026 5.85871C77.3986 5.9835 77.2339 6.21809 77.1084 6.56249ZM79.8776 8.1647C79.4383 8.31444 78.9807 8.44671 78.5048 8.56151C77.8562 8.72623 77.4457 8.88844 77.2731 9.04817C77.0953 9.21288 77.0064 9.40005 77.0064 9.60969C77.0064 9.84928 77.094 10.0452 77.2692 10.1974C77.4444 10.3497 77.702 10.4258 78.0419 10.4258C78.3975 10.4258 78.7283 10.3434 79.0343 10.1787C79.3402 10.014 79.5573 9.81309 79.6854 9.576C79.8135 9.33891 79.8776 9.0307 79.8776 8.65136V8.1647ZM84.7044 0.962229H87.9679V6.62239L90.3527 3.98697H94.2829L91.2941 6.77213L94.4555 11.9381H90.8547L89.1681 8.74869L87.9679 9.87173V11.9381H84.7044V0.962229Z" fill="#0098FF"/>
</g>
<defs>
<clipPath id="clip0_22_373">
<rect width="95" height="12" fill="white" transform="translate(0 0.604797)"/>
</clipPath>
</defs>
</svg>
