<svg width="120" height="16" viewBox="0 0 120 16" fill="none" xmlns="http://www.w3.org/2000/svg">
<g clip-path="url(#clip0_22_373)">
<path fill-rule="evenodd" clip-rule="evenodd" d="M0.485352 1.26H4.51841V3.85237H0.485352V1.26ZM0.485352 5.04092H4.51841V14.9799H0.485352V5.04092ZM6.83011 5.04092H10.5857V6.65998C11.1472 5.99863 11.7154 5.52602 12.2901 5.24214C12.8648 4.95825 13.5651 4.81631 14.3909 4.81631C15.5073 4.81631 16.381 5.12983 17.0118 5.75687C17.6427 6.3839 17.9582 7.35252 17.9582 8.66275V14.9799H13.9053V9.51439C13.9053 8.89048 13.7831 8.44906 13.5387 8.19014C13.2942 7.93121 12.9507 7.80175 12.5081 7.80175C12.0192 7.80175 11.6229 7.97644 11.319 8.32584C11.0151 8.67523 10.8632 9.30226 10.8632 10.2069V14.9799H6.83011V5.04092ZM24.5903 5.04092H26.5127V7.82982H24.5903V14.9799H20.5473V7.82982H19.0411V5.04092H20.5473V4.59171C20.5473 4.18616 20.5936 3.74006 20.6861 3.25341C20.7786 2.76675 20.952 2.36901 21.2063 2.06017C21.4606 1.75133 21.8174 1.50177 22.2765 1.31147C22.7356 1.12118 23.4078 1.02603 24.293 1.02603C24.9999 1.02603 26.0271 1.10402 27.3748 1.26L26.9289 3.56225C26.4466 3.48738 26.0569 3.44994 25.7596 3.44994C25.3963 3.44994 25.1353 3.50765 24.9768 3.62308C24.8182 3.7385 24.7059 3.921 24.6398 4.17056C24.6068 4.30782 24.5903 4.59794 24.5903 5.04092ZM26.8921 10.0385C26.8921 8.52236 27.4338 7.27298 28.5172 6.29031C29.6006 5.30764 31.0639 4.81631 32.907 4.81631C35.0144 4.81631 36.6064 5.39343 37.6832 6.54768C38.5487 7.47732 38.9814 8.62219 38.9814 9.98233C38.9814 11.5109 38.4446 12.7634 37.3711 13.7399C36.2976 14.7163 34.8129 15.2045 32.9169 15.2045C31.2257 15.2045 29.8583 14.799 28.8145 13.9879C27.5329 12.9834 26.8921 11.6669 26.8921 10.0385ZM30.9351 10.0291C30.9351 10.9151 31.125 11.5702 31.5048 11.9945C31.8847 12.4187 32.362 12.6308 32.9367 12.6308C33.5181 12.6308 33.9954 12.4218 34.3686 12.0038C34.7419 11.5858 34.9285 10.9151 34.9285 9.99169C34.9285 9.13068 34.7402 8.48962 34.3637 8.06847C33.9871 7.64733 33.5214 7.43676 32.9665 7.43676C32.3785 7.43676 31.893 7.65045 31.5098 8.07783C31.1266 8.50521 30.9351 9.15564 30.9351 10.0291ZM40.6886 5.04092H44.4541V6.49153C44.9958 5.88633 45.5425 5.45583 46.0941 5.20002C46.6457 4.94422 47.3113 4.81631 48.0908 4.81631C48.9298 4.81631 49.5937 4.95669 50.0825 5.23746C50.5714 5.51822 50.9711 5.93624 51.2816 6.49153C51.9158 5.84265 52.4938 5.40124 53.0157 5.16727C53.5376 4.9333 54.1817 4.81631 54.948 4.81631C56.0776 4.81631 56.9596 5.13295 57.5938 5.76623C58.2279 6.3995 58.545 7.38996 58.545 8.73762V14.9799H54.5021V9.31786C54.5021 8.86864 54.4096 8.53485 54.2246 8.31648C53.9538 7.97332 53.6168 7.80175 53.2139 7.80175C52.7382 7.80175 52.3551 7.96396 52.0644 8.2884C51.7737 8.61284 51.6284 9.1338 51.6284 9.85131V14.9799H47.5854V9.50504C47.5854 9.06829 47.559 8.77194 47.5061 8.61596C47.4203 8.36639 47.2716 8.16518 47.0602 8.01232C46.8488 7.85946 46.6011 7.78303 46.317 7.78303C45.8546 7.78303 45.4748 7.94837 45.1775 8.27904C44.8802 8.60972 44.7316 9.15252 44.7316 9.90746V14.9799H40.6886V5.04092ZM64.3646 8.26033L60.5099 7.87662C60.6552 7.24022 60.865 6.73953 61.1391 6.37454C61.4133 6.00955 61.808 5.69292 62.3233 5.42463C62.6932 5.23122 63.2019 5.08148 63.8493 4.97541C64.4967 4.86935 65.197 4.81631 65.9501 4.81631C67.159 4.81631 68.1301 4.88027 68.8634 5.00817C69.5967 5.13607 70.2077 5.40279 70.6966 5.80834C71.0401 6.0891 71.311 6.48684 71.5092 7.00158C71.7073 7.51631 71.8064 8.00764 71.8064 8.47558V12.8648C71.8064 13.3328 71.8378 13.6993 71.9006 13.9645C71.9633 14.2296 72.1004 14.5681 72.3118 14.9799H68.5265C68.3745 14.7241 68.2754 14.5291 68.2292 14.395C68.183 14.2608 68.1367 14.0503 68.0905 13.7633C67.562 14.2437 67.0368 14.5868 66.5149 14.7927C65.8014 15.0672 64.9724 15.2045 64.0277 15.2045C62.7725 15.2045 61.8196 14.93 61.1689 14.3809C60.5182 13.8319 60.1928 13.1549 60.1928 12.3501C60.1928 11.5951 60.4273 10.9744 60.8964 10.4877C61.3654 10.001 62.2308 9.63918 63.4926 9.40209C65.0054 9.11509 65.9864 8.91388 66.4356 8.79845C66.8849 8.68303 67.3605 8.53173 67.8626 8.34455C67.8626 7.87662 67.7602 7.54906 67.5554 7.36189C67.3506 7.17471 66.9906 7.08113 66.4753 7.08113C65.8147 7.08113 65.3192 7.18095 64.9889 7.38061C64.7312 7.53658 64.5232 7.82982 64.3646 8.26033ZM67.8626 10.2631C67.3076 10.4503 66.7296 10.6156 66.1284 10.7591C65.3093 10.965 64.7907 11.1678 64.5727 11.3674C64.3481 11.5733 64.2358 11.8073 64.2358 12.0693C64.2358 12.3688 64.3464 12.6137 64.5677 12.804C64.789 12.9943 65.1144 13.0894 65.5438 13.0894C65.993 13.0894 66.4109 12.9865 66.7973 12.7806C67.1838 12.5747 67.4579 12.3236 67.6198 12.0272C67.7816 11.7309 67.8626 11.3456 67.8626 10.8714V10.2631ZM73.9596 5.04092H77.7152V6.65998C78.2767 5.99863 78.8448 5.52602 79.4196 5.24214C79.9943 4.95825 80.6946 4.81631 81.5203 4.81631C82.6368 4.81631 83.5104 5.12983 84.1413 5.75687C84.7722 6.3839 85.0877 7.35252 85.0877 8.66275V14.9799H81.0348V9.51439C81.0348 8.89048 80.9126 8.44906 80.6681 8.19014C80.4237 7.93121 80.0802 7.80175 79.6376 7.80175C79.1487 7.80175 78.7524 7.97644 78.4485 8.32584C78.1446 8.67523 77.9926 9.30226 77.9926 10.2069V14.9799H73.9596V5.04092ZM87.3795 1.26H91.4126V3.85237H87.3795V1.26ZM87.3795 5.04092H91.4126V14.9799H87.3795V5.04092ZM97.4006 8.26033L93.5459 7.87662C93.6913 7.24022 93.901 6.73953 94.1752 6.37454C94.4493 6.00955 94.844 5.69292 95.3593 5.42463C95.7293 5.23122 96.2379 5.08148 96.8853 4.97541C97.5327 4.86935 98.233 4.81631 98.9861 4.81631C100.195 4.81631 101.166 4.88027 101.899 5.00817C102.633 5.13607 103.244 5.40279 103.733 5.80834C104.076 6.0891 104.347 6.48684 104.545 7.00158C104.743 7.51631 104.842 8.00764 104.842 8.47558V12.8648C104.842 13.3328 104.874 13.6993 104.937 13.9645C104.999 14.2296 105.136 14.5681 105.348 14.9799H101.562C101.411 14.7241 101.311 14.5291 101.265 14.395C101.219 14.2608 101.173 14.0503 101.126 13.7633C100.598 14.2437 100.073 14.5868 99.5509 14.7927C98.8375 15.0672 98.0084 15.2045 97.0637 15.2045C95.8085 15.2045 94.8556 14.93 94.2049 14.3809C93.5542 13.8319 93.2288 13.1549 93.2288 12.3501C93.2288 11.5951 93.4633 10.9744 93.9324 10.4877C94.4014 10.001 95.2668 9.63918 96.5286 9.40209C98.0414 9.11509 99.0224 8.91388 99.4717 8.79845C99.9209 8.68303 100.397 8.53173 100.899 8.34455C100.899 7.87662 100.796 7.54906 100.591 7.36189C100.387 7.17471 100.027 7.08113 99.5113 7.08113C98.8507 7.08113 98.3552 7.18095 98.0249 7.38061C97.7673 7.53658 97.5592 7.82982 97.4006 8.26033ZM100.899 10.2631C100.344 10.4503 99.7656 10.6156 99.1645 10.7591C98.3453 10.965 97.8267 11.1678 97.6087 11.3674C97.3841 11.5733 97.2718 11.8073 97.2718 12.0693C97.2718 12.3688 97.3825 12.6137 97.6038 12.804C97.8251 12.9943 98.1504 13.0894 98.5798 13.0894C99.029 13.0894 99.4469 12.9865 99.8333 12.7806C100.22 12.5747 100.494 12.3236 100.656 12.0272C100.818 11.7309 100.899 11.3456 100.899 10.8714V10.2631ZM106.996 1.26H111.118V8.3352L114.13 5.04092H119.095L115.319 8.52237L119.313 14.9799H114.764L112.634 10.9931L111.118 12.3969V14.9799H106.996V1.26Z" fill="#0098FF"/>
</g>
<defs>
<clipPath id="clip0_22_373">
<rect width="120" height="15" fill="white" transform="translate(0 0.813232)"/>
</clipPath>
</defs>
</svg>
