<svg width="50" height="50" viewBox="0 0 50 50" fill="none" xmlns="http://www.w3.org/2000/svg">
<g clip-path="url(#clip0_22_707)">
<path d="M0 0.213257H49.3916V49.6048H0V0.213257Z" fill="#F7DF1E"/>
<path d="M12.9864 41.4885L16.7662 39.201C17.4954 40.4939 18.1587 41.5878 19.7498 41.5878C21.275 41.5878 22.2366 40.9912 22.2366 38.6705V22.8888H26.8781V38.7362C26.8781 43.5436 24.0602 45.7318 19.9488 45.7318C16.2357 45.7318 14.0804 43.8088 12.9863 41.4881" fill="black"/>
<path d="M29.3994 40.9911L33.1787 38.8029C34.1736 40.4276 35.4667 41.6211 37.7542 41.6211C39.6774 41.6211 40.9038 40.6595 40.9038 39.3333C40.9038 37.7419 39.644 37.1782 37.5221 36.2502L36.362 35.7525C33.0132 34.3271 30.7917 32.5368 30.7917 28.7571C30.7917 25.2759 33.444 22.6234 37.5885 22.6234C40.5393 22.6234 42.6612 23.6513 44.1862 26.3368L40.5723 28.6575C39.7765 27.232 38.9147 26.6685 37.5886 26.6685C36.2292 26.6685 35.3672 27.5305 35.3672 28.6575C35.3672 30.0501 36.2292 30.6138 38.2183 31.4759L39.3786 31.9732C43.3241 33.6642 45.5455 35.388 45.5455 39.267C45.5455 43.4447 42.2633 45.7322 37.8538 45.7322C33.5437 45.7322 30.7585 43.6767 29.3994 40.9911Z" fill="black"/>
</g>
<defs>
<clipPath id="clip0_22_707">
<rect width="49.3916" height="49.3916" fill="white" transform="translate(0 0.213257)"/>
</clipPath>
</defs>
</svg>
