<svg width="45" height="48" viewBox="0 0 45 48" fill="none" xmlns="http://www.w3.org/2000/svg">
<g clip-path="url(#clip0_66_1581)">
<path d="M44.9746 11.3072C44.9913 11.3698 45 11.4343 45 11.499V21.5699C45 21.833 44.861 22.076 44.6357 22.2069L36.2898 27.0734V36.7193C36.2898 36.9818 36.1521 37.2241 35.9273 37.3563L18.5061 47.5134C18.4662 47.5363 18.4227 47.551 18.3792 47.5666C18.3629 47.5721 18.3475 47.5822 18.3302 47.5868C18.2085 47.6193 18.0805 47.6193 17.9587 47.5868C17.9387 47.5813 17.9206 47.5703 17.9016 47.5629C17.8617 47.5483 17.82 47.5354 17.782 47.5134L0.364321 37.3563C0.139108 37.2252 0 36.9823 0 36.7193V6.50677C0 6.44068 0.00906271 6.37643 0.0253756 6.31401C0.0308132 6.2929 0.043501 6.27363 0.0507512 6.25252C0.0643453 6.21397 0.0770331 6.1745 0.096971 6.1387C0.110565 6.11484 0.130503 6.09556 0.146816 6.07353C0.16766 6.04416 0.186692 6.01387 0.211161 5.98817C0.232005 5.96706 0.259194 5.95146 0.282757 5.9331C0.309039 5.91107 0.332602 5.8872 0.362509 5.86977H0.363415L9.07268 0.791209C9.2971 0.660417 9.57328 0.660417 9.7977 0.791209L18.507 5.86977H18.5088C18.5378 5.88812 18.5623 5.91107 18.5885 5.93218C18.6121 5.95054 18.6384 5.96706 18.6592 5.98725C18.6846 6.01387 18.7027 6.04416 18.7245 6.07353C18.7399 6.09556 18.7607 6.11484 18.7734 6.1387C18.7943 6.17542 18.806 6.21397 18.8205 6.25252C18.8278 6.27363 18.8405 6.2929 18.8459 6.31493C18.8626 6.37748 18.8711 6.44197 18.8713 6.50677V25.3772L26.1287 21.1449V11.4981C26.1287 11.4339 26.1378 11.3687 26.1541 11.3072C26.1604 11.2852 26.1722 11.2659 26.1795 11.2448C26.194 11.2062 26.2067 11.1668 26.2266 11.131C26.2402 11.1071 26.2601 11.0878 26.2755 11.0658C26.2973 11.0364 26.3154 11.0061 26.3408 10.9804C26.3616 10.9593 26.3879 10.9437 26.4115 10.9254C26.4387 10.9033 26.4622 10.8795 26.4912 10.862H26.4921L35.2023 5.78349C35.4267 5.65251 35.7029 5.65251 35.9273 5.78349L44.6366 10.862C44.6674 10.8804 44.691 10.9033 44.7182 10.9245C44.7408 10.9428 44.7671 10.9593 44.7879 10.9795C44.8133 11.0061 44.8314 11.0364 44.8532 11.0658C44.8695 11.0878 44.8894 11.1071 44.9021 11.131C44.923 11.1668 44.9347 11.2062 44.9492 11.2448C44.9574 11.2659 44.9692 11.2852 44.9746 11.3072ZM43.5482 21.1449V12.7703L40.5004 14.5473L36.2898 17.0026V25.3772L43.5491 21.1449H43.5482ZM34.8389 36.2943V27.9142L30.6972 30.3098L18.8704 37.1461V45.6051L34.8389 36.2943ZM1.45185 7.77801V36.2943L17.4185 45.6042V37.147L9.07721 32.3658L9.0745 32.364L9.07087 32.3622C9.04278 32.3456 9.01921 32.3218 8.99293 32.3016C8.97027 32.2832 8.94399 32.2685 8.92405 32.2483L8.92224 32.2456C8.89868 32.2226 8.88237 32.1942 8.86243 32.1685C8.8443 32.1437 8.82255 32.1226 8.80805 32.0969L8.80715 32.0941C8.79083 32.0666 8.78086 32.0336 8.76908 32.0024C8.7573 31.9748 8.74189 31.9491 8.73464 31.9197V31.9188C8.72558 31.8839 8.72377 31.8472 8.72014 31.8114C8.71652 31.7839 8.70927 31.7564 8.70927 31.7288V31.727V12.0103L4.49964 9.55408L1.45185 7.77893V7.77801ZM9.4361 2.27632L2.17958 6.50677L9.43429 10.7372L16.6899 6.50585L9.43429 2.27632H9.4361ZM13.2098 28.6778L17.4194 26.2235V7.77801L14.3717 9.555L10.1611 12.0103V30.4557L13.2098 28.6778ZM35.5648 7.26859L28.3092 11.499L35.5648 15.7295L42.8195 11.4981L35.5648 7.26859ZM34.8389 17.0026L30.6283 14.5473L27.5806 12.7703V21.1449L31.7902 23.5993L34.8389 25.3772V17.0026ZM18.1436 35.8748L28.7859 29.7215L34.1057 26.6466L26.8555 22.4189L18.5079 27.2864L10.8997 31.7224L18.1436 35.8748Z" fill="#FF2D20"/>
</g>
<defs>
<clipPath id="clip0_66_1581">
<rect width="45" height="47" fill="white" transform="translate(0 0.693115)"/>
</clipPath>
</defs>
</svg>
