<svg width="70" height="49" viewBox="0 0 70 49" fill="none" xmlns="http://www.w3.org/2000/svg">
<g clip-path="url(#clip0_22_801)">
<path d="M20.8236 32.0373L22.951 38.981C23.4289 40.5576 23.6282 41.6582 23.5485 42.2855C24.712 39.1508 25.5249 35.7346 25.9873 32.0373H28.5453C27.4455 38.0566 25.9948 42.4309 24.194 45.1597C22.791 47.2623 21.254 48.3136 19.5803 48.3136C19.1341 48.3136 18.5839 48.178 17.931 47.9087V46.4577C18.25 46.5048 18.6242 46.5299 19.0547 46.5299C19.8355 46.5299 20.4648 46.3122 20.9435 45.8778C21.5168 45.3484 21.8037 44.7534 21.8037 44.094C21.8037 43.6437 21.5799 42.7195 21.1344 41.3216L18.1702 32.0373H20.8236ZM4.54235 27.7693L8.43895 39.729H8.46286L12.3834 27.7693H15.5864C16.2878 33.7004 16.702 39.1273 16.8292 44.0461H14.1287C14.0337 39.4479 13.7704 35.124 13.3401 31.0737H13.3163L9.20406 44.0461H7.14764L3.06033 31.0737H3.03625C2.73297 34.9635 2.54217 39.2874 2.4626 44.0461H0C0.159138 38.2587 0.5574 32.8335 1.19479 27.7693H4.54235Z" fill="#00758F"/>
<path d="M48.1933 27.5278C52.3846 27.5278 54.4805 30.2217 54.4805 35.6065C54.4805 38.5328 53.8502 40.7431 52.5908 42.2364C52.3638 42.5092 52.113 42.7449 51.8489 42.9634L54.815 44.4387L54.8121 44.4385L53.759 46.2681L49.8963 44.0008C49.256 44.1915 48.5516 44.2869 47.7838 44.2869C45.7258 44.2869 44.1886 43.6835 43.1721 42.4783C42.0565 41.145 41.4991 39.0461 41.4991 36.185C41.4991 33.2753 42.1281 31.0734 43.3879 29.5782C44.5352 28.2106 46.1374 27.5278 48.1933 27.5278ZM35.3581 27.5516C36.8561 27.5516 38.2184 27.9548 39.4453 28.7584L38.822 30.1553C37.7722 29.7064 36.737 29.481 35.7163 29.481C34.8882 29.481 34.2499 29.6816 33.805 30.0851C33.3576 30.485 33.081 30.9998 33.081 31.6271C33.081 32.5911 33.7638 33.4273 35.0244 34.1337C35.3635 34.3192 35.8052 34.5666 36.2591 34.8229L36.3532 34.8761C36.3689 34.885 36.3846 34.8939 36.4003 34.9027L36.4945 34.9561C36.5102 34.965 36.5259 34.9739 36.5416 34.9828L36.6357 35.0361C37.59 35.5773 38.4879 36.0939 38.4879 36.0939C39.7485 36.9941 40.3768 37.9537 40.3768 39.5345C40.3768 40.9148 39.8739 42.0481 38.8716 42.9347C37.8685 43.8175 36.5208 44.2601 34.8332 44.2601C33.2547 44.2601 31.725 43.7507 30.2432 42.7403L30.9364 41.3421C32.2116 41.985 33.3655 42.3061 34.4016 42.3061C35.3735 42.3061 36.1342 42.088 36.6845 41.6569C37.2336 41.2228 37.5627 40.6173 37.5627 39.8493C37.5627 38.8828 36.8945 38.0567 35.6684 37.3637C35.3501 37.1875 34.9424 36.9573 34.5207 36.7176L34.4268 36.6642C34.2543 36.566 34.0805 36.4668 33.9103 36.3695L33.8179 36.3166C32.9902 35.843 32.2745 35.4291 32.2745 35.4291C31.0489 34.5273 30.4344 33.5597 30.4344 31.9654C30.4344 30.6469 30.8926 29.5812 31.8079 28.7703C32.7252 27.9578 33.9088 27.5516 35.3581 27.5516ZM59.4063 27.7693V42.0439H64.4974V44.0461H56.8242V27.7693H59.4063ZM67.3265 42.0501V42.3884H66.7666V44.0444H66.3388V42.3884H65.7572V42.0501H67.3265ZM68.3601 42.0501L68.8975 43.4095L69.3912 42.0501H69.9977V44.0444H69.5944V42.5266L69.0325 44.0444H68.7417L68.1789 42.5266H68.1572V44.0444H67.7756V42.0501H68.3601ZM47.9296 29.5295C45.4596 29.5295 44.224 31.5801 44.224 35.6787C44.224 38.0264 44.5514 39.729 45.2051 40.79C45.8104 41.7721 46.7585 42.262 48.0496 42.262C50.5195 42.262 51.7551 40.1955 51.7551 36.0641C51.7551 33.7492 51.4277 32.0614 50.7749 30.9999C50.1688 30.02 49.221 29.5295 47.9296 29.5295Z" fill="#F29111"/>
<path d="M41.4551 1.37174C42.2745 -0.653619 45.1394 0.880107 46.2513 1.58772C46.5238 1.76463 46.8362 2.1386 47.1486 2.27685C47.6361 2.29618 48.123 2.33442 48.6113 2.355C49.527 2.57141 50.3847 2.74831 51.1063 3.16179C54.4598 5.14849 56.6428 7.173 58.652 10.5169C59.0811 11.2254 59.2956 11.9918 59.6464 12.7583C60.133 13.9008 60.68 15.1001 61.2449 16.1805C61.4977 16.6927 61.6935 17.2622 62.0447 17.6947C62.1818 17.8925 62.5713 17.9508 62.8042 18.069C63.4478 18.4041 64.2277 18.6586 64.833 19.052C65.9636 19.7611 67.0567 20.6061 68.0503 21.4711C68.4207 21.8051 68.6731 22.2779 69.026 22.6311V22.8093C68.7127 22.906 68.4007 23.005 68.0882 23.0843C67.4058 23.2607 66.8014 23.2208 66.1394 23.3973C65.7303 23.5166 65.2225 23.6742 64.7934 23.7141C64.8126 23.7335 64.833 23.7543 64.833 23.7543C65.0854 24.4798 66.451 25.0699 67.0755 25.5037C67.8341 26.0544 68.5369 26.7224 69.1026 27.4893C69.298 27.6851 69.4934 27.8632 69.6879 28.0584C69.8237 28.2561 69.8621 28.5119 69.9995 28.6884V28.7479C69.8473 28.6938 69.7378 28.5908 69.6339 28.4829L69.572 28.4179C69.5101 28.3531 69.4476 28.2897 69.3763 28.2373C68.946 27.9415 68.5186 27.5878 68.0882 27.3128C67.3484 26.8406 66.4902 26.5665 65.7303 26.0925C65.3008 25.8172 64.8913 25.5037 64.4818 25.1889C64.1106 24.9128 63.7019 24.3826 63.4686 23.9893C63.3312 23.772 63.3124 23.5166 63.1554 23.3595C63.1835 23.0969 63.4226 23.0188 63.6638 22.9547L63.7194 22.9401C63.8026 22.9183 63.8841 22.8966 63.9552 22.8679C64.9688 22.4349 66.1773 22.2779 67.7379 22.3172C67.6791 21.923 66.7039 21.4319 66.3927 21.1959C65.7678 20.7428 65.1062 20.2701 64.4434 19.8578C64.0923 19.6418 63.487 19.4842 63.0979 19.3078C62.5713 19.0913 61.4011 18.8749 61.1095 18.4626C60.6138 17.8126 60.2578 17.0373 59.9122 16.2541L59.8181 16.0404C59.7867 15.9692 59.7553 15.8979 59.7239 15.8268C59.3152 14.8838 58.8078 13.9005 58.3983 12.9349C58.1842 12.4639 58.0858 12.0504 57.8513 11.5987C56.4286 8.82619 54.3228 6.50502 51.7695 4.87254C50.9305 4.34141 49.9948 3.84978 48.9621 3.51572C48.3767 3.33798 47.6744 3.4363 47.0507 3.29974H46.6404C46.29 3.20057 45.9976 2.82701 45.7243 2.62994C45.1207 2.21773 44.5162 1.94082 43.7942 1.64668C43.5414 1.5286 42.819 1.25379 42.567 1.47019C42.4107 1.50969 42.3316 1.56894 42.2933 1.72652C42.1379 1.96183 42.2745 2.31606 42.3712 2.53288C42.664 3.1615 43.0731 3.53505 43.4443 4.06619C43.7747 4.53723 44.185 5.06836 44.4191 5.58058C44.9245 6.6815 45.1598 7.90134 45.6281 9.00226C45.8018 9.41616 46.0763 9.8872 46.3292 10.2608C46.5433 10.557 46.9328 10.7713 47.0507 11.1465C47.2857 11.5398 46.6991 12.8378 46.5633 13.2501C46.0555 14.8629 46.1538 17.1048 46.7387 18.503C46.7491 18.5274 46.7595 18.5519 46.7699 18.5767L46.8011 18.6513C47.0146 19.1633 47.2432 19.7147 47.811 19.8579C47.8502 19.8189 47.811 19.8394 47.8885 19.8189C48.026 18.7367 48.0647 17.6946 48.4355 16.8479C48.6496 16.3186 49.0775 15.9443 49.3707 15.5122C49.5661 15.6298 49.5661 15.9849 49.6828 16.2198C49.9365 16.8291 50.2089 17.4971 50.5218 18.1082C51.1638 19.3667 51.8861 20.5867 52.7047 21.6876C52.9788 22.0807 53.3679 22.5136 53.7187 22.8678C53.8749 23.0048 54.0499 23.0841 54.1674 23.2606H54.2057V23.32C53.6208 23.103 53.25 22.4943 52.7835 22.139C51.9053 21.4709 50.8534 20.4677 50.2481 19.505C49.9948 18.9525 49.7211 18.4229 49.4482 17.873V17.8332C49.3316 17.9904 49.3707 18.1463 49.3124 18.384C49.0591 19.3667 49.2541 20.4877 48.3768 20.8411C47.3823 21.2551 46.6404 20.1731 46.3292 19.6815C45.3344 18.0494 45.0619 15.2963 45.7635 13.0739C45.9193 12.5818 45.9405 11.9918 46.2126 11.599C46.1538 11.2439 45.8818 11.1468 45.7243 10.9292C45.4514 10.5573 45.2177 10.1241 45.004 9.71101C44.5937 8.90422 44.3016 7.94029 43.99 7.0751C43.853 6.72171 43.8138 6.36706 43.6772 6.03259C43.4443 5.52204 43.0148 5.00982 42.6836 4.55811C42.2349 3.9089 40.9285 2.65082 41.4551 1.37174ZM47.8498 5.22479C47.9018 5.27731 47.9647 5.32325 48.0298 5.36843L48.1083 5.42265C48.2129 5.49546 48.3141 5.57226 48.3763 5.67692C48.4746 5.81517 48.493 5.95173 48.6109 6.0904C48.6109 6.56312 48.4746 6.87744 48.1997 7.07324C48.1997 7.07324 48.181 7.09384 48.1618 7.11317C48.006 6.79802 47.8693 6.48456 47.7123 6.16982C47.519 5.89501 47.2457 5.67693 47.0882 5.36304H47.0503V5.32354C47.2857 5.26513 47.519 5.22479 47.8498 5.22479Z" fill="#00758F"/>
</g>
<defs>
<clipPath id="clip0_22_801">
<rect width="70" height="48" fill="white" transform="translate(0 0.363159)"/>
</clipPath>
</defs>
</svg>
