<svg width="47" height="48" viewBox="0 0 47 48" fill="none" xmlns="http://www.w3.org/2000/svg">
<path d="M34.0625 16.4823L34.0453 16.4749C34.0355 16.4713 34.0256 16.4676 34.017 16.459C33.9885 16.4284 33.9758 16.3863 33.9827 16.345L34.9313 10.552L39.3796 14.9966L34.7533 16.9628C34.7405 16.968 34.7267 16.9705 34.7128 16.9701H34.6944C34.6883 16.9665 34.6821 16.9616 34.6699 16.9493C34.4977 16.7578 34.2918 16.5995 34.0625 16.4823ZM40.5147 16.1293L45.271 20.8804C46.2588 21.8683 46.7533 22.3611 46.9337 22.9323C46.9607 23.0169 46.9828 23.1015 47 23.1885L35.6332 18.3798C35.6271 18.3773 35.6209 18.3748 35.6148 18.3724C35.5694 18.354 35.5166 18.3332 35.5166 18.2866C35.5166 18.24 35.5706 18.218 35.616 18.1996L35.6307 18.1935L40.5147 16.1293ZM46.8061 24.7134C46.5607 25.1742 46.0821 25.6523 45.2722 26.4625L39.9097 31.8179L32.974 30.3752L32.9372 30.3678C32.8758 30.358 32.8108 30.347 32.8108 30.2918C32.7575 29.7141 32.4664 29.1845 32.007 28.8295C31.9788 28.8013 31.9862 28.7572 31.9948 28.7167C31.9948 28.7106 31.9948 28.7045 31.9972 28.6996L33.3016 20.7002L33.3065 20.6732C33.3139 20.6119 33.325 20.5408 33.3802 20.5408C33.9449 20.4707 34.4577 20.177 34.8036 19.7257C34.8147 19.7134 34.822 19.6999 34.8368 19.6926C34.876 19.6742 34.9227 19.6926 34.9632 19.7097L46.8049 24.7134H46.8061ZM38.6764 33.0498L29.8583 41.8582L31.3677 32.5914L31.3701 32.5791C31.3714 32.5669 31.3738 32.5546 31.3775 32.5436C31.3898 32.5142 31.4217 32.5019 31.4524 32.4897L31.4671 32.4835C31.7976 32.3427 32.0899 32.1255 32.3199 31.8498C32.3494 31.8155 32.385 31.7824 32.4304 31.7763C32.4422 31.7743 32.4542 31.7743 32.466 31.7763L38.6752 33.0511L38.6764 33.0498ZM27.9919 43.7226L26.9979 44.7155L16.009 28.8516C16.0051 28.8458 16.001 28.84 15.9968 28.8344C15.9796 28.8111 15.9612 28.7878 15.9649 28.7609C15.9661 28.7412 15.9784 28.7241 15.9919 28.7094L16.0041 28.6934C16.0373 28.6444 16.0655 28.5954 16.0962 28.5427L16.1207 28.4998L16.1244 28.4961C16.1416 28.4667 16.1575 28.4385 16.187 28.4225C16.2127 28.4103 16.2483 28.4152 16.2765 28.4213L28.4508 30.9292C28.4849 30.9345 28.517 30.9485 28.5441 30.9697C28.56 30.9856 28.5637 31.0028 28.5674 31.0224C28.7395 31.673 29.2062 32.2058 29.8289 32.4627C29.8632 32.4799 29.8485 32.5179 29.8326 32.5583C29.8246 32.576 29.8184 32.5945 29.8142 32.6135C29.6608 33.5451 28.3453 41.5592 27.9919 43.7226ZM25.9156 45.7954C25.183 46.5199 24.751 46.9035 24.2627 47.058C23.7811 47.2101 23.2643 47.2101 22.7827 47.058C22.2109 46.8766 21.7164 46.3838 20.7285 45.3958L9.69304 34.3724L12.5755 29.907C12.589 29.8849 12.6025 29.8653 12.6246 29.8493C12.6553 29.8273 12.6995 29.8371 12.7363 29.8493C13.3979 30.0487 14.1083 30.0128 14.7463 29.7476C14.7795 29.7353 14.8126 29.7268 14.8384 29.7501C14.8512 29.7618 14.8628 29.775 14.8727 29.7893L25.9156 45.7967V45.7954ZM8.62912 33.3097L6.09757 30.7809L11.0969 28.6505C11.1096 28.645 11.1234 28.6421 11.1374 28.642C11.1791 28.642 11.2036 28.6836 11.2257 28.7216C11.276 28.7988 11.3292 28.8741 11.3852 28.9472L11.4012 28.9668C11.4159 28.9876 11.4061 29.0085 11.3914 29.0281L8.63035 33.3097H8.62912ZM4.97721 29.6618L1.77442 26.4625C1.22958 25.9183 0.834443 25.5236 0.559568 25.1841L10.298 27.2017C10.3102 27.2039 10.3225 27.206 10.3348 27.2078C10.395 27.2176 10.4612 27.2286 10.4612 27.285C10.4612 27.3463 10.3888 27.3745 10.3275 27.3978L10.2992 27.4101L4.97721 29.6618ZM0 23.5391C0.0110983 23.333 0.0482055 23.1291 0.110441 22.9323C0.292055 22.3611 0.785358 21.8683 1.77442 20.8804L5.87301 16.7863C7.76011 19.5221 9.65234 22.2543 11.5497 24.983C11.5828 25.0272 11.6196 25.0762 11.5816 25.113C11.4024 25.3103 11.2233 25.526 11.0969 25.7602C11.0832 25.7903 11.062 25.8164 11.0355 25.8362C11.0196 25.846 11.0024 25.8423 10.984 25.8386H10.9815L0 23.5378V23.5391ZM6.97005 15.6904L12.4811 10.1855C12.9989 10.4123 14.8838 11.2078 16.5698 11.9187C17.846 12.4581 19.0093 12.9484 19.375 13.1077C19.4118 13.1224 19.445 13.1371 19.4609 13.1739C19.4707 13.196 19.4658 13.2242 19.4609 13.2475C19.2837 14.0547 19.5249 14.8968 20.1027 15.4882C20.1395 15.525 20.1027 15.5777 20.0708 15.623L20.0536 15.6488L14.458 24.3064C14.4432 24.3309 14.4297 24.3517 14.4052 24.3677C14.3757 24.3861 14.334 24.3775 14.2997 24.3689C14.082 24.312 13.8583 24.2815 13.6333 24.2782C13.4321 24.2782 13.2136 24.315 12.9928 24.3554H12.9915C12.967 24.3591 12.9449 24.364 12.9253 24.3493C12.9036 24.3316 12.8849 24.3105 12.8701 24.2868L6.97005 15.6904ZM13.5941 9.07371L20.7285 1.94706C21.7164 0.960313 22.2109 0.466327 22.7827 0.286138C23.2643 0.134031 23.7811 0.134031 24.2627 0.286138C24.8345 0.466327 25.329 0.960313 26.3169 1.94706L27.863 3.49154L22.7889 11.3414C22.7763 11.3642 22.7592 11.3843 22.7386 11.4002C22.7079 11.4211 22.6649 11.4125 22.6281 11.4002C21.816 11.154 20.9345 11.3237 20.2721 11.8538C20.2389 11.8881 20.1898 11.8685 20.1481 11.8501C19.4855 11.562 14.3316 9.38628 13.5941 9.07371ZM28.9404 4.56776L33.6256 9.24777L32.4966 16.2322V16.2506C32.4956 16.2665 32.4923 16.2822 32.4868 16.2972C32.4746 16.3217 32.45 16.3266 32.4255 16.334C32.1841 16.407 31.9568 16.5201 31.753 16.6686C31.7442 16.6748 31.736 16.6818 31.7285 16.6894C31.715 16.7041 31.7015 16.7176 31.6794 16.7201C31.6614 16.7206 31.6435 16.7177 31.6266 16.7115L24.4872 13.6814L24.4737 13.6753C24.4283 13.6569 24.3743 13.6348 24.3743 13.5882C24.3324 13.1908 24.2024 12.8077 23.9939 12.4666C23.9596 12.4103 23.9215 12.3514 23.951 12.2938L28.9404 4.56776ZM24.1154 15.1168L30.8081 17.9483C30.8449 17.9655 30.8854 17.9814 30.9014 18.0194C30.9078 18.0423 30.9078 18.0664 30.9014 18.0893C30.8818 18.1873 30.8646 18.2989 30.8646 18.4117V18.5992C30.8646 18.6458 30.8167 18.6654 30.7725 18.6838L30.759 18.6887C29.6988 19.141 15.8741 25.0296 15.8532 25.0296C15.8323 25.0296 15.8102 25.0296 15.7894 25.0088C15.7526 24.972 15.7894 24.9205 15.8225 24.8739C15.8284 24.8658 15.8341 24.8577 15.8397 24.8494L21.3397 16.3425L21.3495 16.3278C21.3814 16.2764 21.4182 16.2187 21.4771 16.2187L21.5323 16.2273C21.6575 16.2445 21.7679 16.2604 21.8796 16.2604C22.714 16.2604 23.4871 15.8547 23.9534 15.1609C23.9645 15.1424 23.9786 15.1258 23.9951 15.1119C24.0283 15.0874 24.0774 15.0996 24.1154 15.1168ZM16.4508 26.3755L31.5199 19.9561C31.5199 19.9561 31.5419 19.9561 31.5628 19.977C31.645 20.0591 31.715 20.1143 31.7825 20.1657L31.8156 20.1866C31.8463 20.2037 31.8769 20.2233 31.8794 20.2552C31.8794 20.2675 31.8794 20.2748 31.8769 20.2859L30.586 28.2068L30.5811 28.2387C30.5725 28.3 30.5639 28.3698 30.5063 28.3698C29.8075 28.4169 29.1771 28.8054 28.8214 29.4081L28.8153 29.4179C28.7981 29.4461 28.7821 29.473 28.7539 29.4877C28.7282 29.5 28.695 29.4951 28.668 29.489L16.6508 27.0129C16.6385 27.0105 16.4643 26.3767 16.4508 26.3755Z" fill="url(#paint0_radial_66_1588)"/>
<defs>
<radialGradient id="paint0_radial_66_1588" cx="0" cy="0" r="1" gradientUnits="userSpaceOnUse" gradientTransform="translate(23.5 -23.3279) scale(46.9999)">
<stop stop-color="#20C6B7"/>
<stop offset="1" stop-color="#4D9ABF"/>
</radialGradient>
</defs>
</svg>
