<svg width="50" height="57" viewBox="0 0 50 57" fill="none" xmlns="http://www.w3.org/2000/svg">
<g clip-path="url(#clip0_22_794)">
<path d="M24.6958 56.2597C23.9288 56.2597 23.213 56.0552 22.5483 55.6973L15.748 51.658C14.7254 51.0956 15.2367 50.8911 15.5435 50.7888C16.924 50.3286 17.1797 50.2264 18.6113 49.4083C18.7647 49.306 18.9692 49.3572 19.1226 49.4594L24.3379 52.5784C24.5424 52.6806 24.798 52.6806 24.9514 52.5784L45.3523 40.7673C45.5568 40.6651 45.6591 40.4606 45.6591 40.2049V16.634C45.6591 16.3783 45.5568 16.1738 45.3523 16.0716L24.9514 4.31166C24.7469 4.2094 24.4913 4.2094 24.3379 4.31166L3.93701 16.0716C3.73249 16.1738 3.63023 16.4295 3.63023 16.634V40.2049C3.63023 40.4094 3.73249 40.6651 3.93701 40.7673L9.51018 43.9885C12.5268 45.5224 14.4187 43.7329 14.4187 41.9433V18.6792C14.4187 18.3724 14.6743 18.0656 15.0322 18.0656H17.6398C17.9466 18.0656 18.2534 18.3213 18.2534 18.6792V41.9433C18.2534 45.9826 16.0548 48.3346 12.2201 48.3346C11.0441 48.3346 10.1237 48.3346 7.51611 47.0563L2.14746 43.9885C0.81808 43.2216 0 41.7899 0 40.256V16.6851C0 15.1512 0.81808 13.7196 2.14746 12.9526L22.5483 1.1416C23.8266 0.425781 25.565 0.425781 26.8432 1.1416L47.2441 12.9526C48.5735 13.7196 49.3916 15.1512 49.3916 16.6851V40.256C49.3916 41.7899 48.5735 43.2216 47.2441 43.9885L26.8432 55.7996C26.1786 56.1063 25.4116 56.2597 24.6958 56.2597ZM30.9848 40.0515C22.037 40.0515 20.1963 35.9611 20.1963 32.4843C20.1963 32.1775 20.452 31.8707 20.8099 31.8707H23.4687C23.7754 31.8707 24.0311 32.0752 24.0311 32.382C24.4401 35.0919 25.6161 36.4213 31.0359 36.4213C35.3308 36.4213 37.1715 35.4498 37.1715 33.149C37.1715 31.8196 36.6602 30.8481 29.9622 30.1834C24.389 29.621 20.9122 28.3939 20.9122 23.9456C20.9122 19.804 24.389 17.3498 30.2178 17.3498C36.7625 17.3498 39.9837 19.5995 40.3927 24.508C40.3927 24.6614 40.3416 24.8148 40.2393 24.9682C40.137 25.0704 39.9837 25.1727 39.8303 25.1727H37.1715C36.9158 25.1727 36.6602 24.9682 36.6091 24.7125C35.9955 21.9004 34.4105 20.98 30.2178 20.98C25.5139 20.98 24.9514 22.6162 24.9514 23.8433C24.9514 25.3261 25.6161 25.7863 31.9562 26.6043C38.2452 27.4224 41.2108 28.5984 41.2108 32.9956C41.1596 37.495 37.4783 40.0515 30.9848 40.0515Z" fill="#539E43"/>
</g>
<defs>
<clipPath id="clip0_22_794">
<rect width="49.3916" height="55.7584" fill="white" transform="translate(0 0.604736)"/>
</clipPath>
</defs>
</svg>
