<svg width="39" height="42" viewBox="0 0 39 42" fill="none" xmlns="http://www.w3.org/2000/svg">
<g clip-path="url(#clip0_79_1501)">
<path d="M13.9357 1.84575C7.58405 2.31 2.18443 2.73694 1.93056 2.78694C1.21875 2.91233 0.571214 3.38927 0.266727 4.01699L0 4.56932L0.0257086 17.7332L0.0634682 30.8972L0.469986 31.713C0.698954 32.1645 2.2487 34.2731 3.93824 36.4435C7.27956 40.7225 7.52058 40.9614 8.79075 41.0868C9.15951 41.124 11.9288 40.9987 14.9271 40.8233C17.9382 40.6352 22.765 40.3463 25.662 40.1837C38.0351 39.4417 37.3996 39.5044 38.1106 38.902C39 38.1743 38.9365 39.3663 38.9743 23.3669C39 9.80141 38.9871 8.91101 38.7839 8.49676C38.5429 8.03251 38.1106 7.70635 32.47 3.79082C28.6973 1.18073 28.4305 1.04265 26.7402 1.01725C26.042 0.992654 20.2745 1.36881 13.9357 1.84575ZM28.2144 3.56465C28.7479 3.80272 32.6484 6.4882 33.2196 7.00324C33.3722 7.15402 33.4228 7.2794 33.3465 7.35479C33.169 7.50557 9.03096 8.9237 8.33281 8.82292C8.01547 8.77292 7.54549 8.58484 7.27876 8.40867C6.17329 7.66826 3.42969 5.44702 3.42969 5.28434C3.42969 4.85739 3.34051 4.85739 14.1012 4.09238C16.1595 3.9543 19.5386 3.70353 21.5969 3.54005C26.0549 3.18849 27.3893 3.20119 28.2144 3.56465ZM35.8876 10.4291C36.0652 10.6045 36.2178 10.9434 36.2685 11.2695C36.3062 11.5711 36.3319 17.1928 36.3062 23.743C36.2685 34.9865 36.2556 35.6896 36.0395 36.0158C35.9126 36.2165 35.6587 36.43 35.4675 36.4927C34.9348 36.7062 9.64154 38.1243 9.12094 37.9735C8.87992 37.9108 8.54893 37.7101 8.37138 37.5347L8.06609 37.2085L8.02833 25.0866C8.00262 16.5786 8.02833 12.8138 8.13036 12.475C8.20668 12.2242 8.39708 11.9226 8.56258 11.8227C8.79155 11.6719 10.2907 11.5465 15.4485 11.2457C19.0694 11.0449 24.6715 10.7061 27.8858 10.518C35.5317 10.053 35.5068 10.053 35.8876 10.4291Z" fill="#F0F0F0"/>
<path d="M29.0914 14.5828C27.7192 14.6709 26.4996 14.7962 26.3598 14.8716C25.9404 15.0851 25.6866 15.4367 25.636 15.8382C25.5982 16.2525 25.7251 16.3025 27.0965 16.4659L27.6934 16.5413V21.8996C27.6934 25.0866 27.6428 27.1952 27.5794 27.1325C27.5159 27.0571 25.7123 24.347 23.5648 21.1092C21.4181 17.8595 19.6394 15.1859 19.6137 15.1613C19.588 15.1359 18.1909 15.2113 16.5142 15.3248C14.4559 15.4629 13.3255 15.5882 13.0966 15.7136C12.7278 15.9017 12.3213 16.5667 12.3213 17.0064C12.3213 17.2698 12.8041 17.4079 13.8204 17.4079H14.3539V32.8177L13.4902 33.0811C12.817 33.2819 12.588 33.4073 12.4739 33.6581C12.2707 34.085 12.2835 34.4739 12.4868 34.4739C12.5631 34.4739 13.9988 34.3858 15.6498 34.2858C18.9148 34.0977 19.2827 34.0096 19.6258 33.3446C19.7278 33.1438 19.8162 32.9304 19.8162 32.8677C19.8162 32.8177 19.3719 32.6669 18.8376 32.5415C18.2913 32.4161 17.745 32.2907 17.6309 32.2653C17.4148 32.2027 17.402 31.8138 17.402 26.4174V20.6322L21.2639 26.6182C25.3162 32.8923 25.8248 33.6081 26.4474 33.9215C27.2227 34.3231 29.1918 34.0469 30.1824 33.4073L30.4877 33.2192L30.5134 24.6613L30.5511 16.0906L31.2244 15.9652C32.0245 15.8144 32.3933 15.4509 32.3933 14.8232C32.3933 14.4217 32.3676 14.3963 31.9868 14.409C31.7594 14.4193 30.4507 14.4947 29.0914 14.5828Z" fill="#F0F0F0"/>
</g>
<defs>
<clipPath id="clip0_79_1501">
<rect width="39" height="41" fill="white" transform="translate(0 0.55835)"/>
</clipPath>
</defs>
</svg>
