<svg width="87" height="21" viewBox="0 0 87 21" fill="none" xmlns="http://www.w3.org/2000/svg">
<g clip-path="url(#clip0_22_797)">
<path d="M17.5708 20.2411H29.2138C29.5837 20.2411 29.9469 20.1493 30.2672 19.9748C30.5875 19.8003 30.8534 19.5494 31.0382 19.2471C31.223 18.9449 31.3201 18.6021 31.3201 18.2532C31.3201 17.9042 31.2224 17.5616 31.0373 17.2594L23.2182 4.48082C23.0334 4.17868 22.7675 3.92776 22.4473 3.75331C22.1271 3.57886 21.7639 3.48701 21.3942 3.48701C21.0244 3.48701 20.6612 3.57886 20.341 3.75331C20.0208 3.92776 19.755 4.17868 19.5702 4.48082L17.5708 7.75041L13.6618 1.35682C13.4769 1.0547 13.2109 0.803824 12.8907 0.629402C12.5703 0.454982 12.2071 0.363159 11.8373 0.363159C11.4675 0.363159 11.1042 0.454982 10.7839 0.629402C10.4637 0.803824 10.1977 1.0547 10.0127 1.35682L0.282803 17.2594C0.0976986 17.5616 0 17.9042 0 18.2532C0 18.6021 0.0970605 18.9449 0.281886 19.2471C0.466711 19.5494 0.732624 19.8003 1.05287 19.9748C1.37313 20.1493 1.73643 20.2411 2.10624 20.2411H9.41472C12.3105 20.2411 14.4459 19.0409 15.9154 16.6996L19.4828 10.8702L21.3936 7.75041L27.1283 17.1214H19.4828L17.5708 20.2411ZM9.29557 17.1182L4.1952 17.1171L11.8407 4.62321L15.6555 10.8702L13.1013 15.0455C12.1255 16.5647 11.0169 17.1182 9.29557 17.1182Z" fill="#00DC82"/>
<path d="M36.54 20.0539H39.9586V12.6137C39.9586 10.4847 39.7307 8.35556 39.7307 8.35556L39.9321 8.79212C40.2501 9.4678 40.9127 10.8247 41.6906 12.1224L46.3626 20.0539H50.0318V3.67618H46.5905L46.5908 11.2567C46.6004 13.3391 46.8184 15.398 46.8184 15.398L46.6462 15.0186C46.3419 14.3598 45.6667 12.946 44.8812 11.6077L40.1864 3.67618H36.54V20.0539ZM60.8736 8.26194V14.7195C60.8736 16.2169 59.8937 17.3399 58.5035 17.3399C57.2045 17.3399 56.2928 16.3104 56.2928 14.8832V8.26194H53.125V15.6085C53.125 18.2992 54.8115 20.2411 57.3868 20.2411C58.9593 20.2411 60.2355 19.5392 60.8736 18.4162V20.0539H64.0643V8.26194H60.8736ZM73.3425 13.924L77.1944 8.26194H73.7072L71.6108 11.3737L69.5137 8.26194H66.0497L69.9016 13.9006L65.7536 20.0539H69.1496L71.6333 16.4274L74.0945 20.0539H77.4678L73.3425 13.924ZM80.7557 8.26194H78.5448V10.976H80.7557V15.7723C80.7557 18.5097 82.4649 20.0539 85.1088 20.0539H87V17.3165H85.5417C84.5163 17.3165 83.9232 16.7784 83.9232 15.632V10.976H87V8.26194H83.9232V4.77582H80.7557V8.26194Z" fill="#EFEFEF"/>
</g>
<defs>
<clipPath id="clip0_22_797">
<rect width="87" height="20" fill="white" transform="translate(0 0.363159)"/>
</clipPath>
</defs>
</svg>
