<svg width="51" height="51" viewBox="0 0 51 51" fill="none" xmlns="http://www.w3.org/2000/svg">
<g clip-path="url(#clip0_22_665)">
<path d="M0.00390625 0.693115H50.997V50.6931H0.00390625V0.693115Z" fill="url(#paint0_linear_22_665)"/>
<path d="M4.05859 4.66919H46.9411V46.717H4.05859V4.66919Z" fill="url(#paint1_linear_22_665)"/>
<path d="M12.3263 14.7853C12.3263 14.7853 15.5505 14.7007 18.2045 14.7007C20.8864 14.7007 22.7986 15.3298 24.0825 16.4354C25.3095 17.4802 26.137 19.2612 26.137 21.2886C26.137 23.3161 25.5091 24.9751 24.3675 26.1415C22.8838 27.6468 21.1548 28.5378 18.2045 28.661C17.3894 28.6951 16.6351 28.7032 16.6351 28.7032V35.2937H12.3262L12.3263 14.7853ZM16.6349 25.0519C17.103 25.0973 17.3964 25.0754 18.0903 25.0671C20.4016 25.0395 21.8279 23.638 21.8279 21.5185C21.8279 19.6144 20.6518 18.051 18.4329 17.97C17.5485 17.9378 16.6349 17.97 16.6349 17.97V25.0519Z" fill="url(#paint2_linear_22_665)"/>
<path d="M27.7816 30.7024C28.65 31.2338 30.6993 32.0295 32.0961 32.0295C33.5233 32.0295 34.1126 31.528 34.1126 30.7462C34.1126 29.9633 33.6472 29.1409 31.8782 28.5463C28.744 27.4821 27.5336 26.2082 27.565 24.4251C27.565 21.5453 29.9852 19.386 33.74 19.386C35.5088 19.386 36.9218 19.9626 37.8519 20.4317V23.888C37.1686 23.5121 35.1984 22.6728 33.8953 22.6728C32.7465 22.6728 32.0953 23.1423 32.0953 23.924C32.0953 24.644 32.6853 25.0195 34.547 25.6772C37.4324 26.6785 38.6428 28.149 38.6734 30.4024C38.6734 33.2507 36.4715 35.5156 32.0953 35.3782C30.5934 35.3311 28.9295 34.739 27.7813 34.114L27.7816 30.7024Z" fill="url(#paint3_linear_22_665)"/>
</g>
<defs>
<linearGradient id="paint0_linear_22_665" x1="12.3961" y1="-1.91807" x2="31.8522" y2="39.3116" gradientUnits="userSpaceOnUse">
<stop stop-color="#A0CBFF"/>
<stop offset="0.394" stop-color="#A0CBFE"/>
<stop offset="0.583" stop-color="#8EC2FC"/>
<stop offset="0.784" stop-color="#83BCFB"/>
<stop offset="1" stop-color="#7FBAFB"/>
</linearGradient>
<linearGradient id="paint1_linear_22_665" x1="19.3337" y1="5.26173" x2="30.3244" y2="41.8896" gradientUnits="userSpaceOnUse">
<stop stop-color="#090058"/>
<stop offset="1" stop-color="#070033"/>
</linearGradient>
<linearGradient id="paint2_linear_22_665" x1="6.31579" y1="0.273396" x2="25.7718" y2="41.5025" gradientUnits="userSpaceOnUse">
<stop stop-color="#A0CBFF"/>
<stop offset="0.394" stop-color="#A0CBFE"/>
<stop offset="0.583" stop-color="#8EC2FC"/>
<stop offset="0.784" stop-color="#83BCFB"/>
<stop offset="1" stop-color="#7FBAFB"/>
</linearGradient>
<linearGradient id="paint3_linear_22_665" x1="17.4502" y1="-5.10435" x2="36.9834" y2="36.2882" gradientUnits="userSpaceOnUse">
<stop stop-color="#A0CBFF"/>
<stop offset="0.394" stop-color="#A0CBFE"/>
<stop offset="0.583" stop-color="#8EC2FC"/>
<stop offset="0.784" stop-color="#83BCFB"/>
<stop offset="1" stop-color="#7FBAFB"/>
</linearGradient>
<clipPath id="clip0_22_665">
<rect width="51" height="50" fill="white" transform="translate(0 0.693115)"/>
</clipPath>
</defs>
</svg>
