<svg width="73" height="40" viewBox="0 0 73 40" fill="none" xmlns="http://www.w3.org/2000/svg">
<g clip-path="url(#clip0_22_811)">
<path d="M36.5 39.2476C56.6584 39.2476 73 30.543 73 19.8054C73 9.06774 56.6584 0.363159 36.5 0.363159C16.3416 0.363159 0 9.06774 0 19.8054C0 30.543 16.3416 39.2476 36.5 39.2476Z" fill="url(#paint0_radial_22_811)"/>
<path d="M36.5 37.8032C55.871 37.8032 71.5742 29.7453 71.5742 19.8054C71.5742 9.86548 55.871 1.8076 36.5 1.8076C17.129 1.8076 1.42578 9.86548 1.42578 19.8054C1.42578 29.7453 17.129 37.8032 36.5 37.8032Z" fill="#6181B6"/>
<path d="M43.5999 25.6409L45.3394 16.5698C45.7386 14.5187 45.3964 12.9876 44.3699 12.0343C43.3718 11.1098 41.6609 10.6476 39.1515 10.6476H36.1288L36.9843 6.14093C37.0128 5.9676 36.9843 5.79427 36.8702 5.64982C36.7562 5.50538 36.6136 5.4476 36.4425 5.4476H32.2792C31.9941 5.4476 31.7659 5.64982 31.7089 5.90982L29.8554 15.5298C29.6843 14.432 29.2851 13.5076 28.6007 12.7565C27.3745 11.3409 25.464 10.6187 22.8691 10.6187H14.8562C14.571 10.6187 14.3429 10.8209 14.2859 11.0809L10.5503 30.6098C10.5218 30.7832 10.5503 30.9565 10.6644 31.1009C10.7784 31.2454 10.921 31.3032 11.0921 31.3032H15.2839C15.5691 31.3032 15.7972 31.1009 15.8542 30.8409L16.7667 26.132H19.8749C21.5003 26.132 22.8976 25.9587 23.9527 25.612C25.0648 25.2365 26.0628 24.6298 26.9468 23.792C27.6597 23.1276 28.2585 22.3765 28.7148 21.5676L27.9734 25.4676C27.9449 25.6409 27.9734 25.8143 28.0874 25.9587C28.2015 26.1032 28.3441 26.1609 28.5152 26.1609H32.6784C32.9636 26.1609 33.1917 25.9587 33.2488 25.6987L35.3019 15.0098H38.1534C39.3796 15.0098 39.7218 15.2409 39.8359 15.3565C39.9214 15.4432 40.0925 15.7898 39.8929 16.8587L38.239 25.4965C38.2105 25.6698 38.239 25.8432 38.3531 25.9876C38.4671 26.132 38.6097 26.1898 38.7808 26.1898H43.0581C43.3148 26.1032 43.5429 25.9009 43.5999 25.6409ZM24.3234 18.1298C24.0667 19.4876 23.582 20.4698 22.8691 21.0187C22.1562 21.5676 20.987 21.8565 19.4472 21.8565H17.5937L18.9339 14.8654H21.3292C23.0972 14.8654 23.8101 15.2409 24.0952 15.5587C24.4659 16.0209 24.5515 16.9165 24.3234 18.1298Z" fill="white"/>
<path d="M61.3941 12.7565C60.1679 11.3409 58.2574 10.6187 55.6624 10.6187H47.5925C47.3074 10.6187 47.0792 10.8209 47.0222 11.0809L43.2867 30.5809C43.2581 30.7543 43.2867 30.9276 43.4007 31.072C43.5148 31.2165 43.6574 31.2743 43.8284 31.2743H48.0202C48.3054 31.2743 48.5335 31.072 48.5906 30.812L49.5031 26.1032H52.6113C54.2367 26.1032 55.6339 25.9298 56.689 25.5832C57.8011 25.2076 58.7992 24.6009 59.6831 23.7632C60.4245 23.0698 61.0519 22.2898 61.5081 21.452C61.9644 20.6143 62.3066 19.6898 62.5062 18.6787C62.9909 16.1654 62.6202 14.2009 61.3941 12.7565ZM57.0312 18.1298C56.7745 19.4876 56.2898 20.4698 55.5769 21.0187C54.864 21.5676 53.6949 21.8565 52.155 21.8565H50.3015L51.6417 14.8654H54.037C55.805 14.8654 56.5179 15.2409 56.8031 15.5587C57.2023 16.0209 57.2878 16.9165 57.0312 18.1298Z" fill="white"/>
<path d="M21.3297 14.2876C22.9266 14.2876 23.9816 14.5765 24.5234 15.1832C25.0652 15.7898 25.1793 16.8009 24.8941 18.2454C24.609 19.7476 24.0387 20.8454 23.2117 21.4809C22.3848 22.1165 21.1301 22.4343 19.4477 22.4343H16.9098L18.4781 14.2876H21.3297ZM11.1211 30.6965H15.3129L16.3109 25.5254H19.9039C21.5008 25.5254 22.784 25.3521 23.8105 25.0054C24.8371 24.6587 25.7496 24.1098 26.6051 23.3009C27.318 22.6365 27.8883 21.9143 28.316 21.1343C28.7438 20.3543 29.0574 19.4876 29.2285 18.5343C29.6848 16.2232 29.3426 14.4321 28.2305 13.1321C27.1184 11.8321 25.3504 11.1965 22.9266 11.1965H14.8566L11.1211 30.6965Z" fill="#000004"/>
<path d="M32.3078 6.02538H36.4711L35.473 11.1965H39.1801C41.5184 11.1965 43.1152 11.6009 43.9992 12.4387C44.8832 13.2765 45.1398 14.6054 44.7977 16.4543L43.0582 25.5254H38.8379L40.4918 16.8876C40.6914 15.9054 40.6059 15.2409 40.2922 14.8943C39.9785 14.5476 39.2656 14.3454 38.2105 14.3454H34.8742L32.7355 25.5254H28.5723L32.3078 6.02538Z" fill="#000004"/>
<path d="M54.0367 14.2876C55.6336 14.2876 56.6887 14.5765 57.2305 15.1832C57.7723 15.7898 57.8863 16.8009 57.6012 18.2454C57.316 19.7476 56.7457 20.8454 55.9188 21.4809C55.0918 22.1165 53.8371 22.4343 52.1547 22.4343H49.6168L51.1852 14.2876H54.0367ZM43.8281 30.6965H48.0199L49.018 25.5254H52.6109C54.2078 25.5254 55.491 25.3521 56.5176 25.0054C57.5441 24.6587 58.4566 24.1098 59.3121 23.3009C60.025 22.6365 60.5953 21.9143 61.023 21.1343C61.4508 20.3543 61.7645 19.4876 61.9355 18.5343C62.3918 16.2232 62.0496 14.4321 60.9375 13.1321C59.8254 11.8321 58.0574 11.1965 55.6336 11.1965H47.5637L43.8281 30.6965Z" fill="#000004"/>
</g>
<defs>
<radialGradient id="paint0_radial_22_811" cx="0" cy="0" r="1" gradientUnits="userSpaceOnUse" gradientTransform="translate(21.9148 7.2005) scale(47.9334 48.5608)">
<stop stop-color="white"/>
<stop offset="0.5" stop-color="#4C6B97"/>
<stop offset="1" stop-color="#231F20"/>
</radialGradient>
<clipPath id="clip0_22_811">
<rect width="73" height="39" fill="white" transform="translate(0 0.363159)"/>
</clipPath>
</defs>
</svg>
