<svg width="44" height="45" viewBox="0 0 44 45" fill="none" xmlns="http://www.w3.org/2000/svg">
<g clip-path="url(#clip0_22_593)">
<path d="M43.8201 25.0568C45.3598 13.003 36.8473 1.98296 24.8155 0.443238C12.7837 -1.09648 1.71966 7.41598 0.179933 19.4478C-1.35979 31.4796 7.15268 42.5217 19.1845 44.0834C31.2383 45.6231 42.2583 37.1106 43.8201 25.0568Z" fill="#FF6C37"/>
<path d="M29.9409 14.3887L20.6585 23.671L18.041 21.0535C27.1694 11.9251 28.0712 12.717 29.9409 14.3887Z" fill="white"/>
<path d="M20.6583 23.891C20.5923 23.891 20.5483 23.869 20.5043 23.825L17.8648 21.2075C17.7768 21.1195 17.7768 20.9875 17.8648 20.8995C27.1471 11.6172 28.115 12.497 30.0726 14.2567C30.1166 14.3007 30.1386 14.3447 30.1386 14.4107C30.1386 14.4767 30.1166 14.5207 30.0726 14.5647L20.7903 23.825C20.7683 23.869 20.7023 23.891 20.6583 23.891ZM18.3487 21.0535L20.6583 23.3631L29.6107 14.4107C27.983 12.959 26.8832 12.519 18.3487 21.0535Z" fill="#FF6C37"/>
<path d="M23.3196 26.3326L20.79 23.803L30.0724 14.5207C32.5579 17.0282 28.8406 21.0975 23.3196 26.3326Z" fill="white"/>
<path d="M23.3203 26.5525C23.2543 26.5525 23.2103 26.5305 23.1663 26.4865L20.6368 23.957C20.5928 23.913 20.5928 23.869 20.5928 23.803C20.5928 23.737 20.6148 23.693 20.6588 23.649L29.9411 14.3667C30.0291 14.2787 30.161 14.2787 30.249 14.3667C30.8209 14.8946 31.1289 15.6425 31.1069 16.4123C31.0629 18.8539 28.2914 21.9553 23.4963 26.4865C23.4303 26.5305 23.3643 26.5525 23.3203 26.5525ZM21.0987 23.803C22.5064 25.2327 23.1003 25.8046 23.3203 26.0246C27.0156 22.5052 30.601 18.8979 30.623 16.4123C30.645 15.8404 30.425 15.2685 30.0511 14.8286L21.0987 23.803Z" fill="#FF6C37"/>
<path d="M18.0845 21.1195L19.9542 22.9892C19.9982 23.0332 19.9982 23.0771 19.9542 23.1211C19.9322 23.1431 19.9322 23.1431 19.9102 23.1431L16.0389 23.979C15.8409 24.001 15.6649 23.869 15.621 23.671C15.599 23.5611 15.643 23.4511 15.7089 23.3851L17.9525 21.1415C17.9965 21.0975 18.0625 21.0755 18.0845 21.1195Z" fill="white"/>
<path d="M15.9733 24.199C15.6433 24.199 15.4014 23.935 15.4014 23.6051C15.4014 23.4511 15.4674 23.2971 15.5773 23.1871L17.8209 20.9435C17.9529 20.8336 18.1289 20.8336 18.2609 20.9435L20.1305 22.8132C20.2625 22.9232 20.2625 23.1211 20.1305 23.2531C20.0865 23.2971 20.0425 23.3191 19.9765 23.3411L16.1052 24.177C16.0612 24.177 16.0173 24.199 15.9733 24.199ZM18.0189 21.3615L15.8633 23.5171C15.8193 23.5611 15.7973 23.6271 15.8413 23.693C15.8633 23.759 15.9293 23.781 15.9953 23.759L19.6246 22.9672L18.0189 21.3615Z" fill="#FF6C37"/>
<path d="M34.8459 9.24163C33.4381 7.87787 31.1726 7.92187 29.8088 9.35161C28.445 10.7813 28.489 13.0249 29.9188 14.3887C31.0846 15.5105 32.8442 15.7085 34.23 14.8726L31.7225 12.3651L34.8459 9.24163Z" fill="white"/>
<path d="M32.382 15.5985C30.2923 15.5985 28.5986 13.9048 28.5986 11.8152C28.5986 9.72556 30.2923 8.03186 32.382 8.03186C33.3498 8.03186 34.2956 8.40579 34.9995 9.08767C35.0435 9.13166 35.0655 9.17565 35.0655 9.24164C35.0655 9.30763 35.0435 9.35162 34.9995 9.39561L32.03 12.3651L34.3616 14.6967C34.4496 14.7846 34.4496 14.9166 34.3616 15.0046C34.3396 15.0266 34.3396 15.0266 34.3176 15.0486C33.7457 15.4005 33.0638 15.5985 32.382 15.5985ZM32.382 8.49378C30.5343 8.49378 29.0386 9.98951 29.0605 11.8372C29.0605 13.6848 30.5563 15.1806 32.4039 15.1586C32.9099 15.1586 33.4158 15.0486 33.8777 14.8066L31.5681 12.5191C31.5241 12.4751 31.5021 12.4311 31.5021 12.3651C31.5021 12.2991 31.5241 12.2551 31.5681 12.2111L34.5156 9.26364C33.9217 8.75773 33.1738 8.49378 32.382 8.49378Z" fill="#FF6C37"/>
<path d="M34.9121 9.30763L34.8681 9.26364L31.7227 12.3651L34.2082 14.8506C34.4502 14.6967 34.6921 14.5207 34.8901 14.3227C36.2978 12.937 36.2978 10.6934 34.9121 9.30763Z" fill="white"/>
<path d="M34.2295 15.0926C34.1635 15.0926 34.1195 15.0706 34.0755 15.0266L31.5679 12.519C31.5239 12.475 31.502 12.4311 31.502 12.3651C31.502 12.2991 31.5239 12.2551 31.5679 12.2111L34.6914 9.08766C34.7794 8.99967 34.9113 8.99967 34.9993 9.08766L35.0653 9.13165C36.539 10.6054 36.539 12.981 35.0873 14.4767C34.8673 14.6966 34.6254 14.8946 34.3614 15.0486C34.2954 15.0706 34.2515 15.0926 34.2295 15.0926ZM32.0299 12.3651L34.2515 14.5867C34.4274 14.4767 34.6034 14.3227 34.7354 14.1907C35.9891 12.937 36.0551 10.8913 34.8453 9.57157L32.0299 12.3651Z" fill="#FF6C37"/>
<path d="M30.3146 14.7846C29.7867 14.2567 28.9288 14.2567 28.4009 14.7846L20.1084 23.0771L21.4941 24.4629L30.2706 16.7643C30.8425 16.2804 30.8865 15.4225 30.4025 14.8506C30.3586 14.8286 30.3366 14.8066 30.3146 14.7846Z" fill="white"/>
<path d="M21.4719 24.6829C21.4059 24.6829 21.3619 24.6609 21.3179 24.6169L19.9322 23.2311C19.8442 23.1431 19.8442 23.0112 19.9322 22.9232L28.2247 14.6307C28.8406 14.0148 29.8304 14.0148 30.4463 14.6307C31.0622 15.2466 31.0622 16.2364 30.4463 16.8523C30.4243 16.8743 30.4023 16.8963 30.3803 16.9183L21.6039 24.6169C21.5819 24.6609 21.5379 24.6829 21.4719 24.6829ZM20.4161 23.0772L21.4939 24.155L30.1164 16.5883C30.6003 16.1924 30.6443 15.4665 30.2483 14.9826C29.8524 14.4987 29.1265 14.4547 28.6426 14.8506C28.6206 14.8726 28.5986 14.8946 28.5546 14.9166L20.4161 23.0772Z" fill="#FF6C37"/>
<path d="M13.7516 32.5135C13.6637 32.5575 13.6197 32.6454 13.6417 32.7334L14.0156 34.3171C14.1036 34.5371 13.9716 34.8011 13.7296 34.867C13.5537 34.933 13.3557 34.867 13.2457 34.7351L10.8262 32.3375L18.7227 24.4409L21.4503 24.4849L23.2979 26.3326C22.858 26.7065 20.1965 29.28 13.7516 32.5135Z" fill="white"/>
<path d="M13.5759 35.087C13.3999 35.087 13.2239 35.021 13.1139 34.889L10.7164 32.4915C10.6724 32.4475 10.6504 32.4035 10.6504 32.3375C10.6504 32.2715 10.6724 32.2275 10.7164 32.1835L18.613 24.2869C18.6569 24.2429 18.7229 24.2209 18.7669 24.2209L21.4944 24.2649C21.5604 24.2649 21.6044 24.2869 21.6484 24.3309L23.4961 26.1786C23.5401 26.2226 23.5621 26.2886 23.5621 26.3546C23.5621 26.4206 23.5401 26.4645 23.4741 26.5085L23.3201 26.6405C20.9885 28.6861 17.8211 30.7318 13.8838 32.6894L14.2577 34.2511C14.3237 34.5371 14.1918 34.845 13.9278 34.999C13.7958 35.065 13.6858 35.087 13.5759 35.087ZM11.1563 32.3375L13.4219 34.5811C13.4879 34.6911 13.6199 34.7351 13.7298 34.6691C13.8398 34.6031 13.8838 34.4711 13.8178 34.3611L13.4439 32.7774C13.3999 32.5794 13.4879 32.4035 13.6638 32.3155C17.5571 30.3578 20.7026 28.3342 23.0122 26.3326L21.3845 24.7049L18.8549 24.6609L11.1563 32.3375Z" fill="#FF6C37"/>
<path d="M8.95658 34.2291L10.8482 32.3375L13.6637 35.153L9.17655 34.845C8.97858 34.823 8.8466 34.647 8.8686 34.4491C8.8686 34.3611 8.8906 34.2731 8.95658 34.2291Z" fill="white"/>
<path d="M13.6636 35.3509L9.15442 35.043C8.82448 35.021 8.60452 34.735 8.62651 34.4051C8.64851 34.2731 8.6925 34.1412 8.80248 34.0532L10.6941 32.1615C10.7821 32.0735 10.9141 32.0735 11.0021 32.1615L13.8176 34.977C13.8836 35.043 13.9056 35.131 13.8616 35.219C13.8176 35.3069 13.7516 35.3509 13.6636 35.3509ZM10.8481 32.6454L9.11043 34.3831C9.04444 34.4271 9.04444 34.5371 9.11043 34.5811C9.13242 34.6031 9.15442 34.6251 9.19841 34.6251L13.0917 34.889L10.8481 32.6454Z" fill="#FF6C37"/>
<path d="M17.9524 25.4527C17.8204 25.4527 17.7324 25.3427 17.7324 25.2328C17.7324 25.1668 17.7544 25.1228 17.7984 25.0788L19.932 22.9452C20.02 22.8572 20.152 22.8572 20.24 22.9452L21.6257 24.3309C21.6917 24.3969 21.7137 24.4629 21.6917 24.5509C21.6697 24.6169 21.6037 24.6829 21.5157 24.7049L17.9964 25.4527C17.9744 25.4527 17.9524 25.4527 17.9524 25.4527ZM20.086 23.4071L18.6343 24.8588L21.0098 24.3529L20.086 23.4071Z" fill="#FF6C37"/>
<path d="M21.4504 24.4849L19.0308 25.0128C18.8548 25.0568 18.6789 24.9468 18.6349 24.7709C18.6129 24.6609 18.6349 24.5509 18.7229 24.4629L20.0646 23.1212L21.4504 24.4849Z" fill="white"/>
<path d="M18.9864 25.2328C18.6785 25.2328 18.4365 24.9908 18.4365 24.6829C18.4365 24.5289 18.5025 24.3969 18.5905 24.2869L19.9323 22.9452C20.0202 22.8572 20.1522 22.8572 20.2402 22.9452L21.6259 24.3309C21.6919 24.3969 21.7139 24.4629 21.6919 24.5509C21.6699 24.6169 21.604 24.6829 21.516 24.7049L19.0964 25.2328C19.0524 25.2328 19.0084 25.2328 18.9864 25.2328ZM20.0862 23.4071L18.8984 24.5949C18.8544 24.6389 18.8544 24.6829 18.8764 24.7268C18.8984 24.7708 18.9424 24.7928 19.0084 24.7928L21.0321 24.3529L20.0862 23.4071Z" fill="#FF6C37"/>
<path d="M34.934 11.4193C34.89 11.2873 34.7361 11.2213 34.6041 11.2653C34.4721 11.3093 34.4061 11.4632 34.4501 11.5952C34.4501 11.6172 34.4721 11.6392 34.4721 11.6612C34.6041 11.9252 34.5601 12.2551 34.3841 12.4971C34.2962 12.607 34.3181 12.761 34.4061 12.849C34.5161 12.937 34.6701 12.915 34.7581 12.805C35.088 12.3871 35.154 11.8592 34.934 11.4193Z" fill="#FF6C37"/>
</g>
<defs>
<clipPath id="clip0_22_593">
<rect width="44" height="44" fill="white" transform="translate(0 0.263306)"/>
</clipPath>
</defs>
</svg>
