<svg width="78" height="23" viewBox="0 0 78 23" fill="none" xmlns="http://www.w3.org/2000/svg">
<g clip-path="url(#clip0_67_1591)">
<mask id="mask0_67_1591" style="mask-type:luminance" maskUnits="userSpaceOnUse" x="0" y="0" width="78" height="23">
<path d="M0 22.5417H77.9984V0.55222H0V22.5417Z" fill="white"/>
</mask>
<g mask="url(#mask0_67_1591)">
<path d="M0 22.5417H77.9984V0.539968H0V22.5417Z" fill="#FCD205"/>
<path d="M64.7741 17.5123L65.5364 13.9101H3.32936L2.56641 17.5123H64.7741Z" fill="white"/>
<path d="M72.267 9.00072C72.267 9.00072 73.1011 5.18449 73.1127 5.14868H67.8119C67.8119 5.17282 66.716 10.2131 66.716 10.237C66.7276 10.237 68.0742 10.237 68.0742 10.237C68.0858 10.237 68.9079 6.43261 68.9079 6.43261H71.4806C71.4806 6.43261 70.6706 10.2487 70.647 10.2728C70.6706 10.2728 74.5659 10.2728 74.5659 10.2728L74.0538 12.6264C74.0538 12.6264 70.1706 12.6264 70.158 12.6264C70.158 12.6503 69.3721 16.2166 69.3721 16.2166C69.3721 16.2166 66.4537 16.2166 66.4301 16.2166C66.4301 16.2283 66.1678 17.5004 66.1562 17.5123H70.4917C70.4917 17.5004 71.2665 13.9101 71.2665 13.9101C71.2665 13.9101 75.1377 13.9101 75.1618 13.9101C75.1618 13.8983 76.1864 9.02423 76.1864 9.00072H72.267Z" fill="#ED1C24"/>
<path d="M62.6745 10.1303C63.2343 10.1303 63.6157 10.5105 63.6157 11.1406C63.6157 11.2473 63.6036 11.3425 63.5921 11.4494H61.1736C61.4238 10.6533 61.9595 10.1303 62.6745 10.1303ZM63.8775 14.8617L64.1875 13.4469C63.6634 13.6249 63.1509 13.7674 62.4962 13.7674C61.7334 13.7674 61.0666 13.5062 61.0309 12.5906H64.9618C65.1045 12.1268 65.188 11.6636 65.188 11.2357C65.188 9.92781 64.4257 8.8576 62.7936 8.8576C60.6731 8.8576 59.3867 10.5939 59.3867 12.5078C59.3867 14.148 60.4827 15.1113 62.1861 15.1113C62.877 15.1113 63.4247 15.0039 63.8775 14.8617ZM57.4095 13.6606C56.6351 13.6606 56.111 13.3279 56.111 12.365C56.111 11.2357 56.8256 10.2963 57.9577 10.2963C58.315 10.2963 58.72 10.4033 59.125 10.5581L59.4109 9.20284C58.9461 9.03656 58.3978 8.9175 57.8501 8.9175C55.9799 8.9175 54.3835 10.3082 54.3835 12.4485C54.3835 14.2077 55.4679 15.0395 57.0281 15.0395C57.5522 15.0395 57.9928 14.9446 58.315 14.8141L58.6245 13.4228C58.2672 13.5537 57.8738 13.6606 57.4095 13.6606ZM49.1783 14.9327L49.8335 11.9249C50.0954 10.7125 50.6913 10.2963 51.3106 10.2963C52.1088 10.2963 52.2041 10.8911 52.049 11.5684L51.3342 14.9327H53.0378L53.788 11.4852C54.1574 9.76153 53.3594 8.8576 52.1088 8.8576C51.4176 8.8576 50.7508 9.13121 50.1788 9.7376L50.3335 9.03655H48.7494L47.4748 14.9327H49.1783ZM43.0557 13.2328C43.0557 12.6387 43.5797 12.3053 44.449 12.3053C44.6162 12.3053 44.9849 12.3176 45.3189 12.365L45.2472 12.698C45.0443 13.3989 44.4732 13.875 43.7945 13.875C43.3057 13.875 43.0557 13.6371 43.0557 13.2328ZM44.6996 8.89336C43.9133 8.89336 43.1151 9.07195 42.8532 9.15514L42.5673 10.5224C42.9479 10.4156 43.6986 10.2131 44.366 10.2131C45.2591 10.2131 45.5808 10.4866 45.5808 10.9504C45.5808 11.0333 45.5808 11.1288 45.5572 11.2234L45.5331 11.3425C45.1044 11.295 44.6996 11.2596 44.5084 11.2596C42.8174 11.2596 41.4597 11.913 41.4597 13.4588C41.4597 14.4691 42.2456 15.0755 43.2698 15.0755C43.9967 15.0755 44.6162 14.7902 45.021 14.3147L44.8898 14.9327H46.4026L47.1414 11.5568C47.2008 11.3067 47.2244 11.0455 47.2244 10.796C47.2244 9.78509 46.6649 8.89336 44.6996 8.89336ZM36.4445 14.9327L37.0995 11.9249C37.3618 10.7125 37.9568 10.2963 38.577 10.2963C39.3752 10.2963 39.4703 10.8911 39.3158 11.5684L38.6005 14.9327H40.3039L41.054 11.4852C41.4235 9.76153 40.6257 8.8576 39.3752 8.8576C38.6833 8.8576 38.0163 9.13121 37.4448 9.7376L37.5995 9.03655H36.0154L34.7407 14.9327H36.4445ZM33.3951 7.4076C33.3589 7.94237 33.7524 8.3586 34.2763 8.3586C34.86 8.3586 35.277 7.94237 35.3122 7.4076C35.3483 6.87278 34.9553 6.45656 34.4311 6.45656C33.8476 6.45656 33.4306 6.87278 33.3951 7.4076ZM33.1564 9.03655L31.882 14.9327H33.5737L34.8483 9.03655H33.1564ZM28.3437 14.9327L29.0107 11.8537H31.5842L31.8943 10.344H29.3327L29.7261 8.45368H32.4302L32.7636 6.94373H28.2968L26.6051 14.9327H28.3437ZM26.6643 10.3322L26.9385 9.03655H25.1163L25.4732 7.39593L23.6981 7.78797L22.5903 12.8283C22.2811 14.2554 23.0668 15.0395 24.4961 15.0395C24.7945 15.0395 25.2943 14.9804 25.6522 14.8617L25.938 13.5656C25.6522 13.6371 25.2943 13.7083 24.9851 13.7083C24.4961 13.7083 24.1508 13.542 24.2703 12.9473L24.8304 10.3322H26.6643ZM20.208 13.197C20.208 13.6729 19.6246 13.7558 19.1362 13.7558C18.5165 13.7558 17.8259 13.5897 17.4571 13.4704L17.1706 14.8018C17.7068 14.9327 18.3858 15.0395 19.0289 15.0395C20.5533 15.0395 21.7927 14.4691 21.7927 13.0426C21.7927 11.1999 19.5771 11.521 19.5771 10.7009C19.5771 10.3322 19.9344 10.2013 20.4939 10.2013C21.0298 10.2013 21.7811 10.4156 22.0308 10.4866L22.3167 9.14352C21.8046 9.00074 21.197 8.9175 20.6488 8.9175C18.9934 8.9175 17.9929 9.65478 17.9929 10.8792C17.9929 12.6738 20.208 12.3769 20.208 13.197ZM13.7995 15.1113C15.6699 15.1113 16.9325 13.7558 17.2183 11.9846C17.5163 10.2131 16.5277 8.8576 14.6571 8.8576C12.7872 8.8576 11.5244 10.2131 11.2385 11.9846C10.9408 13.7558 11.9295 15.1113 13.7995 15.1113ZM13.9548 13.7441C13.2755 13.7441 12.7396 13.2091 12.9894 11.9846C13.2394 10.7602 13.8353 10.2254 14.5143 10.2254C15.1934 10.2254 15.7295 10.7718 15.4672 11.9846C15.217 13.197 14.6335 13.7441 13.9548 13.7441ZM6.77148 12.4955H7.52215C9.9165 12.4955 11.2508 11.319 11.2508 9.35724C11.2508 7.89493 10.2136 6.94373 8.43897 6.94373H6.22394L4.53223 14.9327H6.24749L6.77148 12.4955ZM7.06925 11.0333L7.62912 8.40624H8.34391C9.13021 8.40624 9.51097 8.72734 9.51097 9.47624C9.51097 10.4391 8.90378 11.0333 7.78446 11.0333H7.06925Z" fill="#231F20"/>
</g>
</g>
<defs>
<clipPath id="clip0_67_1591">
<rect width="78" height="22" fill="white" transform="translate(0 0.541748)"/>
</clipPath>
</defs>
</svg>
