<svg width="50" height="50" viewBox="0 0 50 50" fill="none" xmlns="http://www.w3.org/2000/svg">
<g clip-path="url(#clip0_22_593)">
<path d="M49.1896 28.1413C50.918 14.6104 41.3624 2.24007 27.8563 0.511673C14.3501 -1.21672 1.93037 8.33883 0.201981 21.845C-1.52641 35.3511 8.02913 47.7462 21.5353 49.4993C35.0661 51.2277 47.4365 41.6721 49.1896 28.1413Z" fill="#FF6C37"/>
<path d="M33.609 16.166L23.1892 26.5857L20.251 23.6474C30.4979 13.4005 31.5102 14.2894 33.609 16.166Z" fill="white"/>
<path d="M23.1894 26.8326C23.1153 26.8326 23.0659 26.8079 23.0165 26.7585L20.0536 23.8203C19.9548 23.7215 19.9548 23.5734 20.0536 23.4746C30.4733 13.0549 31.5597 14.0425 33.7573 16.0178C33.8066 16.0672 33.8313 16.1166 33.8313 16.1907C33.8313 16.2647 33.8066 16.3141 33.7573 16.3635L23.3375 26.7585C23.3128 26.8079 23.2387 26.8326 23.1894 26.8326ZM20.5968 23.6474L23.1894 26.24L33.2387 16.1907C31.4116 14.561 30.177 14.0672 20.5968 23.6474Z" fill="#FF6C37"/>
<path d="M26.1774 29.5734L23.3379 26.7339L33.7576 16.3141C36.5478 19.1289 32.3749 23.6968 26.1774 29.5734Z" fill="white"/>
<path d="M26.177 29.8203C26.1029 29.8203 26.0535 29.7956 26.0041 29.7462L23.1646 26.9067C23.1152 26.8573 23.1152 26.8079 23.1152 26.7339C23.1152 26.6598 23.1399 26.6104 23.1893 26.561L33.6091 16.1413C33.7078 16.0425 33.856 16.0425 33.9547 16.1413C34.5967 16.7339 34.9424 17.5734 34.9177 18.4376C34.8683 21.1783 31.7572 24.6598 26.3745 29.7462C26.3004 29.7956 26.2263 29.8203 26.177 29.8203ZM23.6831 26.7339C25.2634 28.3388 25.93 28.9808 26.177 29.2277C30.3251 25.2771 34.3498 21.2277 34.3745 18.4376C34.3992 17.7956 34.1523 17.1536 33.7325 16.6598L23.6831 26.7339Z" fill="#FF6C37"/>
<path d="M20.3002 23.7215L22.3989 25.8203C22.4483 25.8697 22.4483 25.9191 22.3989 25.9684C22.3742 25.9931 22.3742 25.9931 22.3496 25.9931L18.0039 26.9314C17.7817 26.9561 17.5841 26.8079 17.5347 26.5857C17.5101 26.4623 17.5594 26.3388 17.6335 26.2647L20.152 23.7462C20.2014 23.6968 20.2755 23.6721 20.3002 23.7215Z" fill="white"/>
<path d="M17.9301 27.1783C17.5597 27.1783 17.2881 26.882 17.2881 26.5116C17.2881 26.3388 17.3622 26.166 17.4856 26.0425L20.0041 23.524C20.1523 23.4005 20.3498 23.4005 20.498 23.524L22.5967 25.6228C22.7449 25.7462 22.7449 25.9684 22.5967 26.1166C22.5473 26.166 22.498 26.1907 22.4239 26.2153L18.0782 27.1536C18.0288 27.1536 17.9794 27.1783 17.9301 27.1783ZM20.2264 23.9931L17.8066 26.4129C17.7572 26.4623 17.7325 26.5363 17.7819 26.6104C17.8066 26.6845 17.8807 26.7092 17.9548 26.6845L22.0288 25.7956L20.2264 23.9931Z" fill="#FF6C37"/>
<path d="M39.1151 10.3882C37.5349 8.85733 34.9917 8.90671 33.4608 10.5116C31.9299 12.1166 31.9793 14.6351 33.5842 16.166C34.8929 17.4252 36.8682 17.6474 38.4238 16.7092L35.6089 13.8944L39.1151 10.3882Z" fill="white"/>
<path d="M36.3504 17.524C34.0047 17.524 32.1035 15.6228 32.1035 13.2771C32.1035 10.9314 34.0047 9.03018 36.3504 9.03018C37.4368 9.03018 38.4986 9.44993 39.2887 10.2154C39.3381 10.2647 39.3628 10.3141 39.3628 10.3882C39.3628 10.4623 39.3381 10.5117 39.2887 10.561L35.9554 13.8944L38.5726 16.5117C38.6714 16.6104 38.6714 16.7586 38.5726 16.8573C38.548 16.882 38.548 16.882 38.5233 16.9067C37.8813 17.3018 37.1159 17.524 36.3504 17.524ZM36.3504 9.5487C34.2764 9.5487 32.5973 11.2277 32.622 13.3018C32.622 15.3759 34.301 17.0549 36.3751 17.0302C36.943 17.0302 37.5109 16.9067 38.0294 16.6351L35.4368 14.0672C35.3875 14.0178 35.3628 13.9684 35.3628 13.8944C35.3628 13.8203 35.3875 13.7709 35.4368 13.7215L38.7455 10.4129C38.0788 9.845 37.2393 9.5487 36.3504 9.5487Z" fill="#FF6C37"/>
<path d="M39.1896 10.4623L39.1402 10.4129L35.6094 13.8944L38.3995 16.6845C38.6711 16.5117 38.9427 16.3141 39.1649 16.0919C40.7452 14.5364 40.7452 12.0178 39.1896 10.4623Z" fill="white"/>
<path d="M38.424 16.9561C38.35 16.9561 38.3006 16.9314 38.2512 16.882L35.4364 14.0672C35.387 14.0178 35.3623 13.9685 35.3623 13.8944C35.3623 13.8203 35.387 13.7709 35.4364 13.7215L38.9425 10.2154C39.0413 10.1166 39.1895 10.1166 39.2882 10.2154L39.3623 10.2648C41.0166 11.9191 41.0166 14.5857 39.387 16.2647C39.1401 16.5117 38.8685 16.7339 38.5722 16.9067C38.4981 16.9314 38.4487 16.9561 38.424 16.9561ZM35.9549 13.8944L38.4487 16.3882C38.6463 16.2647 38.8438 16.0919 38.9919 15.9438C40.3993 14.5364 40.4734 12.2401 39.1154 10.7586L35.9549 13.8944Z" fill="#FF6C37"/>
<path d="M34.029 16.6104C33.4365 16.0178 32.4735 16.0178 31.8809 16.6104L22.5723 25.9191L24.1278 27.4746L33.9797 18.8326C34.6216 18.2894 34.671 17.3265 34.1278 16.6845C34.0784 16.6598 34.0537 16.6351 34.029 16.6104Z" fill="white"/>
<path d="M24.1032 27.7215C24.0292 27.7215 23.9798 27.6968 23.9304 27.6474L22.3749 26.0919C22.2761 25.9931 22.2761 25.845 22.3749 25.7462L31.6835 16.4376C32.3748 15.7462 33.486 15.7462 34.1773 16.4376C34.8687 17.1289 34.8687 18.2401 34.1773 18.9314C34.1526 18.9561 34.1279 18.9808 34.1032 19.0055L24.2514 27.6474C24.2267 27.6968 24.1773 27.7215 24.1032 27.7215ZM22.9181 25.9191L24.1279 27.1289L33.8069 18.6351C34.3502 18.1907 34.3995 17.3759 33.9551 16.8326C33.5106 16.2894 32.6958 16.2401 32.1526 16.6845C32.1279 16.7092 32.1032 16.7339 32.0539 16.7586L22.9181 25.9191Z" fill="#FF6C37"/>
<path d="M15.4363 36.5116C15.3375 36.561 15.2881 36.6598 15.3128 36.7586L15.7326 38.5363C15.8314 38.7832 15.6832 39.0795 15.4116 39.1536C15.2141 39.2277 14.9918 39.1536 14.8684 39.0055L12.1523 36.3141L21.0165 27.4499L24.0783 27.4993L26.1523 29.5734C25.6585 29.9931 22.6709 32.882 15.4363 36.5116Z" fill="white"/>
<path d="M15.239 39.4005C15.0415 39.4005 14.844 39.3264 14.7205 39.1783L12.0292 36.4869C11.9798 36.4376 11.9551 36.3882 11.9551 36.3141C11.9551 36.24 11.9798 36.1906 12.0292 36.1413L20.8933 27.2771C20.9427 27.2277 21.0168 27.203 21.0662 27.203L24.1279 27.2524C24.202 27.2524 24.2514 27.2771 24.3007 27.3265L26.3748 29.4005C26.4242 29.4499 26.4489 29.524 26.4489 29.5981C26.4489 29.6721 26.4242 29.7215 26.3501 29.7709L26.1773 29.919C23.56 32.2153 20.0045 34.5116 15.5847 36.7092L16.0045 38.4623C16.0785 38.7832 15.9304 39.1289 15.6341 39.3018C15.4859 39.3758 15.3625 39.4005 15.239 39.4005ZM12.523 36.3141L15.0662 38.8326C15.1403 38.9561 15.2884 39.0055 15.4119 38.9314C15.5353 38.8573 15.5847 38.7092 15.5106 38.5857L15.0909 36.8079C15.0415 36.5857 15.1403 36.3882 15.3378 36.2894C19.7082 34.0919 23.239 31.8203 25.8316 29.5734L24.0044 27.7462L21.1649 27.6968L12.523 36.3141Z" fill="#FF6C37"/>
<path d="M10.0536 38.4376L12.1771 36.3141L15.3375 39.4746L10.3005 39.1289C10.0783 39.1042 9.93014 38.9067 9.95483 38.6845C9.95483 38.5857 9.97952 38.487 10.0536 38.4376Z" fill="white"/>
<path d="M15.3377 39.6968L10.2759 39.3511C9.90556 39.3265 9.65865 39.0055 9.68334 38.6351C9.70803 38.487 9.75741 38.3388 9.88087 38.24L12.0043 36.1166C12.1031 36.0178 12.2512 36.0178 12.35 36.1166L15.5105 39.2771C15.5846 39.3511 15.6093 39.4499 15.5599 39.5487C15.5105 39.6474 15.4364 39.6968 15.3377 39.6968ZM12.1772 36.6598L10.2265 38.6104C10.1525 38.6598 10.1525 38.7832 10.2265 38.8326C10.2512 38.8573 10.2759 38.882 10.3253 38.882L14.6957 39.1783L12.1772 36.6598Z" fill="#FF6C37"/>
<path d="M20.1522 28.5857C20.004 28.5857 19.9053 28.4623 19.9053 28.3388C19.9053 28.2647 19.93 28.2154 19.9793 28.166L22.3744 25.7709C22.4732 25.6721 22.6213 25.6721 22.7201 25.7709L24.2756 27.3265C24.3497 27.4005 24.3744 27.4746 24.3497 27.5734C24.325 27.6475 24.2509 27.7215 24.1522 27.7462L20.2016 28.5857C20.1769 28.5857 20.1522 28.5857 20.1522 28.5857ZM22.5472 26.2894L20.9176 27.9191L23.5843 27.3512L22.5472 26.2894Z" fill="#FF6C37"/>
<path d="M24.0786 27.4993L21.3625 28.0919C21.165 28.1413 20.9675 28.0178 20.9181 27.8203C20.8934 27.6968 20.9181 27.5734 21.0169 27.4746L22.523 25.9684L24.0786 27.4993Z" fill="white"/>
<path d="M21.3126 28.3388C20.9669 28.3388 20.6953 28.0672 20.6953 27.7215C20.6953 27.5487 20.7694 27.4005 20.8682 27.2771L22.3743 25.7709C22.4731 25.6721 22.6212 25.6721 22.72 25.7709L24.2756 27.3265C24.3496 27.4005 24.3743 27.4746 24.3496 27.5734C24.3249 27.6475 24.2509 27.7215 24.1521 27.7462L21.4361 28.3388C21.3867 28.3388 21.3373 28.3388 21.3126 28.3388ZM22.5472 26.2894L21.2138 27.6228C21.1644 27.6721 21.1644 27.7215 21.1891 27.7709C21.2138 27.8203 21.2632 27.845 21.3373 27.845L23.6089 27.3512L22.5472 26.2894Z" fill="#FF6C37"/>
<path d="M39.2143 12.8326C39.165 12.6845 38.9921 12.6104 38.844 12.6598C38.6958 12.7092 38.6217 12.882 38.6711 13.0302C38.6711 13.0549 38.6958 13.0796 38.6958 13.1042C38.844 13.4005 38.7946 13.7709 38.5971 14.0425C38.4983 14.166 38.523 14.3388 38.6217 14.4376C38.7452 14.5363 38.918 14.5116 39.0168 14.3882C39.3872 13.9191 39.4613 13.3265 39.2143 12.8326Z" fill="#FF6C37"/>
</g>
<defs>
<clipPath id="clip0_22_593">
<rect width="49.3916" height="49.3916" fill="white" transform="translate(0 0.309692)"/>
</clipPath>
</defs>
</svg>
