<svg width="50" height="50" viewBox="0 0 50 50" fill="none" xmlns="http://www.w3.org/2000/svg">
<g clip-path="url(#clip0_22_586)">
<path fill-rule="evenodd" clip-rule="evenodd" d="M42.9816 1.84566C44.9666 2.89944 46.589 4.52565 47.6381 6.51317C48.7124 8.52587 49.2845 10.5221 49.2845 16.0252V25.6908C49.2845 25.8156 49.2092 25.928 49.0939 25.9758C48.9786 26.0235 48.846 25.9971 48.7577 25.909V25.9076L45.115 22.2581C44.8258 21.9683 44.6635 21.5755 44.6637 21.166V16.6988C44.6637 12.5705 44.2342 11.0737 43.4289 9.56447C42.6417 8.074 41.4247 6.85458 39.9358 6.06453C38.4466 5.26493 36.9681 4.83608 32.9471 4.82714L26.9252 4.82699C26.8007 4.82633 26.6888 4.75092 26.6414 4.63576C26.594 4.5206 26.6205 4.38825 26.7085 4.30015L30.3511 0.649289C30.6392 0.3598 31.0316 0.196533 31.4404 0.196533H33.4888C38.9809 0.196533 40.973 0.770024 42.9816 1.84566ZM35.4233 7.91397C38.8259 7.91397 41.5836 10.6785 41.5836 14.0879V17.9967C41.583 18.1199 41.5092 18.2309 41.3959 18.2792C41.2826 18.3275 41.1515 18.3039 41.0622 18.219L36.0956 13.4609C35.7663 13.1316 35.3822 12.8929 34.9719 12.7434C34.6239 12.6115 34.2548 12.5441 33.8826 12.5444H19.2215C19.0967 12.5443 18.9843 12.4691 18.9366 12.3538C18.8888 12.2385 18.9152 12.1059 19.0034 12.0176L22.6515 8.36535C22.9396 8.07723 23.3306 7.91397 23.7395 7.91397H35.4233Z" fill="#E55638"/>
<path fill-rule="evenodd" clip-rule="evenodd" d="M45.1892 26.964L48.8332 30.6149C49.1213 30.9044 49.2846 31.2981 49.2846 31.707V33.7608C49.2846 39.2639 48.7124 41.2601 47.6382 43.2728C46.5891 45.2603 44.9667 46.8865 42.9816 47.9403C40.973 49.0146 38.9809 49.5881 33.4889 49.5881H23.8452C23.7206 49.5874 23.6087 49.512 23.5613 49.3969C23.5139 49.2817 23.5404 49.1493 23.6284 49.0612V49.0626L27.271 45.4118C27.5591 45.1223 27.9515 44.959 28.3604 44.959H32.818C36.9367 44.959 38.4294 44.5296 39.9358 43.7215C41.4247 42.9314 42.6418 41.712 43.4289 40.2215C44.2343 38.7123 44.6637 37.2155 44.6637 33.0872V27.1821C44.6644 27.058 44.7393 26.9463 44.854 26.8987C44.9687 26.8511 45.1008 26.8768 45.1892 26.964ZM37.4896 19.2452L41.1336 22.9002C41.4217 23.1897 41.5836 23.5821 41.5836 23.9923V35.7008C41.5836 39.1102 38.8259 41.8748 35.4234 41.8748H31.5228C31.3996 41.8742 31.2886 41.8004 31.2403 41.6871C31.192 41.5738 31.2156 41.4427 31.3005 41.3534V41.352L36.0476 36.3731C36.3769 36.0438 36.6156 35.6597 36.7652 35.2481C36.8963 34.8994 36.9632 34.5299 36.9627 34.1573V19.4633C36.9628 19.3386 37.038 19.2261 37.1533 19.1784C37.2686 19.1307 37.4013 19.157 37.4896 19.2452Z" fill="#F4C942"/>
<path fill-rule="evenodd" clip-rule="evenodd" d="M0.525471 23.8757L4.17084 27.5265C4.45896 27.816 4.62223 28.2098 4.62223 28.6186V33.0858C4.62223 37.2141 5.05029 38.711 5.85702 40.2202C6.64379 41.7104 7.86031 42.9298 9.34873 43.7201C10.8552 44.5282 12.3493 44.9576 16.468 44.9576H22.3593C22.4843 44.9572 22.5973 45.0322 22.6453 45.1476C22.6934 45.263 22.6672 45.396 22.5788 45.4845L18.9334 49.1353C18.6453 49.4248 18.2529 49.5881 17.8454 49.5881H15.7957C10.3036 49.5881 8.31287 49.0146 6.30429 47.939C4.31874 46.8854 2.69585 45.2592 1.64639 43.2715C0.582862 41.2789 0.0114926 39.3024 0.000171566 33.9235L0 24.0938C0.000655322 23.9696 0.0756488 23.858 0.190333 23.8103C0.305018 23.7627 0.437066 23.7885 0.525471 23.8757ZM8.22232 31.5657H8.22095L13.1903 36.3237C13.5182 36.653 13.9037 36.8917 14.3126 37.0413C14.6501 37.1702 15.0178 37.2402 15.4019 37.2402H30.063C30.1875 37.2409 30.2995 37.3163 30.3468 37.4314C30.3942 37.5466 30.3678 37.6789 30.2798 37.7671L26.633 41.4193C26.3449 41.7074 25.9525 41.8707 25.545 41.8707H13.8612C12.2256 41.8688 10.6577 41.2174 9.50241 40.0595C8.34715 38.9017 7.69915 37.3323 7.70096 35.6967V31.7879C7.70157 31.6648 7.77531 31.5538 7.8886 31.5055C8.00189 31.4572 8.13305 31.4807 8.22232 31.5657Z" fill="#7B8FEA"/>
<path fill-rule="evenodd" clip-rule="evenodd" d="M17.7618 7.91397C17.8849 7.91456 17.9959 7.98831 18.0442 8.1016C18.0925 8.21489 18.069 8.34605 17.984 8.43532L13.2356 13.4156C12.9063 13.7449 12.6689 14.1291 12.5194 14.5407C12.3878 14.8893 12.3204 15.2588 12.3205 15.6314V30.3254C12.3193 30.4493 12.2441 30.5605 12.1295 30.6078C12.0149 30.655 11.8832 30.6292 11.795 30.5422L8.15098 26.8872C7.86257 26.5975 7.70075 26.2053 7.70097 25.7965V14.0879C7.70097 10.6785 10.4587 7.91397 13.8612 7.91397H17.7618ZM25.4394 0.196533C25.5639 0.197194 25.6759 0.272607 25.7232 0.387764C25.7706 0.502922 25.7442 0.635272 25.6562 0.723377L22.0135 4.37424C21.7241 4.66373 21.333 4.82699 20.9242 4.82699H16.4666C12.3479 4.82699 10.8538 5.25642 9.34735 6.06453C7.85843 6.85458 6.64141 8.074 5.85427 9.56447C5.05739 11.0578 4.62857 12.539 4.61963 16.5693L4.61948 22.6038C4.61883 22.728 4.54383 22.8397 4.42915 22.8873C4.31447 22.9349 4.18242 22.9092 4.09401 22.822L0.452756 19.1711C0.163005 18.8815 0 18.4887 0 18.079V16.0252C0 10.5221 0.572119 8.52587 1.64639 6.51317C2.69549 4.52565 4.31788 2.89944 6.30291 1.84566C8.29142 0.780781 10.2638 0.208053 15.6307 0.196705L25.4394 0.196533Z" fill="#D97EE8"/>
</g>
<defs>
<clipPath id="clip0_22_586">
<rect width="49.3916" height="49.3916" fill="white" transform="translate(0 0.196533)"/>
</clipPath>
</defs>
</svg>
