<svg width="44" height="45" viewBox="0 0 44 45" fill="none" xmlns="http://www.w3.org/2000/svg">
<g clip-path="url(#clip0_22_586)">
<path fill-rule="evenodd" clip-rule="evenodd" d="M38.2898 1.61926C40.0582 2.55801 41.5035 4.0067 42.4381 5.77726C43.3951 7.57026 43.9047 9.34859 43.9047 14.2509V22.8615C43.9047 22.9726 43.8376 23.0728 43.7349 23.1153C43.6322 23.1578 43.514 23.1344 43.4354 23.0558V23.0546L40.1904 19.8035C39.9327 19.5453 39.7881 19.1954 39.7883 18.8306V14.851C39.7883 11.1734 39.4057 9.83992 38.6883 8.49548C37.9871 7.16771 36.9029 6.08141 35.5765 5.37759C34.2498 4.66528 32.9328 4.28324 29.3507 4.27527L23.9862 4.27515C23.8752 4.27456 23.7755 4.20738 23.7333 4.10479C23.6911 4.0022 23.7147 3.8843 23.7931 3.80581L27.0381 0.55348C27.2947 0.295591 27.6443 0.150146 28.0085 0.150146H29.8333C34.7258 0.150146 36.5005 0.661035 38.2898 1.61926ZM31.5566 7.02515C34.5877 7.02515 37.0444 9.48792 37.0444 12.5251V16.0073C37.0439 16.117 36.9782 16.2159 36.8772 16.2589C36.7763 16.3019 36.6595 16.2809 36.58 16.2053L32.1555 11.9666C31.8622 11.6733 31.52 11.4606 31.1545 11.3274C30.8445 11.2099 30.5156 11.1499 30.1841 11.1501H17.1234C17.0122 11.15 16.9121 11.083 16.8696 10.9804C16.827 10.8777 16.8505 10.7595 16.9291 10.6808L20.179 7.42726C20.4356 7.17059 20.784 7.02515 21.1482 7.02515H31.5566Z" fill="#E55638"/>
<path fill-rule="evenodd" clip-rule="evenodd" d="M40.2564 23.9957L43.5026 27.2481C43.7593 27.5059 43.9047 27.8567 43.9047 28.2209V30.0506C43.9047 34.9529 43.3951 36.7313 42.4381 38.5243C41.5035 40.2948 40.0582 41.7435 38.2899 42.6823C36.5005 43.6393 34.7259 44.1502 29.8333 44.1502H21.2423C21.1314 44.1496 21.0317 44.0824 20.9894 43.9798C20.9472 43.8772 20.9708 43.7593 21.0492 43.6808V43.6821L24.2942 40.4297C24.5509 40.1718 24.9004 40.0264 25.2646 40.0264H29.2356C32.9047 40.0264 34.2345 39.6438 35.5765 38.9239C36.9029 38.2201 37.9871 37.1338 38.6883 35.806C39.4057 34.4616 39.7883 33.1282 39.7883 29.4505V24.1901C39.7889 24.0794 39.8557 23.9799 39.9579 23.9375C40.06 23.8951 40.1777 23.918 40.2564 23.9957ZM33.3973 17.1195L36.6435 20.3755C36.9002 20.6334 37.0444 20.9829 37.0444 21.3484V31.7788C37.0444 34.8161 34.5877 37.2788 31.5566 37.2788H28.0819C27.9721 37.2783 27.8732 37.2126 27.8302 37.1117C27.7872 37.0108 27.8082 36.8939 27.8839 36.8144V36.8132L32.1127 32.3777C32.4061 32.0844 32.6187 31.7422 32.752 31.3755C32.8688 31.0649 32.9284 30.7357 32.928 30.4038V17.3138C32.9281 17.2027 32.9951 17.1025 33.0978 17.06C33.2005 17.0175 33.3187 17.0409 33.3973 17.1195Z" fill="#F4C942"/>
<path fill-rule="evenodd" clip-rule="evenodd" d="M0.468111 21.2445L3.71556 24.4968C3.97222 24.7547 4.11767 25.1055 4.11767 25.4697V29.4493C4.11767 33.127 4.499 34.4604 5.21767 35.8048C5.91855 37.1324 7.00229 38.2187 8.32822 38.9227C9.67022 39.6426 11.0012 40.0252 14.6703 40.0252H19.9186C20.0299 40.0248 20.1305 40.0916 20.1734 40.1944C20.2162 40.2972 20.1928 40.4157 20.1141 40.4945L16.8667 43.7468C16.61 44.0047 16.2604 44.1502 15.8974 44.1502H14.0714C9.17889 44.1502 7.40544 43.6393 5.61611 42.6811C3.84731 41.7425 2.40157 40.2938 1.46667 38.5231C0.519237 36.748 0.0102381 34.9873 0.000152838 30.1955L0 21.4388C0.000583787 21.3282 0.067391 21.2287 0.169557 21.1863C0.271722 21.1439 0.389356 21.1668 0.468111 21.2445ZM7.32478 28.0951H7.32356L11.7504 32.3337C12.0426 32.6271 12.386 32.8397 12.7502 32.9729C13.0509 33.0878 13.3784 33.1502 13.7207 33.1502H26.7813C26.8923 33.1508 26.992 33.2179 27.0342 33.3205C27.0764 33.4231 27.0528 33.541 26.9744 33.6195L23.7258 36.8731C23.4691 37.1297 23.1196 37.2752 22.7566 37.2752H12.3481C10.891 37.2736 9.49429 36.6932 8.46513 35.6617C7.43598 34.6303 6.85871 33.2322 6.86033 31.7752V28.2931C6.86087 28.1834 6.92656 28.0845 7.02748 28.0414C7.12841 27.9984 7.24525 28.0194 7.32478 28.0951Z" fill="#7B8FEA"/>
<path fill-rule="evenodd" clip-rule="evenodd" d="M15.8229 7.02515C15.9326 7.02568 16.0315 7.09137 16.0745 7.1923C16.1176 7.29322 16.0966 7.41006 16.0209 7.48959L11.7908 11.9263C11.4974 12.2196 11.286 12.5618 11.1528 12.9285C11.0355 13.239 10.9755 13.5682 10.9756 13.9001V26.9901C10.9745 27.1005 10.9075 27.1996 10.8054 27.2417C10.7034 27.2838 10.586 27.2608 10.5074 27.1833L7.26122 23.9273C7.0043 23.6692 6.86014 23.3198 6.86033 22.9556V12.5251C6.86033 9.48792 9.317 7.02515 12.3481 7.02515H15.8229ZM22.6624 0.150146C22.7734 0.150736 22.8731 0.217916 22.9153 0.320503C22.9575 0.42309 22.9339 0.540992 22.8556 0.61948L19.6106 3.87181C19.3527 4.1297 19.0043 4.27515 18.6401 4.27515H14.6691C11 4.27515 9.669 4.6577 8.327 5.37759C7.00061 6.08141 5.91643 7.16771 5.21522 8.49548C4.50533 9.82577 4.12331 11.1453 4.11535 14.7357L4.11522 20.1115C4.11464 20.2221 4.04783 20.3216 3.94567 20.364C3.8435 20.4064 3.72587 20.3835 3.64711 20.3058L0.403333 17.0535C0.145211 16.7955 0 16.4455 0 16.0806V14.2509C0 9.34859 0.509667 7.57026 1.46667 5.77726C2.40125 4.0067 3.84654 2.55801 5.61489 1.61926C7.38633 0.670618 9.14339 0.160409 13.9244 0.1503L22.6624 0.150146Z" fill="#D97EE8"/>
</g>
<defs>
<clipPath id="clip0_22_586">
<rect width="44" height="44" fill="white" transform="translate(0 0.150146)"/>
</clipPath>
</defs>
</svg>
