<svg width="50" height="38" viewBox="0 0 50 38" fill="none" xmlns="http://www.w3.org/2000/svg">
<g clip-path="url(#clip0_22_822)">
<path d="M42.5004 21.7316C40.7821 21.7406 39.2886 22.1544 38.0381 22.7662C37.5793 21.8575 37.1204 21.0478 37.0395 20.4541C36.9495 19.7613 36.8415 19.3385 36.9495 18.5108C37.0575 17.6831 37.5433 16.5045 37.5343 16.4146C37.5253 16.3246 37.4263 15.9018 36.4367 15.8928C35.4471 15.8838 34.5924 16.0817 34.4934 16.3426C34.3944 16.6035 34.2055 17.1973 34.0796 17.8091C33.9086 18.7087 32.1003 21.9205 31.0657 23.6029C30.7328 22.9461 30.4449 22.3704 30.3819 21.9115C30.292 21.2188 30.184 20.7959 30.292 19.9683C30.3999 19.1406 30.8858 17.962 30.8768 17.872C30.8678 17.7821 30.7688 17.3592 29.7792 17.3502C28.7895 17.3412 27.9349 17.5392 27.8359 17.8001C27.7369 18.061 27.629 18.6727 27.4221 19.2665C27.2151 19.8603 24.813 25.2223 24.1833 26.6078C23.8594 27.3185 23.5805 27.8853 23.3826 28.2722C23.3826 28.2722 23.3736 28.2991 23.3466 28.3441C23.1756 28.677 23.0767 28.8569 23.0767 28.8569C23.0767 28.8569 23.0767 28.8569 23.0767 28.8659C22.9417 29.1088 22.7978 29.3338 22.7258 29.3338C22.6718 29.3338 22.5729 28.686 22.7438 27.8043C23.1037 25.942 23.9583 23.0451 23.9493 22.9461C23.9493 22.8922 24.1113 22.3883 23.3916 22.1274C22.6898 21.8665 22.4379 22.2984 22.3749 22.2984C22.312 22.2984 22.267 22.4513 22.267 22.4513C22.267 22.4513 23.0497 19.1945 20.7735 19.1945C19.3521 19.1945 17.3908 20.751 16.4192 22.1544C15.8074 22.4873 14.5029 23.198 13.1084 23.9628C12.5776 24.2596 12.0288 24.5565 11.516 24.8354C11.48 24.7994 11.444 24.7545 11.408 24.7185C8.65505 21.7766 3.56295 19.6984 3.77887 15.7488C3.85984 14.3094 4.35466 10.5308 13.5582 5.94248C21.1334 2.20887 27.1611 3.24349 28.2048 5.53763C29.6982 8.81241 24.975 14.8941 17.1479 15.7758C14.161 16.1087 12.5956 14.9571 12.1997 14.5253C11.7859 14.0754 11.7229 14.0485 11.57 14.1384C11.3181 14.2734 11.48 14.6782 11.57 14.9121C11.8039 15.5239 12.7665 16.6035 14.3949 17.1343C15.8344 17.6021 19.3341 17.863 23.5715 16.2256C28.3127 14.3903 32.0193 9.28923 30.9307 5.01583C29.8421 0.679445 22.6448 -0.751022 15.8344 1.66908C11.7859 3.10854 7.39552 5.37569 4.2377 8.32659C0.486102 11.8353 -0.107677 14.8851 0.135233 16.1627C1.00791 20.697 7.26057 23.6479 9.76164 25.8341C9.63569 25.906 9.51873 25.969 9.41977 26.023C8.16923 26.6438 3.40101 29.1358 2.21346 31.7718C0.863961 34.7587 2.42938 36.8999 3.46399 37.1878C6.67579 38.0785 9.97756 36.4771 11.7499 33.8321C13.5222 31.1871 13.3063 27.7503 12.4876 26.1759C12.4786 26.1579 12.4696 26.1399 12.4516 26.122C12.7755 25.933 13.1084 25.7351 13.4323 25.5462C14.071 25.1683 14.7008 24.8174 15.2406 24.5295C14.9347 25.3662 14.7098 26.3649 14.6018 27.8043C14.4669 29.4957 15.1596 31.6909 16.0683 32.5546C16.4731 32.9324 16.95 32.9414 17.2558 32.9414C18.3174 32.9414 18.7943 32.0597 19.3251 31.0161C19.9728 29.7386 20.5576 28.2542 20.5576 28.2542C20.5576 28.2542 19.8289 32.2667 21.8081 32.2667C22.5279 32.2667 23.2566 31.331 23.5805 30.8542V30.8632C23.5805 30.8632 23.5985 30.8362 23.6345 30.7732C23.7064 30.6563 23.7514 30.5843 23.7514 30.5843V30.5663C24.0393 30.0625 24.6871 28.9199 25.6497 27.0216C26.8912 24.5745 28.0878 21.5157 28.0878 21.5157C28.0878 21.5157 28.1958 22.2624 28.5646 23.5039C28.7805 24.2327 29.2304 25.0334 29.5902 25.8071C29.3023 26.2119 29.1224 26.4368 29.1224 26.4368C29.1224 26.4368 29.1224 26.4368 29.1314 26.4458C28.8975 26.7517 28.6456 27.0846 28.3667 27.4085C27.3861 28.578 26.2165 29.9185 26.0546 30.3054C25.8656 30.7642 25.9106 31.0971 26.2705 31.367C26.5314 31.5649 26.9992 31.5919 27.476 31.5649C28.3577 31.5019 28.9785 31.286 29.2844 31.1511C29.7612 30.9801 30.319 30.7192 30.8408 30.3324C31.8034 29.6216 32.3882 28.605 32.3342 27.2645C32.3072 26.5268 32.0643 25.7891 31.7674 25.0963C31.8574 24.9704 31.9384 24.8444 32.0283 24.7185C33.5488 22.4963 34.7273 20.0582 34.7273 20.0582C34.7273 20.0582 34.8353 20.8049 35.2041 22.0465C35.3841 22.6762 35.7529 23.36 36.0768 24.0257C34.6464 25.1863 33.7647 26.5358 33.4498 27.4175C32.883 29.0549 33.3238 29.7926 34.1605 29.9635C34.5384 30.0445 35.0782 29.8646 35.474 29.6936C35.9779 29.5317 36.5716 29.2528 37.1384 28.8389C38.1011 28.1282 39.0277 27.1386 38.9737 25.7981C38.9467 25.1863 38.7848 24.5835 38.5599 23.9987C39.7744 23.4949 41.3399 23.216 43.3371 23.45C47.6195 23.9538 48.4652 26.6258 48.3033 27.7503C48.1413 28.8749 47.2417 29.4867 46.9448 29.6756C46.6479 29.8646 46.5489 29.9275 46.5759 30.0625C46.6119 30.2604 46.7558 30.2514 47.0077 30.2154C47.3586 30.1524 49.2569 29.3068 49.3379 27.2375C49.4728 24.5925 46.9538 21.7046 42.5004 21.7316ZM9.46475 32.8694C8.04328 34.4169 6.06402 35.0016 5.20934 34.5068C4.29168 33.976 4.65155 31.6909 6.3969 30.0535C7.4585 29.0549 8.82599 28.1282 9.73465 27.5614C9.94157 27.4355 10.2475 27.2555 10.6163 27.0306C10.6793 26.9946 10.7153 26.9766 10.7153 26.9766C10.7873 26.9316 10.8592 26.8867 10.9312 26.8417C11.57 29.1808 10.9582 31.241 9.46475 32.8694ZM19.8109 25.8341C19.3161 27.0396 18.2815 30.1255 17.6517 29.9545C17.1119 29.8106 16.779 27.4715 17.5437 25.1593C17.9306 23.9987 18.7493 22.6133 19.2261 22.0735C19.9998 21.2098 20.8545 20.9219 21.0614 21.2728C21.3223 21.7316 20.1168 25.0783 19.8109 25.8341ZM28.3487 29.9185C28.1418 30.0265 27.9439 30.0985 27.8539 30.0445C27.7909 30.0085 27.9439 29.8646 27.9439 29.8646C27.9439 29.8646 29.0145 28.713 29.4373 28.1912C29.6802 27.8853 29.9681 27.5254 30.274 27.1206V27.2375C30.274 28.614 28.9425 29.5407 28.3487 29.9185ZM34.9342 28.4161C34.7813 28.3081 34.8083 27.9483 35.3211 26.8237C35.519 26.3829 35.9869 25.6451 36.7876 24.9344C36.8775 25.2223 36.9405 25.5012 36.9315 25.7621C36.9225 27.4984 35.681 28.1462 34.9342 28.4161Z" fill="#CD6799"/>
</g>
<defs>
<clipPath id="clip0_22_822">
<rect width="49.3916" height="37.0437" fill="white" transform="translate(0 0.409546)"/>
</clipPath>
</defs>
</svg>
