<svg width="45" height="40" viewBox="0 0 45 40" fill="none" xmlns="http://www.w3.org/2000/svg">
<path d="M26.0802 2.17327C25.3189 0.931374 23.9516 0.172058 22.4765 0.172058C21.0014 0.172058 19.634 0.931374 18.8727 2.17327L12.9446 12.1535C22.16 16.6759 28.2461 25.6609 28.9362 35.7625H24.7739C24.0851 27.1041 18.7866 19.4503 10.8454 15.6426L5.35868 24.9675C9.81733 26.933 12.9512 30.9946 13.6743 35.7448H4.11539C3.88509 35.7288 3.6785 35.5997 3.56592 35.4016C3.45333 35.2035 3.44991 34.9629 3.55681 34.7618L6.20556 30.334C5.30817 29.5981 4.28256 29.028 3.17841 28.6515L0.556686 33.0792C0.0053725 34.0087 -0.143905 35.1167 0.142244 36.1552C0.428393 37.1937 1.12609 38.0761 2.07927 38.6051C2.701 38.9495 3.40177 39.1323 4.11539 39.1365H17.206C17.7005 33.1387 14.9664 27.3238 9.99851 23.8075L12.0797 20.2652C18.3513 24.4992 21.8801 31.6754 21.3593 39.1365H32.4499C32.9755 27.8314 27.344 17.1049 17.6655 10.9757L21.8729 3.89125C22.068 3.56988 22.4902 3.46317 22.8188 3.65215C23.2963 3.90897 41.0989 34.443 41.4322 34.7972C41.5517 35.0079 41.5474 35.2654 41.4209 35.4721C41.2943 35.6787 41.0649 35.8031 40.8196 35.7979H36.5311C36.5852 36.9255 36.5852 38.0502 36.5311 39.172H40.8376C41.9421 39.179 43.0037 38.7514 43.7856 37.9846C44.5675 37.2177 45.0048 36.1752 45 35.0895C45.0005 34.3795 44.8076 33.6823 44.4413 33.0704L26.0802 2.17327Z" fill="#362D59"/>
</svg>
