<svg width="51" height="45" viewBox="0 0 51 45" fill="none" xmlns="http://www.w3.org/2000/svg">
<path d="M29.3897 2.46638C28.5318 1.04259 26.9909 0.172058 25.3286 0.172058C23.6664 0.172058 22.1255 1.04259 21.2676 2.46638L14.5872 13.9084C24.972 19.0931 31.8304 29.3942 32.6081 40.9753H27.9176C27.1414 31.0487 21.1705 22.2739 12.2216 17.9085L6.03867 28.5992C11.0631 30.8526 14.5946 35.509 15.4095 40.955H4.63761C4.37809 40.9366 4.14529 40.7887 4.01842 40.5615C3.89154 40.3344 3.88768 40.0586 4.00815 39.828L6.99302 34.7517C5.98175 33.908 4.826 33.2544 3.58174 32.8227L0.627326 37.899C0.00605425 38.9647 -0.162166 40.2349 0.160294 41.4255C0.482754 42.6161 1.26899 43.6278 2.34312 44.2343C3.04375 44.629 3.83344 44.8387 4.63761 44.8434H19.3894C19.9466 37.9672 16.8656 31.3006 11.2673 27.2692L13.6125 23.2082C20.68 28.0623 24.6566 36.2896 24.0697 44.8434H36.5676C37.1599 31.8826 30.8139 19.585 19.9071 12.5581L24.6484 4.43599C24.8683 4.06755 25.3441 3.94521 25.7144 4.16187C26.2525 4.45629 46.3141 39.4625 46.6898 39.8686C46.8245 40.1102 46.8196 40.4053 46.677 40.6423C46.5344 40.8793 46.2759 41.0218 45.9994 41.0159H41.1667C41.2276 42.3086 41.2276 43.598 41.1667 44.8841H46.0197C47.2644 44.8922 48.4606 44.402 49.3418 43.5228C50.2229 42.6436 50.7156 41.4484 50.7102 40.2037C50.7108 39.3897 50.4934 38.5904 50.0807 37.8889L29.3897 2.46638Z" fill="#362D59"/>
</svg>
