<svg width="50" height="57" viewBox="0 0 50 57" fill="none" xmlns="http://www.w3.org/2000/svg">
<g clip-path="url(#clip0_22_830)">
<path d="M43.1737 11.5162C43.1349 11.2344 42.8882 11.0786 42.6842 11.0615C42.4807 11.0444 38.1728 10.7251 38.1728 10.7251C38.1728 10.7251 35.1809 7.75487 34.8527 7.42619C34.524 7.09751 33.8824 7.19747 33.6334 7.27086C33.5965 7.28166 32.9797 7.47212 31.959 7.78774C30.9594 4.91202 29.1958 2.26908 26.0927 2.26908C26.0072 2.26908 25.9189 2.27268 25.8307 2.27763C24.9482 1.1106 23.855 0.603622 22.9108 0.603622C15.6826 0.603622 12.2292 9.6396 11.1464 14.2316C8.33773 15.102 6.34224 15.7206 6.0874 15.8008C4.51965 16.2924 4.47012 16.3419 4.26436 17.8192C4.10902 18.9376 0.00683594 50.6619 0.00683594 50.6619L31.972 56.6511L49.292 52.9041C49.292 52.9041 43.2119 11.7981 43.1737 11.5162ZM30.1922 8.33434C29.3894 8.58287 28.4768 8.86517 27.4876 9.17134C27.4885 8.98089 27.4894 8.79314 27.4894 8.58827C27.4894 6.8008 27.2413 5.36182 26.8433 4.22089C28.4421 4.4217 29.5069 6.24069 30.1922 8.33434ZM24.8599 4.57524C25.3043 5.68914 25.5934 7.28751 25.5934 9.44464C25.5934 9.55495 25.5925 9.65581 25.5916 9.75801C23.8325 10.3028 21.9212 10.8944 20.0054 11.4879C21.081 7.33659 23.0972 5.33165 24.8599 4.57524ZM22.7123 2.54238C23.0243 2.54238 23.3386 2.64819 23.6393 2.8553C21.3228 3.94534 18.8397 6.69094 17.7911 12.1736C16.2584 12.6481 14.7605 13.1119 13.3755 13.541C14.6038 9.35909 17.5205 2.54238 22.7123 2.54238Z" fill="#95BF46"/>
<path d="M42.6841 11.0615C42.4806 11.0444 38.1726 10.7251 38.1726 10.7251C38.1726 10.7251 35.1807 7.75487 34.8525 7.42619C34.7296 7.30373 34.5639 7.24114 34.3905 7.21413L31.9736 56.6506L49.2919 52.9041C49.2919 52.9041 43.2118 11.7981 43.1735 11.5162C43.1348 11.2344 42.888 11.0786 42.6841 11.0615Z" fill="#5E8E3E"/>
<path d="M26.0932 20.6314L23.9577 26.984C23.9577 26.984 22.0864 25.9853 19.7929 25.9853C16.4305 25.9853 16.2612 28.0956 16.2612 28.6273C16.2612 31.5287 23.8244 32.6404 23.8244 39.4364C23.8244 44.7831 20.4331 48.2261 15.8605 48.2261C10.3733 48.2261 7.56738 44.811 7.56738 44.811L9.03653 39.9569C9.03653 39.9569 11.9208 42.4332 14.3548 42.4332C15.9451 42.4332 16.5921 41.1811 16.5921 40.2662C16.5921 36.4814 10.3873 36.3126 10.3873 30.0938C10.3873 24.8597 14.1441 19.7944 21.7276 19.7944C24.6497 19.7944 26.0932 20.6314 26.0932 20.6314Z" fill="white"/>
</g>
<defs>
<clipPath id="clip0_22_830">
<rect width="49.3916" height="56.3373" fill="white" transform="translate(0 0.453247)"/>
</clipPath>
</defs>
</svg>
