<svg width="44" height="52" viewBox="0 0 44 52" fill="none" xmlns="http://www.w3.org/2000/svg">
<g clip-path="url(#clip0_22_830)">
<path d="M38.4606 10.4218C38.4261 10.1666 38.2063 10.0256 38.0246 10.0101C37.8433 9.99461 34.0056 9.70563 34.0056 9.70563C34.0056 9.70563 31.3403 7.01675 31.0479 6.71921C30.7551 6.42167 30.1836 6.51216 29.9618 6.57859C29.9289 6.58838 29.3794 6.76079 28.4701 7.04651C27.5797 4.44323 26.0086 2.05068 23.2442 2.05068C23.168 2.05068 23.0894 2.05394 23.0108 2.05842C22.2246 1.00195 21.2507 0.542999 20.4096 0.542999C13.9704 0.542999 10.894 8.72293 9.92939 12.8799C7.42735 13.6678 5.64969 14.2278 5.42267 14.3004C4.02605 14.7455 3.98193 14.7903 3.79863 16.1276C3.66025 17.1401 0.00585938 45.8589 0.00585938 45.8589L28.4817 51.2806L43.9111 47.8887C43.9111 47.8887 38.4947 10.6769 38.4606 10.4218ZM26.8962 7.54132C26.181 7.76631 25.368 8.02187 24.4868 8.29903C24.4876 8.12662 24.4884 7.95666 24.4884 7.7712C24.4884 6.15307 24.2674 4.85041 23.9128 3.81758C25.3371 3.99936 26.2857 5.64603 26.8962 7.54132ZM22.146 4.13835C22.5419 5.14673 22.7994 6.59368 22.7994 8.54644C22.7994 8.6463 22.7986 8.7376 22.7978 8.83012C21.2307 9.32331 19.528 9.85888 17.8214 10.3961C18.7796 6.6381 20.5757 4.8231 22.146 4.13835ZM20.2328 2.29808C20.5107 2.29808 20.7907 2.39387 21.0586 2.58136C18.995 3.56813 16.7829 6.05362 15.8488 11.0168C14.4834 11.4464 13.149 11.8663 11.9152 12.2547C13.0094 8.469 15.6077 2.29808 20.2328 2.29808Z" fill="#95BF46"/>
<path d="M38.0247 10.0101C37.8434 9.99462 34.0057 9.70564 34.0057 9.70564C34.0057 9.70564 31.3404 7.01677 31.048 6.71923C30.9385 6.60836 30.7909 6.55171 30.6365 6.52725L28.4834 51.2803L43.9112 47.8887C43.9112 47.8887 38.4948 10.6769 38.4607 10.4218C38.4262 10.1666 38.2064 10.0256 38.0247 10.0101Z" fill="#5E8E3E"/>
<path d="M23.2438 18.6734L21.3414 24.4241C21.3414 24.4241 19.6744 23.5201 17.6312 23.5201C14.6358 23.5201 14.485 25.4305 14.485 25.9118C14.485 28.5383 21.2226 29.5447 21.2226 35.6968C21.2226 40.537 18.2016 43.6538 14.128 43.6538C9.23987 43.6538 6.74023 40.5622 6.74023 40.5622L8.04901 36.168C8.04901 36.168 10.6184 38.4098 12.7868 38.4098C14.2034 38.4098 14.7798 37.2762 14.7798 36.448C14.7798 33.0218 9.2523 32.869 9.2523 27.2393C9.2523 22.5011 12.5991 17.9157 19.3547 17.9157C21.9578 17.9157 23.2438 18.6734 23.2438 18.6734Z" fill="white"/>
</g>
<defs>
<clipPath id="clip0_22_830">
<rect width="44" height="51" fill="white" transform="translate(0 0.40686)"/>
</clipPath>
</defs>
</svg>
