<svg width="42" height="47" viewBox="0 0 42 47" fill="none" xmlns="http://www.w3.org/2000/svg">
<path d="M38.478 9.49524L24.478 1.48324C23.4031 0.877081 22.19 0.558594 20.956 0.558594C19.722 0.558594 18.5089 0.877081 17.434 1.48324L3.522 9.49524C1.321 10.7282 0 13.1052 0 15.5712V31.6842C0 34.2372 1.32 36.5272 3.522 37.7592L17.434 45.7722C18.5089 46.3784 19.722 46.6969 20.956 46.6969C22.19 46.6969 23.4031 46.3784 24.478 45.7722L38.39 37.7582C40.591 36.5262 41.912 34.1482 41.912 31.6832V15.5712C42 13.1052 40.592 10.7282 38.478 9.49524ZM31.962 16.1872C31.61 15.8352 31.082 15.6592 30.377 15.6592C27.647 15.6592 23.333 14.6022 21.22 12.4892C21.044 12.4012 20.868 12.4012 20.78 12.4892C18.667 14.6022 14.352 15.6592 11.623 15.6592C10.918 15.6592 10.39 15.8352 10.038 16.1872C9.686 16.6272 9.509 17.2442 9.421 17.7722L34.075 27.7222C34.515 27.8982 34.78 28.3382 34.78 28.7782C34.78 29.1302 34.956 31.1562 33.635 32.6522C33.107 33.2692 32.138 33.9732 30.465 33.9732C28.265 33.9732 25.623 34.6782 23.862 35.7342C23.157 36.1742 22.629 36.6142 22.365 37.1432C22.101 37.5832 21.66 37.8472 21.044 37.8472C20.516 37.8472 19.987 37.5832 19.811 37.1432C18.931 35.4702 14.881 33.9732 11.711 33.9732C10.038 33.9732 9.069 33.2692 8.541 32.6532C7.044 31.0672 7.132 28.9542 7.221 28.6902C7.308 28.1622 7.748 27.7212 8.277 27.7212H8.365C8.981 27.8102 9.421 28.3382 9.333 28.9542C9.333 29.3062 9.333 30.4512 9.95 31.1552C10.302 31.5082 10.83 31.6842 11.535 31.6842C14.265 31.6842 18.579 32.7402 20.692 34.8542C20.868 34.9422 21.044 34.9422 21.132 34.8542C23.245 32.7402 27.56 31.6842 30.289 31.6842C30.994 31.6842 31.522 31.5082 31.874 31.1552C32.314 30.7152 32.403 30.0112 32.491 29.5712L7.836 19.6212L7.748 19.5332C7.66 19.4452 7.572 19.4452 7.484 19.3572C7.484 19.3572 7.396 19.2692 7.396 19.1812C7.396 19.0932 7.308 19.0042 7.308 19.0042C7.308 18.9162 7.308 18.9162 7.22 18.8282C7.22 18.7402 7.22 18.7402 7.132 18.6522C7.132 18.3882 6.956 16.2752 8.277 14.7782C8.805 14.1622 9.774 13.4582 11.447 13.4582C14.617 13.4582 18.667 11.9602 19.547 10.2882C19.811 9.84824 20.252 9.58324 20.78 9.58324C21.308 9.58324 21.836 9.84724 22.1 10.2882C22.365 10.8162 22.893 11.2562 23.597 11.6962C25.27 12.6652 28 13.4582 30.201 13.4582C31.874 13.4582 32.843 14.1632 33.371 14.7792C34.691 16.2762 34.604 18.3892 34.516 18.6532C34.428 19.1822 33.987 19.6222 33.459 19.6222H33.371C32.755 19.5342 32.315 19.0062 32.403 18.3892C32.579 18.0372 32.579 16.8922 31.963 16.1882L31.962 16.1872Z" fill="#F9F9F9"/>
</svg>
