<svg width="41" height="41" viewBox="0 0 41 41" fill="none" xmlns="http://www.w3.org/2000/svg">
<g clip-path="url(#clip0_22_825)">
<path d="M40.0184 0.453247H13.0713V13.844H26.3306C26.8029 13.844 27.1861 14.2238 27.1861 14.692V27.6518H40.874V1.30277C40.8744 1.0776 40.7845 0.86152 40.624 0.702159C40.4635 0.542799 40.2456 0.453247 40.0184 0.453247Z" fill="#8E75FF"/>
<path opacity="0.405" d="M13.0693 0.453247V13.844H0.427829C0.254119 13.8437 0.097775 13.7395 0.0319624 13.5802C-0.0338503 13.4209 0.00388654 13.2379 0.127513 13.117L13.0693 0.453247ZM27.9146 40.3295C27.7915 40.4493 27.608 40.4843 27.4488 40.4183C27.2897 40.3523 27.186 40.1982 27.1857 40.0272V27.6518H40.8735L27.9146 40.328V40.3295Z" fill="#8E75FF"/>
<path opacity="0.405" d="M13.0693 13.844H26.7587C26.9934 13.844 27.1858 14.0332 27.1858 14.2672V27.6518H13.9265C13.454 27.6518 13.0709 27.2722 13.0709 26.8039V13.844H13.0693Z" fill="#8E75FF"/>
</g>
<defs>
<clipPath id="clip0_22_825">
<rect width="41" height="40" fill="white" transform="translate(0 0.453247)"/>
</clipPath>
</defs>
</svg>
