<svg width="61" height="27" viewBox="0 0 61 27" fill="none" xmlns="http://www.w3.org/2000/svg">
<g clip-path="url(#clip0_22_572)">
<path d="M4.28694 10.755C4.28694 10.0811 4.82917 9.82195 5.72722 9.82195C7.015 9.82195 8.64167 10.2194 9.92944 10.9278V6.86718C8.52306 6.29696 7.13361 6.07233 5.72722 6.07233C2.2875 6.07233 0 7.90394 0 10.9624C0 15.7315 6.43889 14.9712 6.43889 17.0274C6.43889 17.8223 5.76111 18.0815 4.81222 18.0815C3.40583 18.0815 1.60972 17.494 0.186389 16.6991V20.8116C1.76222 21.5028 3.355 21.7965 4.81222 21.7965C8.33667 21.7965 10.7597 20.0168 10.7597 16.9238C10.7428 11.7745 4.28694 12.6903 4.28694 10.755ZM15.7414 2.61646L11.6069 3.51499L11.59 17.3557C11.59 19.9131 13.4708 21.7965 15.9786 21.7965C17.3681 21.7965 18.3847 21.5373 18.9439 21.2263V17.7186C18.4017 17.9432 15.7244 18.7381 15.7244 16.1807V10.0466H18.9439V6.36608H15.7244L15.7414 2.61646ZM24.2136 7.64475L23.9425 6.36608H20.2825V21.4855H24.5186V11.2389C25.5183 9.90834 27.2128 10.1503 27.7381 10.3403V6.36608C27.1958 6.15873 25.2133 5.77858 24.2136 7.64475ZM28.7717 6.36608H33.0247V21.4855H28.7717V6.36608ZM28.7717 5.05285L33.0247 4.11977V0.612061L28.7717 1.52787V5.05285ZM41.8697 6.07233C40.2092 6.07233 39.1417 6.86718 38.5486 7.42012L38.3283 6.3488H34.6006V26.4965L38.8367 25.5807L38.8536 20.6906C39.4636 21.1399 40.3617 21.7792 41.8528 21.7792C44.8858 21.7792 47.6478 19.291 47.6478 13.8135C47.6308 8.80246 44.835 6.07233 41.8697 6.07233ZM40.8531 17.9778C39.8533 17.9778 39.2603 17.6149 38.8536 17.1657L38.8367 10.755C39.2772 10.2539 39.8872 9.90834 40.8531 9.90834C42.395 9.90834 43.4625 11.6708 43.4625 13.9344C43.4625 16.2499 42.4119 17.9778 40.8531 17.9778ZM61 13.9863C61 9.56276 58.8989 6.07233 54.8831 6.07233C50.8503 6.07233 48.4103 9.56276 48.4103 13.9517C48.4103 19.1528 51.2908 21.7792 55.4253 21.7792C57.4417 21.7792 58.9667 21.3127 60.1189 20.6561V17.2002C58.9667 17.7877 57.645 18.1506 55.9675 18.1506C54.3239 18.1506 52.8667 17.5631 52.6803 15.5241H60.9661C60.9661 15.2995 61 14.401 61 13.9863ZM52.6294 12.3447C52.6294 10.3922 53.7986 9.58003 54.8661 9.58003C55.8997 9.58003 57.0011 10.3922 57.0011 12.3447H52.6294Z" fill="#6772E5"/>
</g>
<defs>
<clipPath id="clip0_22_572">
<rect width="61" height="26" fill="white" transform="translate(0 0.612061)"/>
</clipPath>
</defs>
</svg>
