<svg width="133" height="24" viewBox="0 0 133 24" fill="none" xmlns="http://www.w3.org/2000/svg">
<g clip-path="url(#clip0_22_655)">
<path d="M111.437 18.3106L107.87 11.6558L105.625 14.3833V18.3106H103.742V5.58276H105.625V11.7467L110.514 5.58276H112.686L109.138 10.0558L113.646 18.3106H111.437ZM117.719 18.3106V5.58276H119.602V18.3106H117.719ZM129.415 7.40108V18.3106H127.532V7.40108H123.948V5.58276H133V7.40108H129.415Z" fill="#8D8D93"/>
<path d="M31.7448 18.5286C30.7123 18.5547 29.6961 18.2663 28.83 17.7014C28.0207 17.1654 27.4198 16.3662 27.1279 15.4378L28.9022 14.7832C29.1483 15.3531 29.5502 15.8414 30.0612 16.1914C30.58 16.5405 31.193 16.7214 31.8174 16.7097C32.4177 16.7412 33.01 16.5611 33.4921 16.2006C33.9173 15.842 34.1489 15.3027 34.1167 14.7461C34.1191 14.4902 34.0601 14.2376 33.9446 14.0095C33.8442 13.8055 33.7129 13.6184 33.5554 13.4548C33.3562 13.2726 33.1303 13.1223 32.8855 13.0092C32.5835 12.858 32.333 12.7429 32.134 12.6638C31.935 12.5847 31.6423 12.4787 31.2559 12.3457C30.7732 12.176 30.4111 12.0427 30.1698 11.9458C29.8428 11.8061 29.5253 11.6451 29.2192 11.4638C28.8898 11.2883 28.5903 11.0612 28.332 10.7911C28.1085 10.5275 27.9283 10.2298 27.798 9.90923C27.2848 8.65599 27.6271 7.21359 28.6479 6.32743C29.3721 5.68505 30.3558 5.36379 31.5988 5.36365C32.6369 5.36365 33.491 5.59394 34.1609 6.05453C34.8112 6.4888 35.2887 7.13898 35.5097 7.8912L33.7717 8.47284C33.5971 8.07893 33.3022 7.75102 32.9297 7.53658C32.4792 7.28549 31.969 7.16279 31.4541 7.18175C30.9492 7.15271 30.4491 7.29349 30.0327 7.58182C29.6877 7.85045 29.4951 8.27138 29.5169 8.70925C29.5199 9.04378 29.6647 9.36116 29.915 9.58192C30.1556 9.81986 30.438 10.011 30.7479 10.1456C31.038 10.2668 31.4786 10.4304 32.0699 10.6364C32.4316 10.77 32.7001 10.87 32.8753 10.9364C33.0505 11.0028 33.307 11.1149 33.6449 11.2726C33.9157 11.3929 34.1761 11.5357 34.4233 11.6994C34.6447 11.8592 34.8564 12.0323 35.0571 12.2177C35.2754 12.4077 35.4619 12.6318 35.6095 12.8812C35.7501 13.1399 35.8595 13.4145 35.9352 13.6993C36.0277 14.0338 36.0735 14.3797 36.0713 14.7269C36.0713 15.9149 35.6668 16.8452 34.858 17.5177C34.0492 18.1902 33.0115 18.5272 31.7448 18.5286ZM43.3502 18.3106L39.0049 5.58278H41.0329L43.9116 14.4559C44.0706 14.9331 44.2036 15.4188 44.3099 15.9106C44.4159 15.4187 44.5489 14.933 44.7083 14.4559L47.5507 5.58278H49.5604L45.2331 18.3106H43.3502ZM53.3985 18.3106V5.58278H61.2563V7.36482H55.2816V10.8557H59.1381V12.6378H55.2816V16.5285H61.6556V18.3106H53.3985ZM66.4524 18.3106V5.58278H68.3357V16.4923H74.5275V18.3106H66.4524ZM81.6245 7.40109V18.3106H79.7414V7.40109H76.1567V5.58278H85.2094V7.40109H81.6245ZM89.1013 18.3106V5.58278H96.9591V7.36482H90.985V10.8557H94.8413V12.6378H90.985V16.5285H97.359V18.3106H89.1013Z" fill="#4A4A55"/>
<path d="M18.5385 3.16215C16.3289 -0.0138267 11.9646 -0.955844 8.80932 1.06368L3.26781 4.6107C1.754 5.56701 0.711319 7.11944 0.395503 8.88723C0.13116 10.3598 0.363461 11.8788 1.05563 13.2039C0.58119 13.9264 0.257666 14.7382 0.104638 15.59C-0.214334 17.3916 0.202825 19.2464 1.26193 20.7355C3.47157 23.9119 7.83601 24.8535 10.9909 22.834L16.5326 19.287C18.0464 18.3307 19.0891 16.7782 19.4049 15.0105C19.6691 13.5378 19.4369 12.0188 18.745 10.6936C19.2192 9.97101 19.5426 9.15937 19.6956 8.30772C20.0148 6.50602 19.5978 4.65116 18.5385 3.16215Z" fill="#FF3E00"/>
<path d="M8.26763 21.0344C6.48135 21.5007 4.59508 20.7985 3.54305 19.2756C2.90625 18.3803 2.65536 17.2651 2.84702 16.1818C2.87913 16.0058 2.92336 15.8322 2.97938 15.6623L3.0837 15.3422L3.36777 15.5515C4.0232 16.0355 4.75611 16.4035 5.53491 16.6397L5.74079 16.7024L5.72188 16.909C5.69665 17.2026 5.77584 17.4958 5.94539 17.7364C6.26217 18.1955 6.83063 18.4072 7.3689 18.2666C7.48913 18.2345 7.60377 18.1841 7.70885 18.1173L13.2508 14.5692C13.5249 14.3958 13.7138 14.1146 13.7713 13.7944C13.8287 13.4679 13.7531 13.1318 13.5614 12.8618C13.2446 12.4027 12.6762 12.1909 12.1379 12.3312C12.0176 12.3632 11.903 12.4136 11.7979 12.4805L9.68307 13.8343C9.33508 14.0564 8.95534 14.2238 8.55701 14.3306C6.77073 14.7969 4.88446 14.0947 3.83243 12.5718C3.19544 11.6766 2.94447 10.5613 3.13618 9.47801C3.32665 8.41485 3.95434 7.48148 4.86522 6.90693L10.4065 3.36012C10.7544 3.13772 11.1342 2.97013 11.5326 2.86319C13.3189 2.39683 15.2052 3.09903 16.2571 4.62197C16.894 5.51728 17.145 6.63246 16.9534 7.7158C16.9208 7.89212 16.8763 8.06599 16.8202 8.23621L16.7159 8.55626L16.432 8.34737C15.7766 7.86334 15.0437 7.49533 14.2649 7.2592L14.0588 7.19647L14.0779 6.98993C14.1028 6.69628 14.0237 6.40322 13.8544 6.16249C13.5378 5.70381 12.9699 5.49214 12.4319 5.63227C12.3117 5.66436 12.1971 5.71473 12.092 5.78163L6.54943 9.32844C6.27533 9.50172 6.08648 9.78283 6.0291 10.103C5.9714 10.4295 6.0469 10.7657 6.23859 11.0358C6.55546 11.4948 7.12375 11.7067 7.6621 11.5664C7.78231 11.5343 7.89693 11.4839 8.00205 11.4171L10.1165 10.0639C10.4643 9.84149 10.8441 9.67397 11.2426 9.56719C13.0283 9.10104 14.914 9.80276 15.9661 11.3249C16.6031 12.2202 16.854 13.3354 16.6623 14.4187C16.4723 15.4818 15.8453 16.4154 14.935 16.9907L9.39369 20.5375C9.04582 20.7599 8.66606 20.9275 8.26763 21.0344Z" fill="white"/>
</g>
<defs>
<clipPath id="clip0_22_655">
<rect width="133" height="24" fill="white"/>
</clipPath>
</defs>
</svg>
