<svg width="45" height="54" viewBox="0 0 45 54" fill="none" xmlns="http://www.w3.org/2000/svg">
<path d="M42.1317 7.14482C37.1099 -0.0319248 27.1919 -2.15914 20.0207 2.40304L7.42626 10.418C3.98602 12.5791 1.61642 16.087 0.898557 20.0815C0.297801 23.4092 0.825852 26.8419 2.39911 29.8362C1.32107 31.4691 0.585806 33.3033 0.237756 35.2279C-0.487071 39.2991 0.461029 43.4903 2.86802 46.8551C7.89088 54.0325 17.809 56.1588 24.9791 51.5969L37.5735 43.5819C41.014 41.4211 43.3836 37.9131 44.1012 33.9184C44.7018 30.5907 44.1741 27.1581 42.6016 24.1635C43.6793 22.5307 44.4143 20.6965 44.762 18.772C45.4873 14.7008 44.5392 10.5095 42.1317 7.14482Z" fill="#FF3E00"/>
<path d="M18.7894 47.5303C14.7299 48.5842 10.4431 46.9975 8.05231 43.5562C6.60449 41.5328 6.03417 39.0123 6.47016 36.5639C6.54323 36.166 6.6438 35.7736 6.77113 35.3896L7.00831 34.6674L7.65352 35.1407C9.14369 36.2339 10.8098 37.0652 12.5802 37.5985L13.0483 37.7403L13.0052 38.2068C12.948 38.8704 13.1279 39.5328 13.5132 40.0766C14.2327 41.1132 15.5234 41.5916 16.7461 41.2747C17.0198 41.2017 17.2806 41.0872 17.5196 40.9352L30.1141 32.9212C30.7372 32.5294 31.1666 31.8941 31.2974 31.1705C31.428 30.4325 31.2562 29.6732 30.8205 29.063C30.1006 28.0261 28.8096 27.5476 27.5865 27.8641C27.3131 27.9372 27.0526 28.0516 26.8139 28.2034L22.0078 31.2625C21.2175 31.7643 20.3551 32.1424 19.4503 32.3839C15.3907 33.4379 11.1037 31.8512 8.71287 28.4098C7.26506 26.3864 6.69474 23.8659 7.13072 21.4176C7.56236 19.0155 8.98747 16.9062 11.0564 15.6071L23.6501 7.59236C24.4407 7.0898 25.3038 6.71115 26.2092 6.46959C30.2688 5.4157 34.5557 7.00239 36.9465 10.4437C38.3943 12.4671 38.9646 14.9876 38.5286 17.436C38.4552 17.8338 38.3547 18.2262 38.2276 18.6103L37.9905 19.3325L37.3456 18.86C35.8555 17.7661 34.1892 16.9345 32.4185 16.4011L31.9505 16.2592L31.9936 15.7927C32.0503 15.1292 31.8704 14.4669 31.4856 13.923C30.7661 12.8864 29.4753 12.408 28.2527 12.7249C27.979 12.7979 27.7182 12.9124 27.4792 13.0643L14.8845 21.0788C14.2612 21.4703 13.832 22.1058 13.7018 22.8294C13.5705 23.5673 13.742 24.327 14.1778 24.9372C14.8977 25.974 16.1888 26.4526 17.4119 26.136C17.6855 26.0628 17.9464 25.9483 18.1854 25.7965L22.9909 22.7385C23.7808 22.2362 24.6432 21.8576 25.5481 21.6162C29.6077 20.5623 33.8947 22.149 36.2855 25.5904C37.7333 27.6137 38.3036 30.1342 37.8676 32.5826C37.4357 34.9847 36.0107 37.0942 33.9419 38.394L21.3485 46.4076C20.5578 46.9101 19.6949 47.2888 18.7894 47.5303Z" fill="white"/>
</svg>
