<svg width="50" height="31" viewBox="0 0 50 31" fill="none" xmlns="http://www.w3.org/2000/svg">
<g clip-path="url(#clip0_22_838)">
<path d="M24.6958 0.701294C18.1102 0.701294 13.9943 3.99407 12.3479 10.5796C14.8175 7.28684 17.6986 6.05205 20.9914 6.87524C22.8701 7.34492 24.2129 8.70785 25.6993 10.2166C28.1205 12.6743 30.9229 15.5188 37.0437 15.5188C43.6292 15.5188 47.7452 12.226 49.3916 5.64045C46.922 8.93322 44.0408 10.168 40.748 9.34482C38.8693 8.87514 37.5265 7.51221 36.0402 6.00348C33.6189 3.54579 30.8166 0.701294 24.6958 0.701294ZM12.3479 15.5188C5.76235 15.5188 1.64639 18.8115 0 25.3971C2.46958 22.1043 5.35075 20.8695 8.64352 21.6927C10.5222 22.1624 11.865 23.5253 13.3514 25.0341C15.7726 27.4917 18.575 30.3362 24.6958 30.3362C31.2813 30.3362 35.3973 27.0435 37.0437 20.4579C34.5741 23.7507 31.6929 24.9855 28.4002 24.1623C26.5214 23.6926 25.1786 22.3297 23.6923 20.821C21.271 18.3633 18.4687 15.5188 12.3479 15.5188Z" fill="url(#paint0_linear_22_838)"/>
</g>
<defs>
<linearGradient id="paint0_linear_22_838" x1="-1.37199" y1="10.1845" x2="41.2857" y2="34.7799" gradientUnits="userSpaceOnUse">
<stop stop-color="#2298BD"/>
<stop offset="1" stop-color="#0ED7B5"/>
</linearGradient>
<clipPath id="clip0_22_838">
<rect width="49.3916" height="29.7121" fill="white" transform="translate(0 0.701294)"/>
</clipPath>
</defs>
</svg>
