<svg width="41" height="47" viewBox="0 0 41 47" fill="none" xmlns="http://www.w3.org/2000/svg">
<g clip-path="url(#clip0_77_1445)">
<path d="M28.5878 17.2436C28.5878 19.6556 26.6203 21.611 24.1933 21.611C21.7663 21.611 19.7988 19.6556 19.7988 17.2436C19.7988 14.8315 21.7663 12.8762 24.1933 12.8762C26.6203 12.8762 28.5878 14.8315 28.5878 17.2436Z" fill="#FFC131"/>
<path d="M16.8018 25.3828C14.3748 25.3828 12.4073 27.3382 12.4073 29.7502C12.4073 32.1623 14.3748 34.1176 16.8018 34.1176C19.2288 34.1176 21.1963 32.1623 21.1963 29.7502C21.1963 27.3382 19.2288 25.3828 16.8018 25.3828Z" fill="#24C8DB"/>
<path d="M33.3018 31.2391C31.5357 32.3738 29.5707 33.1685 27.5091 33.5816C28.1066 31.8887 28.3047 30.0821 28.0884 28.301C32.8856 26.6343 36.0676 22.0992 35.9828 17.0493C35.8981 11.9994 32.5658 7.57218 27.7153 6.06537C22.8648 4.55856 17.5887 6.31153 14.6253 10.4145C12.3893 10.6645 10.2135 11.2958 8.19336 12.2806C10.3881 5.2429 16.97 0.470898 24.3833 0.542544C31.7966 0.61419 38.2839 5.5125 40.3405 12.5913C42.3972 19.67 39.5356 27.2512 33.3018 31.2391ZM8.39311 15.3179L12.5079 15.8142C12.6013 15.0245 12.7753 14.2462 13.0273 13.4915C11.3997 13.8676 9.83771 14.4832 8.39311 15.3179Z" fill="#FFC131"/>
<path d="M7.6736 15.7546C9.45035 14.6083 11.4294 13.8068 13.5063 13.3923C12.8781 15.0849 12.6524 16.899 12.8471 18.6927C8.06686 20.3828 4.91158 24.9239 5.01448 29.9653C5.11737 35.0068 8.45533 39.4169 13.3006 40.913C18.1459 42.4091 23.4108 40.6553 26.3701 36.5594C28.6049 36.3156 30.7806 35.6911 32.802 34.7132C30.6019 41.7432 24.0233 46.5073 16.6158 46.4352C9.20824 46.363 2.72492 41.4716 0.663841 34.4C-1.39723 27.3285 1.45173 19.7505 7.6736 15.7546Z" fill="#24C8DB"/>
</g>
<defs>
<clipPath id="clip0_77_1445">
<rect width="41" height="46" fill="white" transform="translate(0 0.541748)"/>
</clipPath>
</defs>
</svg>
