<svg width="82" height="20" viewBox="0 0 82 20" fill="none" xmlns="http://www.w3.org/2000/svg">
<g clip-path="url(#clip0_22_434)">
<path d="M40.9072 5.10917C37.7052 5.10917 35.3964 7.24488 35.3964 10.4484C35.3964 13.652 37.9952 15.7877 41.1972 15.7877C43.1318 15.7877 44.8372 15.0046 45.893 13.6846L43.6742 12.3735C43.0883 13.0291 42.1979 13.4117 41.1972 13.4117C39.8079 13.4117 38.6275 12.6702 38.1895 11.4837H46.3164C46.3802 11.1514 46.4179 10.8074 46.4179 10.4455C46.4179 7.24488 44.1092 5.10917 40.9072 5.10917ZM38.1634 9.41025C38.526 8.22671 39.5179 7.48218 40.9043 7.48218C42.2936 7.48218 43.2855 8.22671 43.6452 9.41025H38.1634ZM72.1386 5.10917C68.9366 5.10917 66.6279 7.24488 66.6279 10.4484C66.6279 13.652 69.2267 15.7877 72.4287 15.7877C74.3633 15.7877 76.0687 15.0046 77.1244 13.6846L74.9056 12.3735C74.3198 13.0291 73.4293 13.4117 72.4287 13.4117C71.0394 13.4117 69.8589 12.6702 69.421 11.4837H77.5479C77.6117 11.1514 77.6494 10.8074 77.6494 10.4455C77.6494 7.24488 75.3407 5.10917 72.1386 5.10917ZM69.3978 9.41025C69.7603 8.22671 70.7523 7.48218 72.1386 7.48218C73.5279 7.48218 74.5199 8.22671 74.8795 9.41025H69.3978ZM58.0775 10.4484C58.0775 12.2282 59.2145 13.4147 60.9779 13.4147C62.1729 13.4147 63.0691 12.86 63.5303 11.9553L65.7578 13.2694C64.8355 14.8415 63.1068 15.7877 60.9779 15.7877C57.773 15.7877 55.4672 13.652 55.4672 10.4484C55.4672 7.24488 57.7759 5.10917 60.9779 5.10917C63.1068 5.10917 64.8326 6.05541 65.7578 7.62753L63.5303 8.94158C63.0691 8.03687 62.1729 7.48218 60.9779 7.48218C59.2174 7.48218 58.0775 8.66868 58.0775 10.4484ZM82 1.84629V15.4911H79.3896V1.84629H82ZM10.717 0.363159L21.4339 19.3472H0L10.717 0.363159ZM37.5108 1.84629L29.4738 16.0843L21.4368 1.84629H24.4503L29.4738 10.7451L34.4973 1.84629H37.5108ZM54.5971 5.4058V8.2801C54.307 8.19408 53.9996 8.13476 53.6689 8.13476C51.9838 8.13476 50.7685 9.32126 50.7685 11.101V15.4911H48.1582V5.4058H50.7685V8.13476C50.7685 6.6279 52.4827 5.4058 54.5971 5.4058Z" fill="white"/>
</g>
<defs>
<clipPath id="clip0_22_434">
<rect width="82" height="19" fill="white" transform="translate(0 0.363159)"/>
</clipPath>
</defs>
</svg>
