<svg width="50" height="51" viewBox="0 0 50 51" fill="none" xmlns="http://www.w3.org/2000/svg">
<g clip-path="url(#clip0_22_849)">
<path d="M49.2281 7.93159L26.0264 49.4203C25.5474 50.2768 24.3167 50.2819 23.8304 49.4295L0.168709 7.93559C-0.361005 7.00667 0.433325 5.88149 1.48597 6.06964L24.7125 10.2212C24.8607 10.2477 25.0124 10.2475 25.1605 10.2205L47.9013 6.07559C48.9505 5.88437 49.7485 7.00084 49.2281 7.93159Z" fill="url(#paint0_linear_22_849)"/>
<path d="M35.7765 0.624236L18.6065 3.98862C18.3243 4.04391 18.1154 4.28307 18.0983 4.57008L17.0422 22.4083C17.0173 22.8285 17.4032 23.1545 17.8132 23.06L22.5936 21.9567C23.0409 21.8536 23.445 22.2475 23.3531 22.6973L21.9328 29.652C21.8373 30.12 22.2767 30.5203 22.7338 30.3814L25.6864 29.4844C26.1441 29.3454 26.584 29.7468 26.4871 30.2152L24.2301 41.1395C24.0889 41.8228 24.9978 42.1954 25.3768 41.6095L25.63 41.2183L39.6211 13.2967C39.8553 12.8292 39.4513 12.2962 38.9379 12.3952L34.0173 13.3449C33.5549 13.4341 33.1615 13.0034 33.292 12.551L36.5035 1.4177C36.6342 0.96454 36.2394 0.533544 35.7765 0.624236Z" fill="url(#paint1_linear_22_849)"/>
</g>
<defs>
<linearGradient id="paint0_linear_22_849" x1="-0.40901" y1="9.41694" x2="24.614" y2="43.4002" gradientUnits="userSpaceOnUse">
<stop stop-color="#41D1FF"/>
<stop offset="1" stop-color="#BD34FE"/>
</linearGradient>
<linearGradient id="paint1_linear_22_849" x1="26.8649" y1="1.53766" x2="32.0125" y2="36.8496" gradientUnits="userSpaceOnUse">
<stop stop-color="#FFEA83"/>
<stop offset="0.0833333" stop-color="#FFDD35"/>
<stop offset="1" stop-color="#FFA800"/>
</linearGradient>
<clipPath id="clip0_22_849">
<rect width="49.3916" height="49.5845" fill="white" transform="translate(0 0.612061)"/>
</clipPath>
</defs>
</svg>
