<svg width="71" height="19" viewBox="0 0 71 19" fill="none" xmlns="http://www.w3.org/2000/svg">
<g clip-path="url(#clip0_22_617)">
<path d="M22.9259 7.62699C22.9259 6.34318 21.6874 4.97967 19.5441 4.97967C17.1373 4.97967 14.4934 6.75931 14.0893 10.3097C13.6765 13.8956 15.89 15.4893 18.1211 15.4893C20.3522 15.4893 21.5205 14.6127 22.7151 13.444C21.6874 12.1425 20.361 12.7446 20.1063 12.8774C19.8252 13.019 19.465 13.2138 18.7272 13.2138C17.8664 13.2138 16.988 12.8242 16.988 11.204C22.5043 10.655 22.9259 8.91081 22.9259 7.62699ZM20.1941 7.83949C20.159 8.23791 20.0009 8.91966 17.2076 9.30038C17.7961 7.19315 18.9205 7.03378 19.4387 7.03378C19.9218 7.03378 20.2292 7.4145 20.1941 7.83949ZM10.8481 8.18479C10.8481 8.18479 9.66225 11.9388 9.56563 12.2487C9.5305 11.93 8.66089 5.19217 8.66089 5.19217C6.6406 5.19217 5.56019 6.64421 4.98924 8.17594C4.98924 8.17594 3.54868 11.9388 3.42571 12.2576C3.41692 11.9654 3.20611 8.22021 3.20611 8.22021C3.08314 6.34318 1.37907 5.20102 0 5.20102L1.66893 15.4096C3.78585 15.4007 4.92775 13.9575 5.52505 12.4258C5.52505 12.4258 6.79871 9.1056 6.85142 8.95508C6.8602 9.09674 7.76494 15.4096 7.76494 15.4096C9.89063 15.4096 11.0325 14.0549 11.6474 12.5763L14.6251 5.20102C12.5258 5.20102 11.419 6.64421 10.8481 8.18479ZM30.726 4.96197C29.4172 4.96197 28.4158 5.67913 27.5726 6.73275V6.72389L28.328 0.588135C26.5888 0.588135 25.1746 2.11101 24.9023 4.37761L23.5847 15.3299C24.586 15.3299 25.6489 15.0377 26.2198 14.294C26.7293 14.958 27.4935 15.4893 28.6266 15.4893C31.5604 15.4893 33.5719 12.0539 33.5719 8.83112C33.5544 5.89163 32.1402 4.96197 30.726 4.96197ZM30.4537 10.23C30.1462 12.0274 29.1537 13.2492 28.1962 13.2492C27.23 13.2492 26.8171 12.8154 26.8171 12.8154C27.0016 11.2394 27.1158 10.2743 27.4672 9.44204C27.8185 8.60978 28.653 7.28169 29.5226 7.28169C30.3746 7.28169 30.7611 8.42385 30.4537 10.23ZM40.8977 5.20102H38.851L38.8598 5.09478C39.0004 3.74898 39.3166 3.04067 40.3619 2.92557C41.0734 2.85474 41.3896 2.48287 41.4686 2.07559C41.5301 1.75685 41.7234 0.650112 41.7234 0.650112C37.6125 0.62355 36.3213 2.41204 35.9875 5.13904L35.9787 5.20102H35.9348C35.2672 5.20102 34.5294 5.96246 34.4064 6.92753L34.3625 7.28169H35.7328L34.5821 16.8616L34.2307 18.5793C34.2747 18.5793 34.3274 18.5881 34.3713 18.5881C36.2949 18.5173 37.5247 16.9856 37.797 14.7632L38.6929 7.28169H39.3342C39.9666 7.28169 40.7044 6.64421 40.8362 5.58174L40.8977 5.20102ZM51.5437 5.02394C49.1809 5.02394 46.9498 6.77702 46.2646 9.53058C45.5795 12.2842 46.616 15.5424 50.0944 15.5424C53.564 15.5424 55.5667 12.1513 55.5667 9.32694C55.5667 6.52025 53.6782 5.02394 51.5437 5.02394ZM52.5012 10.1415C52.3782 11.3899 51.8336 13.2846 50.3403 13.2846C48.8383 13.2846 49.0491 11.0712 49.1984 10.0175C49.3565 8.8931 49.9802 7.29054 51.3241 7.29054C52.5275 7.29054 52.6417 8.73373 52.5012 10.1415ZM67.2405 8.18479C67.2405 8.18479 66.0547 11.9388 65.9581 12.2487C65.9229 11.93 65.0533 5.19217 65.0533 5.19217C63.033 5.19217 61.9526 6.64421 61.3817 8.17594C61.3817 8.17594 59.9411 11.9388 59.8181 12.2576C59.8094 11.9654 59.5985 8.22021 59.5985 8.22021C59.4756 6.34318 57.7715 5.20102 56.3924 5.20102L58.0526 15.4096C60.1695 15.4007 61.3114 13.9575 61.9087 12.4258C61.9087 12.4258 63.1824 9.1056 63.2263 8.95508C63.2351 9.09674 64.1398 15.4096 64.1398 15.4096C66.2655 15.4096 67.4074 14.0549 68.0223 12.5763L71 5.20102C68.9094 5.20102 67.8027 6.64421 67.2405 8.18479ZM42.8301 0.650112L41.1085 14.6481L40.7571 16.3747C40.8011 16.3747 40.8538 16.3835 40.8977 16.3835C42.7511 16.3569 44.0687 14.719 44.3146 12.656L45.3072 4.62552C45.6058 2.17298 44.1565 0.650112 42.8301 0.650112Z" fill="#EFEFEF"/>
</g>
<defs>
<clipPath id="clip0_22_617">
<rect width="71" height="18" fill="white" transform="translate(0 0.588135)"/>
</clipPath>
</defs>
</svg>
