<svg width="40" height="30" viewBox="0 0 40 30" fill="none" xmlns="http://www.w3.org/2000/svg">
<path d="M13.45 1.07991C14.05 0.579907 14.85 0.579905 15.45 1.17991C16.85 2.57991 18.35 4.0799 19.75 5.4799L17.65 7.67991L14.95 4.9799C14.65 4.6799 14.25 4.6799 13.85 4.8799C13.85 4.8799 13.85 4.8799 13.75 4.9799C10.55 8.0799 7.45 11.2799 4.25 14.4799C3.95 14.7799 3.85 15.2799 4.15 15.5799L4.25 15.6799C7.25 18.6799 10.25 21.6799 13.25 24.6799C13.45 24.9799 13.75 25.1799 14.05 25.3799C14.35 25.4799 14.75 25.3799 14.95 25.1799L17.55 22.5799L19.65 24.7799L15.65 28.7799C15.35 29.0799 15.05 29.2799 14.75 29.4799C14.15 29.6799 13.55 29.4799 13.15 29.0799C8.95 24.8799 4.65 20.5799 0.45 16.3799C-0.15 15.7799 -0.15 14.7799 0.45 14.1799C4.85 9.6799 9.15 5.37991 13.45 1.07991Z" fill="#9187F6"/>
<path d="M24.0508 1.07988C24.6508 0.479883 25.6508 0.479883 26.2508 1.07988L38.9508 13.7799C39.3508 14.1799 39.5508 14.7799 39.3508 15.3799C39.1508 15.7799 38.8508 16.0799 38.5508 16.3799L26.6508 28.3799C26.3508 28.6799 26.0508 28.9799 25.6508 29.1799C25.0508 29.3799 24.4508 29.1799 24.0508 28.7799L19.7508 24.5799L17.6508 22.4799L11.2508 16.0799C10.6508 15.4799 10.6508 14.4799 11.2508 13.9799L17.5508 7.67988L19.7508 5.47988C21.1508 3.97988 22.6508 2.57988 24.0508 1.07988Z" fill="#8313DD"/>
</svg>
