<svg width="50" height="31" viewBox="0 0 50 31" fill="none" xmlns="http://www.w3.org/2000/svg">
<g clip-path="url(#clip0_22_835)">
<rect x="1" y="3.75732" width="47" height="20" fill="#D9D9D9"/>
<path fill-rule="evenodd" clip-rule="evenodd" d="M44.7877 0.790527H4.58404C2.03975 0.790527 -0.0199004 2.87037 0.000145088 5.39446V20.7409C0.000145088 23.2851 2.05995 25.3448 4.60423 25.3448H23.6459L32.349 30.1911L30.3701 25.3448H44.7877C47.332 25.3448 49.3916 23.2851 49.3916 20.7409V5.39446C49.3916 2.85017 47.332 0.790527 44.7877 0.790527ZM3.73603 4.34443C3.17063 4.38482 2.74658 4.58675 2.46388 4.9704C2.18119 5.33388 2.08023 5.7983 2.1408 6.32332C3.33217 13.8956 4.44277 19.0043 5.4726 21.6496C5.87646 22.6188 6.34089 23.0833 6.88609 23.0429C7.73417 22.9823 8.74381 21.8111 9.93518 19.5294C10.5611 18.237 11.5304 16.2986 12.8429 13.7138C13.9333 17.5302 15.4275 20.3977 17.3055 22.3159C17.8306 22.8611 18.3758 23.1034 18.9007 23.0631C19.3652 23.0227 19.7286 22.7803 19.9709 22.3361C20.1729 21.9524 20.2536 21.5082 20.2132 21.0034C20.0921 19.1659 20.2739 16.6014 20.7787 13.31C21.3036 9.91762 21.9498 7.4743 22.7373 6.02043C22.8989 5.71754 22.9594 5.41464 22.9393 5.05118C22.8989 4.58674 22.6969 4.20309 22.3133 3.9002C21.9297 3.59731 21.5055 3.45596 21.0411 3.49634C20.4556 3.53673 20.0113 3.81942 19.7085 4.38482C18.4565 6.66659 17.568 10.3619 17.0431 15.4908C16.2757 13.5523 15.6295 11.2705 15.1247 8.58489C14.9026 7.39354 14.3574 6.82813 13.4689 6.88872C12.8631 6.92909 12.3583 7.33295 11.9545 8.10027L7.53226 16.5206C6.80531 13.5927 6.11876 10.0186 5.49279 5.7983C5.35144 4.74829 4.76585 4.26366 3.73603 4.34443ZM42.6473 5.79837C44.0811 6.10127 45.1513 6.86859 45.8782 8.14072C46.5244 9.23114 46.8473 10.5437 46.8473 12.1187C46.8473 14.1985 46.3224 16.0966 45.2723 17.8332C44.0608 19.8525 42.4858 20.8621 40.5271 20.8621C40.1839 20.8621 39.8204 20.8217 39.4366 20.7409C38.003 20.4381 36.9328 19.6708 36.2058 18.3986C35.5597 17.288 35.2366 15.9553 35.2366 14.4004C35.2366 12.3206 35.7617 10.4225 36.8116 8.70612C38.0434 6.68685 39.6184 5.67722 41.557 5.67722C41.9002 5.67722 42.2637 5.7176 42.6473 5.79837ZM41.7993 16.7226C42.5464 16.0562 43.0512 15.0668 43.3339 13.7341C43.4147 13.2697 43.4752 12.7648 43.4752 12.2398C43.4752 11.6543 43.3541 11.0283 43.1117 10.4023C42.8089 9.61479 42.405 9.19075 41.9203 9.08978C41.1935 8.94843 40.4867 9.35229 39.8204 10.3417C39.2752 11.109 38.9318 11.9168 38.7502 12.7447C38.6491 13.2091 38.6087 13.714 38.6087 14.2187C38.6087 14.8043 38.7299 15.4303 38.9722 16.0562C39.2752 16.8437 39.679 17.2678 40.1636 17.3688C40.6684 17.4697 41.2136 17.2476 41.7993 16.7226ZM33.2173 8.14072C32.4903 6.86859 31.4 6.10127 29.9865 5.79837C29.6027 5.7176 29.2394 5.67722 28.896 5.67722C26.9576 5.67722 25.3826 6.68685 24.1508 8.70612C23.1007 10.4225 22.5758 12.3206 22.5758 14.4004C22.5758 15.9553 22.8989 17.288 23.545 18.3986C24.272 19.6708 25.3422 20.4381 26.7758 20.7409C27.1594 20.8217 27.5229 20.8621 27.8663 20.8621C29.8249 20.8621 31.4 19.8525 32.6115 17.8332C33.6616 16.0966 34.1865 14.1985 34.1865 12.1187C34.1865 10.5437 33.8634 9.23114 33.2173 8.14072ZM30.673 13.7341C30.3904 15.0668 29.8855 16.0562 29.1383 16.7226C28.5528 17.2476 28.0076 17.4697 27.5028 17.3688C27.0181 17.2678 26.6142 16.8437 26.3114 16.0562C26.0691 15.4303 25.9479 14.8043 25.9479 14.2187C25.9479 13.714 25.9883 13.2091 26.0893 12.7447C26.271 11.9168 26.6142 11.109 27.1594 10.3417C27.8259 9.35229 28.5326 8.94843 29.2595 9.08978C29.7442 9.19075 30.148 9.61479 30.4509 10.4023C30.6932 11.0283 30.8144 11.6543 30.8144 12.2398C30.8144 12.7648 30.774 13.2697 30.673 13.7341Z" fill="#7F54B3"/>
</g>
<defs>
<clipPath id="clip0_22_835">
<rect width="49.3916" height="29.5192" fill="white" transform="translate(0 0.790527)"/>
</clipPath>
</defs>
</svg>
