<svg width="50" height="50" viewBox="0 0 50 50" fill="none" xmlns="http://www.w3.org/2000/svg">
<g clip-path="url(#clip0_22_846)">
<circle cx="24.5" cy="25.0101" r="24.5" fill="#F9F9F9"/>
<path d="M3.49676 25.0129C3.49676 33.3661 8.35119 40.5849 15.3905 44.0057L5.32385 16.4244C4.15291 19.0489 3.49676 21.9534 3.49676 25.0129ZM38.8467 23.9479C38.8467 21.3398 37.9098 19.5336 37.1063 18.1278C36.0366 16.3894 35.0339 14.9173 35.0339 13.179C35.0339 11.239 36.5052 9.43324 38.5776 9.43324C38.6712 9.43324 38.7599 9.44488 38.8511 9.4501C35.0965 6.01036 30.0943 3.91021 24.6002 3.91021C17.2276 3.91021 10.7413 7.69289 6.96782 13.4223C7.46295 13.4372 7.92955 13.4476 8.32589 13.4476C10.5333 13.4476 13.9501 13.1798 13.9501 13.1798C15.0877 13.1127 15.2218 14.7836 14.0854 14.9181C14.0854 14.9181 12.9422 15.0526 11.6701 15.1193L19.3551 37.9779L23.9734 24.127L20.6854 15.1185C19.549 15.0518 18.4724 14.9173 18.4724 14.9173C17.3352 14.8506 17.4686 13.1119 18.6058 13.179C18.6058 13.179 22.0909 13.4468 24.1645 13.4468C26.3715 13.4468 29.7887 13.179 29.7887 13.179C30.9272 13.1119 31.0609 14.7828 29.9241 14.9173C29.9241 14.9173 28.7784 15.0518 27.5087 15.1185L35.1351 37.8041L37.24 30.77C38.1524 27.8511 38.8467 25.7545 38.8467 23.9479ZM24.9704 26.8588L18.6387 45.2578C20.5292 45.8135 22.5286 46.1175 24.6002 46.1175C27.0577 46.1175 29.4145 45.6927 31.6082 44.9213C31.5516 44.8309 31.5002 44.735 31.458 44.6306L24.9704 26.8588ZM43.1176 14.888C43.2084 15.5602 43.2598 16.2818 43.2598 17.058C43.2598 19.1995 42.8598 21.6069 41.6552 24.6169L35.209 43.2544C41.4829 39.5958 45.7029 32.7987 45.7029 25.0133C45.7033 21.3442 44.766 17.8941 43.1176 14.888ZM24.6002 0.413452C11.036 0.413452 0 11.4487 0 25.0129C0 38.5787 11.036 49.6135 24.6002 49.6135C38.164 49.6135 49.2016 38.5787 49.2016 25.0129C49.2012 11.4487 38.164 0.413452 24.6002 0.413452ZM24.6002 48.4859C11.658 48.4859 1.12797 37.9559 1.12797 25.0129C1.12797 12.0707 11.6576 1.54143 24.6002 1.54143C37.542 1.54143 48.0712 12.0707 48.0712 25.0129C48.0712 37.9559 37.542 48.4859 24.6002 48.4859Z" fill="#464342"/>
</g>
<defs>
<clipPath id="clip0_22_846">
<rect width="49.3916" height="49.1986" fill="white" transform="translate(0 0.413452)"/>
</clipPath>
</defs>
</svg>
